ISO-10303-21;
HEADER;
/* Generated by software containing ST-Developer
 * from STEP Tools, Inc. (www.steptools.com) 
 */

FILE_DESCRIPTION(
/* description */ (''),
/* implementation_level */ '2;1');

FILE_NAME(
/* name */ '33uh inductor.step',
/* time_stamp */ '2026-06-14T15:28:36-07:00',
/* author */ (''),
/* organization */ (''),
/* preprocessor_version */ 'ST-DEVELOPER v20.1',
/* originating_system */ 'Autodesk Translation Framework v15.8.0.0',
/* authorisation */ '');

FILE_SCHEMA (('AUTOMOTIVE_DESIGN { 1 0 10303 214 3 1 1 }'));
ENDSEC;

DATA;
#10=MECHANICAL_DESIGN_GEOMETRIC_PRESENTATION_REPRESENTATION('',(#26,#27,
#28),#853);
#11=SHAPE_REPRESENTATION_RELATIONSHIP('SRR','None',#860,#12);
#12=ADVANCED_BREP_SHAPE_REPRESENTATION('',(#13),#852);
#13=MANIFOLD_SOLID_BREP('Body1',#521);
#14=CYLINDRICAL_SURFACE('',#558,0.8);
#15=CYLINDRICAL_SURFACE('',#560,0.8);
#16=CYLINDRICAL_SURFACE('',#562,0.8);
#17=CYLINDRICAL_SURFACE('',#564,0.8);
#18=CIRCLE('',#544,0.8);
#19=CIRCLE('',#545,0.8);
#20=CIRCLE('',#546,0.8);
#21=CIRCLE('',#547,0.8);
#22=CIRCLE('',#559,0.8);
#23=CIRCLE('',#561,0.8);
#24=CIRCLE('',#563,0.8);
#25=CIRCLE('',#565,0.8);
#26=STYLED_ITEM('',(#871),#502);
#27=STYLED_ITEM('',(#871),#512);
#28=STYLED_ITEM('',(#870),#13);
#29=FACE_OUTER_BOUND('',#55,.T.);
#30=FACE_OUTER_BOUND('',#56,.T.);
#31=FACE_OUTER_BOUND('',#57,.T.);
#32=FACE_OUTER_BOUND('',#58,.T.);
#33=FACE_OUTER_BOUND('',#59,.T.);
#34=FACE_OUTER_BOUND('',#60,.T.);
#35=FACE_OUTER_BOUND('',#61,.T.);
#36=FACE_OUTER_BOUND('',#62,.T.);
#37=FACE_OUTER_BOUND('',#63,.T.);
#38=FACE_OUTER_BOUND('',#64,.T.);
#39=FACE_OUTER_BOUND('',#65,.T.);
#40=FACE_OUTER_BOUND('',#66,.T.);
#41=FACE_OUTER_BOUND('',#67,.T.);
#42=FACE_OUTER_BOUND('',#68,.T.);
#43=FACE_OUTER_BOUND('',#69,.T.);
#44=FACE_OUTER_BOUND('',#70,.T.);
#45=FACE_OUTER_BOUND('',#71,.T.);
#46=FACE_OUTER_BOUND('',#72,.T.);
#47=FACE_OUTER_BOUND('',#73,.T.);
#48=FACE_OUTER_BOUND('',#74,.T.);
#49=FACE_OUTER_BOUND('',#75,.T.);
#50=FACE_OUTER_BOUND('',#76,.T.);
#51=FACE_OUTER_BOUND('',#77,.T.);
#52=FACE_OUTER_BOUND('',#78,.T.);
#53=FACE_OUTER_BOUND('',#79,.T.);
#54=FACE_OUTER_BOUND('',#80,.T.);
#55=EDGE_LOOP('',(#329,#330,#331,#332));
#56=EDGE_LOOP('',(#333,#334,#335,#336));
#57=EDGE_LOOP('',(#337,#338,#339,#340));
#58=EDGE_LOOP('',(#341,#342,#343,#344));
#59=EDGE_LOOP('',(#345,#346,#347,#348));
#60=EDGE_LOOP('',(#349,#350,#351,#352));
#61=EDGE_LOOP('',(#353,#354,#355,#356));
#62=EDGE_LOOP('',(#357,#358,#359,#360,#361,#362,#363,#364));
#63=EDGE_LOOP('',(#365,#366,#367,#368,#369,#370,#371,#372,#373,#374,#375,
#376,#377,#378,#379,#380));
#64=EDGE_LOOP('',(#381,#382,#383,#384,#385,#386,#387,#388,#389,#390,#391,
#392));
#65=EDGE_LOOP('',(#393,#394,#395,#396));
#66=EDGE_LOOP('',(#397,#398,#399,#400));
#67=EDGE_LOOP('',(#401,#402,#403,#404));
#68=EDGE_LOOP('',(#405,#406,#407,#408));
#69=EDGE_LOOP('',(#409,#410,#411,#412));
#70=EDGE_LOOP('',(#413,#414,#415,#416));
#71=EDGE_LOOP('',(#417,#418,#419,#420));
#72=EDGE_LOOP('',(#421,#422,#423,#424,#425,#426,#427,#428));
#73=EDGE_LOOP('',(#429,#430,#431,#432,#433,#434,#435,#436,#437,#438,#439,
#440));
#74=EDGE_LOOP('',(#441,#442,#443,#444));
#75=EDGE_LOOP('',(#445,#446,#447,#448));
#76=EDGE_LOOP('',(#449,#450,#451,#452));
#77=EDGE_LOOP('',(#453,#454,#455,#456));
#78=EDGE_LOOP('',(#457,#458,#459,#460));
#79=EDGE_LOOP('',(#461,#462,#463,#464));
#80=EDGE_LOOP('',(#465,#466,#467,#468,#469,#470,#471,#472));
#81=LINE('',#707,#145);
#82=LINE('',#709,#146);
#83=LINE('',#711,#147);
#84=LINE('',#712,#148);
#85=LINE('',#716,#149);
#86=LINE('',#718,#150);
#87=LINE('',#720,#151);
#88=LINE('',#721,#152);
#89=LINE('',#724,#153);
#90=LINE('',#726,#154);
#91=LINE('',#727,#155);
#92=LINE('',#730,#156);
#93=LINE('',#732,#157);
#94=LINE('',#733,#158);
#95=LINE('',#736,#159);
#96=LINE('',#738,#160);
#97=LINE('',#739,#161);
#98=LINE('',#742,#162);
#99=LINE('',#744,#163);
#100=LINE('',#745,#164);
#101=LINE('',#747,#165);
#102=LINE('',#748,#166);
#103=LINE('',#750,#167);
#104=LINE('',#753,#168);
#105=LINE('',#757,#169);
#106=LINE('',#761,#170);
#107=LINE('',#763,#171);
#108=LINE('',#765,#172);
#109=LINE('',#767,#173);
#110=LINE('',#769,#174);
#111=LINE('',#773,#175);
#112=LINE('',#776,#176);
#113=LINE('',#779,#177);
#114=LINE('',#781,#178);
#115=LINE('',#782,#179);
#116=LINE('',#785,#180);
#117=LINE('',#787,#181);
#118=LINE('',#788,#182);
#119=LINE('',#791,#183);
#120=LINE('',#793,#184);
#121=LINE('',#794,#185);
#122=LINE('',#797,#186);
#123=LINE('',#799,#187);
#124=LINE('',#800,#188);
#125=LINE('',#803,#189);
#126=LINE('',#805,#190);
#127=LINE('',#806,#191);
#128=LINE('',#809,#192);
#129=LINE('',#811,#193);
#130=LINE('',#812,#194);
#131=LINE('',#815,#195);
#132=LINE('',#817,#196);
#133=LINE('',#818,#197);
#134=LINE('',#820,#198);
#135=LINE('',#821,#199);
#136=LINE('',#825,#200);
#137=LINE('',#827,#201);
#138=LINE('',#828,#202);
#139=LINE('',#832,#203);
#140=LINE('',#836,#204);
#141=LINE('',#840,#205);
#142=LINE('',#844,#206);
#143=LINE('',#846,#207);
#144=LINE('',#848,#208);
#145=VECTOR('',#573,10.);
#146=VECTOR('',#574,10.);
#147=VECTOR('',#575,10.);
#148=VECTOR('',#576,10.);
#149=VECTOR('',#579,10.);
#150=VECTOR('',#580,10.);
#151=VECTOR('',#581,10.);
#152=VECTOR('',#582,10.);
#153=VECTOR('',#585,10.);
#154=VECTOR('',#586,10.);
#155=VECTOR('',#587,10.);
#156=VECTOR('',#590,10.);
#157=VECTOR('',#591,10.);
#158=VECTOR('',#592,10.);
#159=VECTOR('',#595,10.);
#160=VECTOR('',#596,10.);
#161=VECTOR('',#597,10.);
#162=VECTOR('',#600,10.);
#163=VECTOR('',#601,10.);
#164=VECTOR('',#602,10.);
#165=VECTOR('',#605,10.);
#166=VECTOR('',#606,10.);
#167=VECTOR('',#609,10.);
#168=VECTOR('',#612,10.);
#169=VECTOR('',#615,10.);
#170=VECTOR('',#618,10.);
#171=VECTOR('',#619,10.);
#172=VECTOR('',#620,10.);
#173=VECTOR('',#621,10.);
#174=VECTOR('',#622,10.);
#175=VECTOR('',#625,10.);
#176=VECTOR('',#628,10.);
#177=VECTOR('',#631,10.);
#178=VECTOR('',#632,10.);
#179=VECTOR('',#633,10.);
#180=VECTOR('',#636,10.);
#181=VECTOR('',#637,10.);
#182=VECTOR('',#638,10.);
#183=VECTOR('',#641,10.);
#184=VECTOR('',#642,10.);
#185=VECTOR('',#643,10.);
#186=VECTOR('',#646,10.);
#187=VECTOR('',#647,10.);
#188=VECTOR('',#648,10.);
#189=VECTOR('',#651,10.);
#190=VECTOR('',#652,10.);
#191=VECTOR('',#653,10.);
#192=VECTOR('',#656,10.);
#193=VECTOR('',#657,10.);
#194=VECTOR('',#658,10.);
#195=VECTOR('',#661,10.);
#196=VECTOR('',#662,10.);
#197=VECTOR('',#663,10.);
#198=VECTOR('',#666,10.);
#199=VECTOR('',#667,10.);
#200=VECTOR('',#672,10.);
#201=VECTOR('',#673,10.);
#202=VECTOR('',#674,10.);
#203=VECTOR('',#679,10.);
#204=VECTOR('',#684,10.);
#205=VECTOR('',#689,10.);
#206=VECTOR('',#694,10.);
#207=VECTOR('',#697,10.);
#208=VECTOR('',#700,10.);
#209=VERTEX_POINT('',#705);
#210=VERTEX_POINT('',#706);
#211=VERTEX_POINT('',#708);
#212=VERTEX_POINT('',#710);
#213=VERTEX_POINT('',#714);
#214=VERTEX_POINT('',#715);
#215=VERTEX_POINT('',#717);
#216=VERTEX_POINT('',#719);
#217=VERTEX_POINT('',#723);
#218=VERTEX_POINT('',#725);
#219=VERTEX_POINT('',#729);
#220=VERTEX_POINT('',#731);
#221=VERTEX_POINT('',#735);
#222=VERTEX_POINT('',#737);
#223=VERTEX_POINT('',#741);
#224=VERTEX_POINT('',#743);
#225=VERTEX_POINT('',#752);
#226=VERTEX_POINT('',#754);
#227=VERTEX_POINT('',#756);
#228=VERTEX_POINT('',#758);
#229=VERTEX_POINT('',#760);
#230=VERTEX_POINT('',#762);
#231=VERTEX_POINT('',#764);
#232=VERTEX_POINT('',#766);
#233=VERTEX_POINT('',#768);
#234=VERTEX_POINT('',#770);
#235=VERTEX_POINT('',#772);
#236=VERTEX_POINT('',#774);
#237=VERTEX_POINT('',#778);
#238=VERTEX_POINT('',#780);
#239=VERTEX_POINT('',#784);
#240=VERTEX_POINT('',#786);
#241=VERTEX_POINT('',#790);
#242=VERTEX_POINT('',#792);
#243=VERTEX_POINT('',#796);
#244=VERTEX_POINT('',#798);
#245=VERTEX_POINT('',#802);
#246=VERTEX_POINT('',#804);
#247=VERTEX_POINT('',#808);
#248=VERTEX_POINT('',#810);
#249=VERTEX_POINT('',#814);
#250=VERTEX_POINT('',#816);
#251=VERTEX_POINT('',#824);
#252=VERTEX_POINT('',#826);
#253=VERTEX_POINT('',#830);
#254=VERTEX_POINT('',#834);
#255=VERTEX_POINT('',#838);
#256=VERTEX_POINT('',#842);
#257=EDGE_CURVE('',#209,#210,#81,.T.);
#258=EDGE_CURVE('',#209,#211,#82,.T.);
#259=EDGE_CURVE('',#211,#212,#83,.T.);
#260=EDGE_CURVE('',#210,#212,#84,.T.);
#261=EDGE_CURVE('',#213,#214,#85,.T.);
#262=EDGE_CURVE('',#213,#215,#86,.T.);
#263=EDGE_CURVE('',#215,#216,#87,.T.);
#264=EDGE_CURVE('',#214,#216,#88,.T.);
#265=EDGE_CURVE('',#217,#213,#89,.T.);
#266=EDGE_CURVE('',#217,#218,#90,.T.);
#267=EDGE_CURVE('',#218,#215,#91,.T.);
#268=EDGE_CURVE('',#219,#217,#92,.T.);
#269=EDGE_CURVE('',#219,#220,#93,.T.);
#270=EDGE_CURVE('',#220,#218,#94,.T.);
#271=EDGE_CURVE('',#221,#219,#95,.T.);
#272=EDGE_CURVE('',#221,#222,#96,.T.);
#273=EDGE_CURVE('',#222,#220,#97,.T.);
#274=EDGE_CURVE('',#223,#221,#98,.T.);
#275=EDGE_CURVE('',#223,#224,#99,.T.);
#276=EDGE_CURVE('',#224,#222,#100,.T.);
#277=EDGE_CURVE('',#210,#223,#101,.T.);
#278=EDGE_CURVE('',#212,#224,#102,.T.);
#279=EDGE_CURVE('',#216,#211,#103,.T.);
#280=EDGE_CURVE('',#209,#225,#104,.T.);
#281=EDGE_CURVE('',#226,#225,#18,.T.);
#282=EDGE_CURVE('',#226,#227,#105,.T.);
#283=EDGE_CURVE('',#228,#227,#19,.T.);
#284=EDGE_CURVE('',#228,#229,#106,.T.);
#285=EDGE_CURVE('',#229,#230,#107,.T.);
#286=EDGE_CURVE('',#231,#230,#108,.T.);
#287=EDGE_CURVE('',#232,#231,#109,.T.);
#288=EDGE_CURVE('',#232,#233,#110,.T.);
#289=EDGE_CURVE('',#234,#233,#20,.T.);
#290=EDGE_CURVE('',#234,#235,#111,.T.);
#291=EDGE_CURVE('',#236,#235,#21,.T.);
#292=EDGE_CURVE('',#236,#214,#112,.T.);
#293=EDGE_CURVE('',#237,#236,#113,.T.);
#294=EDGE_CURVE('',#238,#237,#114,.T.);
#295=EDGE_CURVE('',#225,#238,#115,.T.);
#296=EDGE_CURVE('',#239,#229,#116,.T.);
#297=EDGE_CURVE('',#239,#240,#117,.T.);
#298=EDGE_CURVE('',#230,#240,#118,.T.);
#299=EDGE_CURVE('',#232,#241,#119,.T.);
#300=EDGE_CURVE('',#242,#231,#120,.T.);
#301=EDGE_CURVE('',#241,#242,#121,.T.);
#302=EDGE_CURVE('',#241,#243,#122,.T.);
#303=EDGE_CURVE('',#244,#242,#123,.T.);
#304=EDGE_CURVE('',#243,#244,#124,.T.);
#305=EDGE_CURVE('',#243,#245,#125,.T.);
#306=EDGE_CURVE('',#246,#244,#126,.T.);
#307=EDGE_CURVE('',#245,#246,#127,.T.);
#308=EDGE_CURVE('',#245,#247,#128,.T.);
#309=EDGE_CURVE('',#248,#246,#129,.T.);
#310=EDGE_CURVE('',#247,#248,#130,.T.);
#311=EDGE_CURVE('',#247,#249,#131,.T.);
#312=EDGE_CURVE('',#250,#248,#132,.T.);
#313=EDGE_CURVE('',#249,#250,#133,.T.);
#314=EDGE_CURVE('',#249,#239,#134,.T.);
#315=EDGE_CURVE('',#240,#250,#135,.T.);
#316=EDGE_CURVE('',#251,#228,#136,.T.);
#317=EDGE_CURVE('',#252,#251,#137,.T.);
#318=EDGE_CURVE('',#233,#252,#138,.T.);
#319=EDGE_CURVE('',#253,#251,#22,.T.);
#320=EDGE_CURVE('',#227,#253,#139,.T.);
#321=EDGE_CURVE('',#252,#254,#23,.T.);
#322=EDGE_CURVE('',#254,#234,#140,.T.);
#323=EDGE_CURVE('',#238,#255,#24,.T.);
#324=EDGE_CURVE('',#255,#226,#141,.T.);
#325=EDGE_CURVE('',#256,#237,#25,.T.);
#326=EDGE_CURVE('',#235,#256,#142,.T.);
#327=EDGE_CURVE('',#256,#254,#143,.T.);
#328=EDGE_CURVE('',#253,#255,#144,.T.);
#329=ORIENTED_EDGE('',*,*,#257,.F.);
#330=ORIENTED_EDGE('',*,*,#258,.T.);
#331=ORIENTED_EDGE('',*,*,#259,.T.);
#332=ORIENTED_EDGE('',*,*,#260,.F.);
#333=ORIENTED_EDGE('',*,*,#261,.F.);
#334=ORIENTED_EDGE('',*,*,#262,.T.);
#335=ORIENTED_EDGE('',*,*,#263,.T.);
#336=ORIENTED_EDGE('',*,*,#264,.F.);
#337=ORIENTED_EDGE('',*,*,#265,.F.);
#338=ORIENTED_EDGE('',*,*,#266,.T.);
#339=ORIENTED_EDGE('',*,*,#267,.T.);
#340=ORIENTED_EDGE('',*,*,#262,.F.);
#341=ORIENTED_EDGE('',*,*,#268,.F.);
#342=ORIENTED_EDGE('',*,*,#269,.T.);
#343=ORIENTED_EDGE('',*,*,#270,.T.);
#344=ORIENTED_EDGE('',*,*,#266,.F.);
#345=ORIENTED_EDGE('',*,*,#271,.F.);
#346=ORIENTED_EDGE('',*,*,#272,.T.);
#347=ORIENTED_EDGE('',*,*,#273,.T.);
#348=ORIENTED_EDGE('',*,*,#269,.F.);
#349=ORIENTED_EDGE('',*,*,#274,.F.);
#350=ORIENTED_EDGE('',*,*,#275,.T.);
#351=ORIENTED_EDGE('',*,*,#276,.T.);
#352=ORIENTED_EDGE('',*,*,#272,.F.);
#353=ORIENTED_EDGE('',*,*,#277,.F.);
#354=ORIENTED_EDGE('',*,*,#260,.T.);
#355=ORIENTED_EDGE('',*,*,#278,.T.);
#356=ORIENTED_EDGE('',*,*,#275,.F.);
#357=ORIENTED_EDGE('',*,*,#278,.F.);
#358=ORIENTED_EDGE('',*,*,#259,.F.);
#359=ORIENTED_EDGE('',*,*,#279,.F.);
#360=ORIENTED_EDGE('',*,*,#263,.F.);
#361=ORIENTED_EDGE('',*,*,#267,.F.);
#362=ORIENTED_EDGE('',*,*,#270,.F.);
#363=ORIENTED_EDGE('',*,*,#273,.F.);
#364=ORIENTED_EDGE('',*,*,#276,.F.);
#365=ORIENTED_EDGE('',*,*,#264,.T.);
#366=ORIENTED_EDGE('',*,*,#279,.T.);
#367=ORIENTED_EDGE('',*,*,#258,.F.);
#368=ORIENTED_EDGE('',*,*,#280,.T.);
#369=ORIENTED_EDGE('',*,*,#281,.F.);
#370=ORIENTED_EDGE('',*,*,#282,.T.);
#371=ORIENTED_EDGE('',*,*,#283,.F.);
#372=ORIENTED_EDGE('',*,*,#284,.T.);
#373=ORIENTED_EDGE('',*,*,#285,.T.);
#374=ORIENTED_EDGE('',*,*,#286,.F.);
#375=ORIENTED_EDGE('',*,*,#287,.F.);
#376=ORIENTED_EDGE('',*,*,#288,.T.);
#377=ORIENTED_EDGE('',*,*,#289,.F.);
#378=ORIENTED_EDGE('',*,*,#290,.T.);
#379=ORIENTED_EDGE('',*,*,#291,.F.);
#380=ORIENTED_EDGE('',*,*,#292,.T.);
#381=ORIENTED_EDGE('',*,*,#257,.T.);
#382=ORIENTED_EDGE('',*,*,#277,.T.);
#383=ORIENTED_EDGE('',*,*,#274,.T.);
#384=ORIENTED_EDGE('',*,*,#271,.T.);
#385=ORIENTED_EDGE('',*,*,#268,.T.);
#386=ORIENTED_EDGE('',*,*,#265,.T.);
#387=ORIENTED_EDGE('',*,*,#261,.T.);
#388=ORIENTED_EDGE('',*,*,#292,.F.);
#389=ORIENTED_EDGE('',*,*,#293,.F.);
#390=ORIENTED_EDGE('',*,*,#294,.F.);
#391=ORIENTED_EDGE('',*,*,#295,.F.);
#392=ORIENTED_EDGE('',*,*,#280,.F.);
#393=ORIENTED_EDGE('',*,*,#296,.F.);
#394=ORIENTED_EDGE('',*,*,#297,.T.);
#395=ORIENTED_EDGE('',*,*,#298,.F.);
#396=ORIENTED_EDGE('',*,*,#285,.F.);
#397=ORIENTED_EDGE('',*,*,#299,.F.);
#398=ORIENTED_EDGE('',*,*,#287,.T.);
#399=ORIENTED_EDGE('',*,*,#300,.F.);
#400=ORIENTED_EDGE('',*,*,#301,.F.);
#401=ORIENTED_EDGE('',*,*,#302,.F.);
#402=ORIENTED_EDGE('',*,*,#301,.T.);
#403=ORIENTED_EDGE('',*,*,#303,.F.);
#404=ORIENTED_EDGE('',*,*,#304,.F.);
#405=ORIENTED_EDGE('',*,*,#305,.F.);
#406=ORIENTED_EDGE('',*,*,#304,.T.);
#407=ORIENTED_EDGE('',*,*,#306,.F.);
#408=ORIENTED_EDGE('',*,*,#307,.F.);
#409=ORIENTED_EDGE('',*,*,#308,.F.);
#410=ORIENTED_EDGE('',*,*,#307,.T.);
#411=ORIENTED_EDGE('',*,*,#309,.F.);
#412=ORIENTED_EDGE('',*,*,#310,.F.);
#413=ORIENTED_EDGE('',*,*,#311,.F.);
#414=ORIENTED_EDGE('',*,*,#310,.T.);
#415=ORIENTED_EDGE('',*,*,#312,.F.);
#416=ORIENTED_EDGE('',*,*,#313,.F.);
#417=ORIENTED_EDGE('',*,*,#314,.F.);
#418=ORIENTED_EDGE('',*,*,#313,.T.);
#419=ORIENTED_EDGE('',*,*,#315,.F.);
#420=ORIENTED_EDGE('',*,*,#297,.F.);
#421=ORIENTED_EDGE('',*,*,#315,.T.);
#422=ORIENTED_EDGE('',*,*,#312,.T.);
#423=ORIENTED_EDGE('',*,*,#309,.T.);
#424=ORIENTED_EDGE('',*,*,#306,.T.);
#425=ORIENTED_EDGE('',*,*,#303,.T.);
#426=ORIENTED_EDGE('',*,*,#300,.T.);
#427=ORIENTED_EDGE('',*,*,#286,.T.);
#428=ORIENTED_EDGE('',*,*,#298,.T.);
#429=ORIENTED_EDGE('',*,*,#299,.T.);
#430=ORIENTED_EDGE('',*,*,#302,.T.);
#431=ORIENTED_EDGE('',*,*,#305,.T.);
#432=ORIENTED_EDGE('',*,*,#308,.T.);
#433=ORIENTED_EDGE('',*,*,#311,.T.);
#434=ORIENTED_EDGE('',*,*,#314,.T.);
#435=ORIENTED_EDGE('',*,*,#296,.T.);
#436=ORIENTED_EDGE('',*,*,#284,.F.);
#437=ORIENTED_EDGE('',*,*,#316,.F.);
#438=ORIENTED_EDGE('',*,*,#317,.F.);
#439=ORIENTED_EDGE('',*,*,#318,.F.);
#440=ORIENTED_EDGE('',*,*,#288,.F.);
#441=ORIENTED_EDGE('',*,*,#319,.T.);
#442=ORIENTED_EDGE('',*,*,#316,.T.);
#443=ORIENTED_EDGE('',*,*,#283,.T.);
#444=ORIENTED_EDGE('',*,*,#320,.T.);
#445=ORIENTED_EDGE('',*,*,#321,.T.);
#446=ORIENTED_EDGE('',*,*,#322,.T.);
#447=ORIENTED_EDGE('',*,*,#289,.T.);
#448=ORIENTED_EDGE('',*,*,#318,.T.);
#449=ORIENTED_EDGE('',*,*,#323,.T.);
#450=ORIENTED_EDGE('',*,*,#324,.T.);
#451=ORIENTED_EDGE('',*,*,#281,.T.);
#452=ORIENTED_EDGE('',*,*,#295,.T.);
#453=ORIENTED_EDGE('',*,*,#325,.T.);
#454=ORIENTED_EDGE('',*,*,#293,.T.);
#455=ORIENTED_EDGE('',*,*,#291,.T.);
#456=ORIENTED_EDGE('',*,*,#326,.T.);
#457=ORIENTED_EDGE('',*,*,#322,.F.);
#458=ORIENTED_EDGE('',*,*,#327,.F.);
#459=ORIENTED_EDGE('',*,*,#326,.F.);
#460=ORIENTED_EDGE('',*,*,#290,.F.);
#461=ORIENTED_EDGE('',*,*,#320,.F.);
#462=ORIENTED_EDGE('',*,*,#282,.F.);
#463=ORIENTED_EDGE('',*,*,#324,.F.);
#464=ORIENTED_EDGE('',*,*,#328,.F.);
#465=ORIENTED_EDGE('',*,*,#319,.F.);
#466=ORIENTED_EDGE('',*,*,#328,.T.);
#467=ORIENTED_EDGE('',*,*,#323,.F.);
#468=ORIENTED_EDGE('',*,*,#294,.T.);
#469=ORIENTED_EDGE('',*,*,#325,.F.);
#470=ORIENTED_EDGE('',*,*,#327,.T.);
#471=ORIENTED_EDGE('',*,*,#321,.F.);
#472=ORIENTED_EDGE('',*,*,#317,.T.);
#473=PLANE('',#535);
#474=PLANE('',#536);
#475=PLANE('',#537);
#476=PLANE('',#538);
#477=PLANE('',#539);
#478=PLANE('',#540);
#479=PLANE('',#541);
#480=PLANE('',#542);
#481=PLANE('',#543);
#482=PLANE('',#548);
#483=PLANE('',#549);
#484=PLANE('',#550);
#485=PLANE('',#551);
#486=PLANE('',#552);
#487=PLANE('',#553);
#488=PLANE('',#554);
#489=PLANE('',#555);
#490=PLANE('',#556);
#491=PLANE('',#557);
#492=PLANE('',#566);
#493=PLANE('',#567);
#494=PLANE('',#568);
#495=ADVANCED_FACE('',(#29),#473,.F.);
#496=ADVANCED_FACE('',(#30),#474,.F.);
#497=ADVANCED_FACE('',(#31),#475,.F.);
#498=ADVANCED_FACE('',(#32),#476,.F.);
#499=ADVANCED_FACE('',(#33),#477,.F.);
#500=ADVANCED_FACE('',(#34),#478,.F.);
#501=ADVANCED_FACE('',(#35),#479,.F.);
#502=ADVANCED_FACE('',(#36),#480,.F.);
#503=ADVANCED_FACE('',(#37),#481,.T.);
#504=ADVANCED_FACE('',(#38),#482,.T.);
#505=ADVANCED_FACE('',(#39),#483,.T.);
#506=ADVANCED_FACE('',(#40),#484,.T.);
#507=ADVANCED_FACE('',(#41),#485,.T.);
#508=ADVANCED_FACE('',(#42),#486,.T.);
#509=ADVANCED_FACE('',(#43),#487,.T.);
#510=ADVANCED_FACE('',(#44),#488,.T.);
#511=ADVANCED_FACE('',(#45),#489,.T.);
#512=ADVANCED_FACE('',(#46),#490,.T.);
#513=ADVANCED_FACE('',(#47),#491,.T.);
#514=ADVANCED_FACE('',(#48),#14,.T.);
#515=ADVANCED_FACE('',(#49),#15,.T.);
#516=ADVANCED_FACE('',(#50),#16,.T.);
#517=ADVANCED_FACE('',(#51),#17,.T.);
#518=ADVANCED_FACE('',(#52),#492,.T.);
#519=ADVANCED_FACE('',(#53),#493,.T.);
#520=ADVANCED_FACE('',(#54),#494,.T.);
#521=CLOSED_SHELL('',(#495,#496,#497,#498,#499,#500,#501,#502,#503,#504,
#505,#506,#507,#508,#509,#510,#511,#512,#513,#514,#515,#516,#517,#518,#519,
#520));
#522=DERIVED_UNIT_ELEMENT(#524,1.);
#523=DERIVED_UNIT_ELEMENT(#855,-3.);
#524=(
MASS_UNIT()
NAMED_UNIT(*)
SI_UNIT(.KILO.,.GRAM.)
);
#525=DERIVED_UNIT((#522,#523));
#526=MEASURE_REPRESENTATION_ITEM('density measure',
POSITIVE_RATIO_MEASURE(7850.),#525);
#527=PROPERTY_DEFINITION_REPRESENTATION(#532,#529);
#528=PROPERTY_DEFINITION_REPRESENTATION(#533,#530);
#529=REPRESENTATION('material name',(#531),#852);
#530=REPRESENTATION('density',(#526),#852);
#531=DESCRIPTIVE_REPRESENTATION_ITEM('Steel','Steel');
#532=PROPERTY_DEFINITION('material property','material name',#862);
#533=PROPERTY_DEFINITION('material property','density of part',#862);
#534=AXIS2_PLACEMENT_3D('',#703,#569,#570);
#535=AXIS2_PLACEMENT_3D('',#704,#571,#572);
#536=AXIS2_PLACEMENT_3D('',#713,#577,#578);
#537=AXIS2_PLACEMENT_3D('',#722,#583,#584);
#538=AXIS2_PLACEMENT_3D('',#728,#588,#589);
#539=AXIS2_PLACEMENT_3D('',#734,#593,#594);
#540=AXIS2_PLACEMENT_3D('',#740,#598,#599);
#541=AXIS2_PLACEMENT_3D('',#746,#603,#604);
#542=AXIS2_PLACEMENT_3D('',#749,#607,#608);
#543=AXIS2_PLACEMENT_3D('',#751,#610,#611);
#544=AXIS2_PLACEMENT_3D('',#755,#613,#614);
#545=AXIS2_PLACEMENT_3D('',#759,#616,#617);
#546=AXIS2_PLACEMENT_3D('',#771,#623,#624);
#547=AXIS2_PLACEMENT_3D('',#775,#626,#627);
#548=AXIS2_PLACEMENT_3D('',#777,#629,#630);
#549=AXIS2_PLACEMENT_3D('',#783,#634,#635);
#550=AXIS2_PLACEMENT_3D('',#789,#639,#640);
#551=AXIS2_PLACEMENT_3D('',#795,#644,#645);
#552=AXIS2_PLACEMENT_3D('',#801,#649,#650);
#553=AXIS2_PLACEMENT_3D('',#807,#654,#655);
#554=AXIS2_PLACEMENT_3D('',#813,#659,#660);
#555=AXIS2_PLACEMENT_3D('',#819,#664,#665);
#556=AXIS2_PLACEMENT_3D('',#822,#668,#669);
#557=AXIS2_PLACEMENT_3D('',#823,#670,#671);
#558=AXIS2_PLACEMENT_3D('',#829,#675,#676);
#559=AXIS2_PLACEMENT_3D('',#831,#677,#678);
#560=AXIS2_PLACEMENT_3D('',#833,#680,#681);
#561=AXIS2_PLACEMENT_3D('',#835,#682,#683);
#562=AXIS2_PLACEMENT_3D('',#837,#685,#686);
#563=AXIS2_PLACEMENT_3D('',#839,#687,#688);
#564=AXIS2_PLACEMENT_3D('',#841,#690,#691);
#565=AXIS2_PLACEMENT_3D('',#843,#692,#693);
#566=AXIS2_PLACEMENT_3D('',#845,#695,#696);
#567=AXIS2_PLACEMENT_3D('',#847,#698,#699);
#568=AXIS2_PLACEMENT_3D('',#849,#701,#702);
#569=DIRECTION('axis',(0.,0.,1.));
#570=DIRECTION('refdir',(1.,0.,0.));
#571=DIRECTION('center_axis',(1.,0.,0.));
#572=DIRECTION('ref_axis',(0.,0.,1.));
#573=DIRECTION('',(0.,0.,1.));
#574=DIRECTION('',(0.,-1.,0.));
#575=DIRECTION('',(0.,0.,1.));
#576=DIRECTION('',(0.,-1.,0.));
#577=DIRECTION('center_axis',(-1.,0.,0.));
#578=DIRECTION('ref_axis',(0.,0.,-1.));
#579=DIRECTION('',(0.,0.,-1.));
#580=DIRECTION('',(0.,-1.,0.));
#581=DIRECTION('',(0.,0.,-1.));
#582=DIRECTION('',(0.,-1.,0.));
#583=DIRECTION('center_axis',(0.,0.,-1.));
#584=DIRECTION('ref_axis',(1.,0.,0.));
#585=DIRECTION('',(1.,0.,0.));
#586=DIRECTION('',(0.,-1.,0.));
#587=DIRECTION('',(1.,0.,0.));
#588=DIRECTION('center_axis',(1.,0.,0.));
#589=DIRECTION('ref_axis',(0.,0.,1.));
#590=DIRECTION('',(0.,0.,1.));
#591=DIRECTION('',(0.,-1.,0.));
#592=DIRECTION('',(0.,0.,1.));
#593=DIRECTION('center_axis',(0.,0.,-1.));
#594=DIRECTION('ref_axis',(1.,0.,0.));
#595=DIRECTION('',(1.,0.,0.));
#596=DIRECTION('',(0.,-1.,0.));
#597=DIRECTION('',(1.,0.,0.));
#598=DIRECTION('center_axis',(-1.,0.,0.));
#599=DIRECTION('ref_axis',(0.,0.,-1.));
#600=DIRECTION('',(0.,0.,-1.));
#601=DIRECTION('',(0.,-1.,0.));
#602=DIRECTION('',(0.,0.,-1.));
#603=DIRECTION('center_axis',(0.,0.,-1.));
#604=DIRECTION('ref_axis',(1.,0.,0.));
#605=DIRECTION('',(1.,0.,0.));
#606=DIRECTION('',(1.,0.,0.));
#607=DIRECTION('center_axis',(0.,1.,0.));
#608=DIRECTION('ref_axis',(0.,0.,1.));
#609=DIRECTION('',(-1.,0.,0.));
#610=DIRECTION('center_axis',(0.,0.,-1.));
#611=DIRECTION('ref_axis',(1.,0.,0.));
#612=DIRECTION('',(-1.,0.,0.));
#613=DIRECTION('center_axis',(0.,0.,1.));
#614=DIRECTION('ref_axis',(-0.707106781186548,-0.707106781186548,0.));
#615=DIRECTION('',(0.,1.,0.));
#616=DIRECTION('center_axis',(0.,0.,1.));
#617=DIRECTION('ref_axis',(-0.707106781186548,0.707106781186548,0.));
#618=DIRECTION('',(1.,0.,0.));
#619=DIRECTION('',(0.,1.,0.));
#620=DIRECTION('',(-1.,0.,0.));
#621=DIRECTION('',(0.,1.,0.));
#622=DIRECTION('',(1.,0.,0.));
#623=DIRECTION('center_axis',(0.,0.,1.));
#624=DIRECTION('ref_axis',(0.707106781186548,0.707106781186548,0.));
#625=DIRECTION('',(0.,-1.,0.));
#626=DIRECTION('center_axis',(0.,0.,1.));
#627=DIRECTION('ref_axis',(0.707106781186548,-0.707106781186548,0.));
#628=DIRECTION('',(-1.,0.,0.));
#629=DIRECTION('center_axis',(0.,-1.,0.));
#630=DIRECTION('ref_axis',(1.,0.,0.));
#631=DIRECTION('',(0.,0.,-1.));
#632=DIRECTION('',(1.,0.,0.));
#633=DIRECTION('',(0.,0.,1.));
#634=DIRECTION('center_axis',(-1.,0.,0.));
#635=DIRECTION('ref_axis',(0.,0.,1.));
#636=DIRECTION('',(0.,0.,-1.));
#637=DIRECTION('',(0.,1.,0.));
#638=DIRECTION('',(0.,0.,1.));
#639=DIRECTION('center_axis',(1.,0.,0.));
#640=DIRECTION('ref_axis',(0.,0.,-1.));
#641=DIRECTION('',(0.,0.,1.));
#642=DIRECTION('',(0.,0.,-1.));
#643=DIRECTION('',(0.,1.,0.));
#644=DIRECTION('center_axis',(0.,0.,1.));
#645=DIRECTION('ref_axis',(1.,0.,0.));
#646=DIRECTION('',(-1.,0.,0.));
#647=DIRECTION('',(1.,0.,0.));
#648=DIRECTION('',(0.,1.,0.));
#649=DIRECTION('center_axis',(-1.,0.,0.));
#650=DIRECTION('ref_axis',(0.,0.,1.));
#651=DIRECTION('',(0.,0.,-1.));
#652=DIRECTION('',(0.,0.,1.));
#653=DIRECTION('',(0.,1.,0.));
#654=DIRECTION('center_axis',(0.,0.,1.));
#655=DIRECTION('ref_axis',(1.,0.,0.));
#656=DIRECTION('',(-1.,0.,0.));
#657=DIRECTION('',(1.,0.,0.));
#658=DIRECTION('',(0.,1.,0.));
#659=DIRECTION('center_axis',(1.,0.,0.));
#660=DIRECTION('ref_axis',(0.,0.,-1.));
#661=DIRECTION('',(0.,0.,1.));
#662=DIRECTION('',(0.,0.,-1.));
#663=DIRECTION('',(0.,1.,0.));
#664=DIRECTION('center_axis',(0.,0.,1.));
#665=DIRECTION('ref_axis',(1.,0.,0.));
#666=DIRECTION('',(-1.,0.,0.));
#667=DIRECTION('',(1.,0.,0.));
#668=DIRECTION('center_axis',(0.,1.,0.));
#669=DIRECTION('ref_axis',(0.,0.,1.));
#670=DIRECTION('center_axis',(0.,1.,0.));
#671=DIRECTION('ref_axis',(-1.,0.,0.));
#672=DIRECTION('',(0.,0.,-1.));
#673=DIRECTION('',(-1.,0.,0.));
#674=DIRECTION('',(0.,0.,1.));
#675=DIRECTION('center_axis',(0.,0.,1.));
#676=DIRECTION('ref_axis',(-0.707106781186548,0.707106781186548,0.));
#677=DIRECTION('center_axis',(0.,0.,-1.));
#678=DIRECTION('ref_axis',(-0.707106781186548,0.707106781186548,0.));
#679=DIRECTION('',(0.,0.,1.));
#680=DIRECTION('center_axis',(0.,0.,1.));
#681=DIRECTION('ref_axis',(0.707106781186548,0.707106781186548,0.));
#682=DIRECTION('center_axis',(0.,0.,-1.));
#683=DIRECTION('ref_axis',(0.707106781186548,0.707106781186548,0.));
#684=DIRECTION('',(0.,0.,-1.));
#685=DIRECTION('center_axis',(0.,0.,1.));
#686=DIRECTION('ref_axis',(-0.707106781186548,-0.707106781186548,0.));
#687=DIRECTION('center_axis',(0.,0.,-1.));
#688=DIRECTION('ref_axis',(-0.707106781186548,-0.707106781186548,0.));
#689=DIRECTION('',(0.,0.,-1.));
#690=DIRECTION('center_axis',(0.,0.,1.));
#691=DIRECTION('ref_axis',(0.707106781186548,-0.707106781186548,0.));
#692=DIRECTION('center_axis',(0.,0.,-1.));
#693=DIRECTION('ref_axis',(0.707106781186548,-0.707106781186548,0.));
#694=DIRECTION('',(0.,0.,1.));
#695=DIRECTION('center_axis',(1.,0.,0.));
#696=DIRECTION('ref_axis',(0.,1.,0.));
#697=DIRECTION('',(0.,1.,0.));
#698=DIRECTION('center_axis',(-1.,0.,0.));
#699=DIRECTION('ref_axis',(0.,-1.,0.));
#700=DIRECTION('',(0.,-1.,0.));
#701=DIRECTION('center_axis',(0.,0.,1.));
#702=DIRECTION('ref_axis',(1.,0.,0.));
#703=CARTESIAN_POINT('',(0.,0.,0.));
#704=CARTESIAN_POINT('Origin',(-2.5,-6.35,0.));
#705=CARTESIAN_POINT('',(-2.5,-6.35,0.));
#706=CARTESIAN_POINT('',(-2.5,-6.35,2.5));
#707=CARTESIAN_POINT('',(-2.5,-6.35,0.));
#708=CARTESIAN_POINT('',(-2.5,-6.6,0.));
#709=CARTESIAN_POINT('',(-2.5,-6.35,0.));
#710=CARTESIAN_POINT('',(-2.5,-6.6,2.5));
#711=CARTESIAN_POINT('',(-2.5,-6.6,-2.5));
#712=CARTESIAN_POINT('',(-2.5,-6.35,2.5));
#713=CARTESIAN_POINT('Origin',(2.5,-6.35,2.5));
#714=CARTESIAN_POINT('',(2.5,-6.35,2.5));
#715=CARTESIAN_POINT('',(2.5,-6.35,0.));
#716=CARTESIAN_POINT('',(2.5,-6.35,1.25));
#717=CARTESIAN_POINT('',(2.5,-6.6,2.5));
#718=CARTESIAN_POINT('',(2.5,-6.35,2.5));
#719=CARTESIAN_POINT('',(2.5,-6.6,0.));
#720=CARTESIAN_POINT('',(2.5,-6.6,2.5));
#721=CARTESIAN_POINT('',(2.5,-6.35,0.));
#722=CARTESIAN_POINT('Origin',(1.,-6.35,2.5));
#723=CARTESIAN_POINT('',(1.,-6.35,2.5));
#724=CARTESIAN_POINT('',(-2.675,-6.35,2.5));
#725=CARTESIAN_POINT('',(1.,-6.6,2.5));
#726=CARTESIAN_POINT('',(1.,-6.35,2.5));
#727=CARTESIAN_POINT('',(-2.5,-6.6,2.5));
#728=CARTESIAN_POINT('Origin',(1.,-6.35,2.));
#729=CARTESIAN_POINT('',(1.,-6.35,2.));
#730=CARTESIAN_POINT('',(1.,-6.35,1.));
#731=CARTESIAN_POINT('',(1.,-6.6,2.));
#732=CARTESIAN_POINT('',(1.,-6.35,2.));
#733=CARTESIAN_POINT('',(1.,-6.6,2.));
#734=CARTESIAN_POINT('Origin',(-1.,-6.35,2.));
#735=CARTESIAN_POINT('',(-1.,-6.35,2.));
#736=CARTESIAN_POINT('',(-3.675,-6.35,2.));
#737=CARTESIAN_POINT('',(-1.,-6.6,2.));
#738=CARTESIAN_POINT('',(-1.,-6.35,2.));
#739=CARTESIAN_POINT('',(-1.,-6.6,2.));
#740=CARTESIAN_POINT('Origin',(-1.,-6.35,2.5));
#741=CARTESIAN_POINT('',(-1.,-6.35,2.5));
#742=CARTESIAN_POINT('',(-1.,-6.35,1.25));
#743=CARTESIAN_POINT('',(-1.,-6.6,2.5));
#744=CARTESIAN_POINT('',(-1.,-6.35,2.5));
#745=CARTESIAN_POINT('',(-1.,-6.6,3.));
#746=CARTESIAN_POINT('Origin',(-2.5,-6.35,2.5));
#747=CARTESIAN_POINT('',(-4.425,-6.35,2.5));
#748=CARTESIAN_POINT('',(-2.5,-6.6,2.5));
#749=CARTESIAN_POINT('Origin',(0.,-6.6,1.25));
#750=CARTESIAN_POINT('',(5.55,-6.6,0.));
#751=CARTESIAN_POINT('Origin',(0.,0.,0.));
#752=CARTESIAN_POINT('',(-5.55,-6.35,0.));
#753=CARTESIAN_POINT('',(6.35,-6.35,0.));
#754=CARTESIAN_POINT('',(-6.35,-5.55,0.));
#755=CARTESIAN_POINT('Origin',(-5.55,-5.55,0.));
#756=CARTESIAN_POINT('',(-6.35,5.55,0.));
#757=CARTESIAN_POINT('',(-6.35,-6.35,0.));
#758=CARTESIAN_POINT('',(-5.55,6.35,0.));
#759=CARTESIAN_POINT('Origin',(-5.55,5.55,0.));
#760=CARTESIAN_POINT('',(-2.5,6.35,0.));
#761=CARTESIAN_POINT('',(-6.35,6.35,0.));
#762=CARTESIAN_POINT('',(-2.5,6.6,0.));
#763=CARTESIAN_POINT('',(-2.5,6.35,0.));
#764=CARTESIAN_POINT('',(2.5,6.6,0.));
#765=CARTESIAN_POINT('',(5.55,6.6,0.));
#766=CARTESIAN_POINT('',(2.5,6.35,0.));
#767=CARTESIAN_POINT('',(2.5,6.35,0.));
#768=CARTESIAN_POINT('',(5.55,6.35,0.));
#769=CARTESIAN_POINT('',(-6.35,6.35,0.));
#770=CARTESIAN_POINT('',(6.35,5.55,0.));
#771=CARTESIAN_POINT('Origin',(5.55,5.55,0.));
#772=CARTESIAN_POINT('',(6.35,-5.55,0.));
#773=CARTESIAN_POINT('',(6.35,6.35,0.));
#774=CARTESIAN_POINT('',(5.55,-6.35,0.));
#775=CARTESIAN_POINT('Origin',(5.55,-5.55,0.));
#776=CARTESIAN_POINT('',(6.35,-6.35,0.));
#777=CARTESIAN_POINT('Origin',(-6.35,-6.35,0.));
#778=CARTESIAN_POINT('',(5.55,-6.35,6.));
#779=CARTESIAN_POINT('',(5.55,-6.35,0.));
#780=CARTESIAN_POINT('',(-5.55,-6.35,6.));
#781=CARTESIAN_POINT('',(6.35,-6.35,6.));
#782=CARTESIAN_POINT('',(-5.55,-6.35,0.));
#783=CARTESIAN_POINT('Origin',(-2.5,6.35,0.));
#784=CARTESIAN_POINT('',(-2.5,6.35,2.5));
#785=CARTESIAN_POINT('',(-2.5,6.35,0.));
#786=CARTESIAN_POINT('',(-2.5,6.6,2.5));
#787=CARTESIAN_POINT('',(-2.5,6.35,2.5));
#788=CARTESIAN_POINT('',(-2.5,6.6,-2.5));
#789=CARTESIAN_POINT('Origin',(2.5,6.35,2.5));
#790=CARTESIAN_POINT('',(2.5,6.35,2.5));
#791=CARTESIAN_POINT('',(2.5,6.35,1.25));
#792=CARTESIAN_POINT('',(2.5,6.6,2.5));
#793=CARTESIAN_POINT('',(2.5,6.6,2.5));
#794=CARTESIAN_POINT('',(2.5,6.35,2.5));
#795=CARTESIAN_POINT('Origin',(1.,6.35,2.5));
#796=CARTESIAN_POINT('',(1.,6.35,2.5));
#797=CARTESIAN_POINT('',(3.675,6.35,2.5));
#798=CARTESIAN_POINT('',(1.,6.6,2.5));
#799=CARTESIAN_POINT('',(-2.5,6.6,2.5));
#800=CARTESIAN_POINT('',(1.,6.35,2.5));
#801=CARTESIAN_POINT('Origin',(1.,6.35,2.));
#802=CARTESIAN_POINT('',(1.,6.35,2.));
#803=CARTESIAN_POINT('',(1.,6.35,1.));
#804=CARTESIAN_POINT('',(1.,6.6,2.));
#805=CARTESIAN_POINT('',(1.,6.6,2.));
#806=CARTESIAN_POINT('',(1.,6.35,2.));
#807=CARTESIAN_POINT('Origin',(-1.,6.35,2.));
#808=CARTESIAN_POINT('',(-1.,6.35,2.));
#809=CARTESIAN_POINT('',(2.675,6.35,2.));
#810=CARTESIAN_POINT('',(-1.,6.6,2.));
#811=CARTESIAN_POINT('',(-1.,6.6,2.));
#812=CARTESIAN_POINT('',(-1.,6.35,2.));
#813=CARTESIAN_POINT('Origin',(-1.,6.35,2.5));
#814=CARTESIAN_POINT('',(-1.,6.35,2.5));
#815=CARTESIAN_POINT('',(-1.,6.35,1.25));
#816=CARTESIAN_POINT('',(-1.,6.6,2.5));
#817=CARTESIAN_POINT('',(-1.,6.6,3.));
#818=CARTESIAN_POINT('',(-1.,6.35,2.5));
#819=CARTESIAN_POINT('Origin',(-2.5,6.35,2.5));
#820=CARTESIAN_POINT('',(1.925,6.35,2.5));
#821=CARTESIAN_POINT('',(-2.5,6.6,2.5));
#822=CARTESIAN_POINT('Origin',(0.,6.6,1.25));
#823=CARTESIAN_POINT('Origin',(6.35,6.35,0.));
#824=CARTESIAN_POINT('',(-5.55,6.35,6.));
#825=CARTESIAN_POINT('',(-5.55,6.35,0.));
#826=CARTESIAN_POINT('',(5.55,6.35,6.));
#827=CARTESIAN_POINT('',(-6.35,6.35,6.));
#828=CARTESIAN_POINT('',(5.55,6.35,0.));
#829=CARTESIAN_POINT('Origin',(-5.55,5.55,0.));
#830=CARTESIAN_POINT('',(-6.35,5.55,6.));
#831=CARTESIAN_POINT('Origin',(-5.55,5.55,6.));
#832=CARTESIAN_POINT('',(-6.35,5.55,0.));
#833=CARTESIAN_POINT('Origin',(5.55,5.55,0.));
#834=CARTESIAN_POINT('',(6.35,5.55,6.));
#835=CARTESIAN_POINT('Origin',(5.55,5.55,6.));
#836=CARTESIAN_POINT('',(6.35,5.55,0.));
#837=CARTESIAN_POINT('Origin',(-5.55,-5.55,0.));
#838=CARTESIAN_POINT('',(-6.35,-5.55,6.));
#839=CARTESIAN_POINT('Origin',(-5.55,-5.55,6.));
#840=CARTESIAN_POINT('',(-6.35,-5.55,0.));
#841=CARTESIAN_POINT('Origin',(5.55,-5.55,0.));
#842=CARTESIAN_POINT('',(6.35,-5.55,6.));
#843=CARTESIAN_POINT('Origin',(5.55,-5.55,6.));
#844=CARTESIAN_POINT('',(6.35,-5.55,0.));
#845=CARTESIAN_POINT('Origin',(6.35,-6.35,0.));
#846=CARTESIAN_POINT('',(6.35,6.35,6.));
#847=CARTESIAN_POINT('Origin',(-6.35,6.35,0.));
#848=CARTESIAN_POINT('',(-6.35,-6.35,6.));
#849=CARTESIAN_POINT('Origin',(0.,0.,6.));
#850=UNCERTAINTY_MEASURE_WITH_UNIT(LENGTH_MEASURE(0.01),#854,
'DISTANCE_ACCURACY_VALUE',
'Maximum model space distance between geometric entities at asserted c
onnectivities');
#851=UNCERTAINTY_MEASURE_WITH_UNIT(LENGTH_MEASURE(0.01),#854,
'DISTANCE_ACCURACY_VALUE',
'Maximum model space distance between geometric entities at asserted c
onnectivities');
#852=(
GEOMETRIC_REPRESENTATION_CONTEXT(3)
GLOBAL_UNCERTAINTY_ASSIGNED_CONTEXT((#850))
GLOBAL_UNIT_ASSIGNED_CONTEXT((#854,#856,#857))
REPRESENTATION_CONTEXT('','3D')
);
#853=(
GEOMETRIC_REPRESENTATION_CONTEXT(3)
GLOBAL_UNCERTAINTY_ASSIGNED_CONTEXT((#851))
GLOBAL_UNIT_ASSIGNED_CONTEXT((#854,#856,#857))
REPRESENTATION_CONTEXT('','3D')
);
#854=(
LENGTH_UNIT()
NAMED_UNIT(*)
SI_UNIT(.MILLI.,.METRE.)
);
#855=(
LENGTH_UNIT()
NAMED_UNIT(*)
SI_UNIT($,.METRE.)
);
#856=(
NAMED_UNIT(*)
PLANE_ANGLE_UNIT()
SI_UNIT($,.RADIAN.)
);
#857=(
NAMED_UNIT(*)
SI_UNIT($,.STERADIAN.)
SOLID_ANGLE_UNIT()
);
#858=SHAPE_DEFINITION_REPRESENTATION(#859,#860);
#859=PRODUCT_DEFINITION_SHAPE('',$,#862);
#860=SHAPE_REPRESENTATION('',(#534),#852);
#861=PRODUCT_DEFINITION_CONTEXT('part definition',#866,'design');
#862=PRODUCT_DEFINITION('33uh inductor','33uh inductor v0',#863,#861);
#863=PRODUCT_DEFINITION_FORMATION('',$,#868);
#864=PRODUCT_RELATED_PRODUCT_CATEGORY('33uh inductor v0',
'33uh inductor v0',(#868));
#865=APPLICATION_PROTOCOL_DEFINITION('international standard',
'automotive_design',2009,#866);
#866=APPLICATION_CONTEXT(
'Core Data for Automotive Mechanical Design Process');
#867=PRODUCT_CONTEXT('part definition',#866,'mechanical');
#868=PRODUCT('33uh inductor','33uh inductor v0',$,(#867));
#869=PRESENTATION_STYLE_ASSIGNMENT((#872));
#870=PRESENTATION_STYLE_ASSIGNMENT((#873));
#871=PRESENTATION_STYLE_ASSIGNMENT((#874));
#872=SURFACE_STYLE_USAGE(.BOTH.,#875);
#873=SURFACE_STYLE_USAGE(.BOTH.,#876);
#874=SURFACE_STYLE_USAGE(.BOTH.,#877);
#875=SURFACE_SIDE_STYLE('',(#878));
#876=SURFACE_SIDE_STYLE('',(#879));
#877=SURFACE_SIDE_STYLE('',(#880));
#878=SURFACE_STYLE_FILL_AREA(#881);
#879=SURFACE_STYLE_FILL_AREA(#882);
#880=SURFACE_STYLE_FILL_AREA(#883);
#881=FILL_AREA_STYLE('Steel - Satin',(#884));
#882=FILL_AREA_STYLE('Powder Coat (Dark Grey)',(#885));
#883=FILL_AREA_STYLE('Nickel - Satin',(#886));
#884=FILL_AREA_STYLE_COLOUR('Steel - Satin',#887);
#885=FILL_AREA_STYLE_COLOUR('Powder Coat (Dark Grey)',#888);
#886=FILL_AREA_STYLE_COLOUR('Nickel - Satin',#889);
#887=COLOUR_RGB('Steel - Satin',0.627450980392157,0.627450980392157,0.627450980392157);
#888=COLOUR_RGB('Powder Coat (Dark Grey)',0.349019607843137,0.349019607843137,
0.349019607843137);
#889=COLOUR_RGB('Nickel - Satin',0.819607843137255,0.8,0.752941176470588);
ENDSEC;
END-ISO-10303-21;
