<?xml version="1.0" encoding="UTF-8" standalone="no"?>
<svg
   xmlns:dc="http://purl.org/dc/elements/1.1/"
   xmlns:cc="http://creativecommons.org/ns#"
   xmlns:rdf="http://www.w3.org/1999/02/22-rdf-syntax-ns#"
   xmlns:svg="http://www.w3.org/2000/svg"
   xmlns="http://www.w3.org/2000/svg"
   xmlns:sodipodi="http://sodipodi.sourceforge.net/DTD/sodipodi-0.dtd"
   xmlns:inkscape="http://www.inkscape.org/namespaces/inkscape"
   width="297mm"
   height="209mm"
   viewBox="0 0 297 209"
   version="1.1"
   id="svg8"
   inkscape:version="1.0.2 (e86c870879, 2021-01-15, custom)"
   sodipodi:docname="annotated_din8_pinout.svg">
  <defs
     id="defs2" />
  <sodipodi:namedview
     id="base"
     pagecolor="#ffffff"
     bordercolor="#666666"
     borderopacity="1.0"
     inkscape:pageopacity="0.0"
     inkscape:pageshadow="2"
     inkscape:zoom="1.75"
     inkscape:cx="400"
     inkscape:cy="400"
     inkscape:document-units="mm"
     inkscape:current-layer="g909"
     inkscape:document-rotation="0"
     showgrid="false"
     inkscape:window-width="3840"
     inkscape:window-height="2054"
     inkscape:window-x="-11"
     inkscape:window-y="-11"
     inkscape:window-maximized="1" />
  <metadata
     id="metadata5">
    <rdf:RDF>
      <cc:Work
         rdf:about="">
        <dc:format>image/svg+xml</dc:format>
        <dc:type
           rdf:resource="http://purl.org/dc/dcmitype/StillImage" />
        <dc:title></dc:title>
      </cc:Work>
    </rdf:RDF>
  </metadata>
  <g
     inkscape:groupmode="layer"
     id="layer2"
     inkscape:label="Layer 2">
    <g
       id="g909"
       transform="matrix(0.26458333,0,0,0.26458333,20.264228,40.801549)">
      <path
         d="m 683.17014,240.75006 c 0,-109.631 -88.876,-198.503 -198.499,-198.503 -109.627,0 -198.5,88.872 -198.5,198.503 0,109.624 88.872,198.503 198.5,198.503 109.623,0 198.499,-88.879 198.499,-198.503 z"
         style="fill:#ffffff;stroke:#000000;stroke-width:5"
         id="path4784" />
      <path
         d="m 403.38814,240.75306 c 0,-13.893 -11.262,-25.149 -25.15,-25.149 -13.895,0 -25.15,11.258 -25.15,25.149 0,13.883 11.257,25.146 25.15,25.146 13.889,-0.001 25.15,-11.263 25.15,-25.146 z"
         style="fill:#d60000;stroke:#000000;stroke-width:5;fill-opacity:1"
         id="path4786" />
      <path
         d="m 616.25514,240.75306 c 0,-13.893 -11.262,-25.149 -25.151,-25.149 -13.894,0 -25.151,11.258 -25.151,25.149 0,13.883 11.257,25.146 25.151,25.146 13.889,-0.001 25.151,-11.263 25.151,-25.146 z"
         style="fill:#ffa01c;stroke:#000000;stroke-width:5;fill-opacity:1"
         id="path4788" />
      <path
         d="m 427.19114,183.27006 c 9.82,-9.82 9.815,-25.745 -0.005,-35.566 -9.82,-9.824 -25.74,-9.824 -35.564,0 -9.816,9.815 -9.821,25.741 0.005,35.562 9.819,9.817 25.746,9.823 35.564,0.004 z"
         style="fill:#d60000;stroke:#000000;stroke-width:5;fill-opacity:1"
         id="path4790" />
      <path
         d="m 577.71014,333.78306 c 9.82,-9.82 9.82,-25.746 -0.005,-35.566 -9.821,-9.826 -25.74,-9.826 -35.566,0 -9.814,9.815 -9.82,25.741 0.005,35.561 9.821,9.825 25.746,9.825 35.566,0.005 z"
         style="fill:#ffa01c;stroke:#000000;stroke-width:5;fill-opacity:1"
         id="path4792" />
      <path
         d="m 484.67114,372.31106 c 13.888,0 25.15,-11.262 25.145,-25.15 0.005,-13.894 -11.251,-25.151 -25.148,-25.151 -13.878,0 -25.143,11.257 -25.143,25.151 0,13.888 11.257,25.15 25.146,25.15 z"
         style="fill:#ffa01c;stroke:#000000;stroke-width:5;fill-opacity:1"
         id="path4794" />
      <path
         d="m 542.15614,183.25206 c 9.814,9.826 25.74,9.821 35.56,0 9.826,-9.826 9.826,-25.744 0.005,-35.564 -9.81,-9.82 -25.74,-9.82 -35.561,0 -9.82,9.82 -9.825,25.75 -0.004,35.564 z"
         style="fill:#c8c8c8;stroke:#000000;stroke-width:5;fill-opacity:1"
         id="path4796" />
      <path
         d="m 391.64114,333.76606 c 9.814,9.821 25.745,9.821 35.562,-0.005 9.831,-9.82 9.831,-25.739 0.005,-35.565 -9.815,-9.815 -25.74,-9.821 -35.561,0.005 -9.826,9.821 -9.826,25.746 -0.006,35.565 z"
         style="fill:#3742ff;stroke:#000000;stroke-width:5;fill-opacity:1"
         id="path4798" />
      <path
         d="m 484.67114,233.15906 c 13.888,0 25.145,-11.263 25.145,-25.15 0,-13.895 -11.257,-25.15 -25.145,-25.15 -13.889,0.005 -25.146,11.257 -25.146,25.15 0,13.887 11.257,25.15 25.146,25.15 z"
         style="fill:#ffa01c;fill-opacity:1;stroke:#000000;stroke-width:5.00032;stroke-miterlimit:4;stroke-dasharray:none"
         id="path4800" />
      <path
         d="m 484.66814,422.62906 c 100.448,0 181.883,-81.436 181.883,-181.879 0,-87.806 -62.234,-161.079 -144.996,-178.125 -2.492,18.166 -18.038,32.176 -36.89,32.176 -18.839,0 -34.386,-14.015 -36.875,-32.182 -82.764,17.052 -144.999,90.325 -144.999,178.131 0.001,100.443 81.43,181.879 181.877,181.879 z"
         style="fill:none;stroke:#000000;stroke-width:5"
         id="path4802" />
      <text
         xml:space="preserve"
         style="font-weight:bold;font-size:40px;line-height:1.25;font-family:Calibri;-inkscape-font-specification:'Calibri Bold'"
         x="106.26794"
         y="156.07513"
         id="text942"><tspan
           sodipodi:role="line"
           id="tspan940"
           x="106.26794"
           y="156.07513">RF OUT</tspan></text>
      <text
         xml:space="preserve"
         style="font-weight:bold;font-size:40px;line-height:1.25;font-family:Calibri;-inkscape-font-specification:'Calibri Bold'"
         x="90.839363"
         y="392.07513"
         id="text946"><tspan
           sodipodi:role="line"
           id="tspan944"
           x="90.839363"
           y="392.07513">RF RETURN</tspan></text>
      <text
         xml:space="preserve"
         style="font-weight:bold;font-size:40px;line-height:1.25;font-family:Calibri;-inkscape-font-specification:'Calibri Bold'"
         x="690.83936"
         y="388.64658"
         id="text950"><tspan
           sodipodi:role="line"
           id="tspan948"
           x="690.83936"
           y="388.64658">CONFIG PINS</tspan></text>
      <path
         style="fill:none;stroke:#6d6d6d;stroke-width:3.77953;stroke-linecap:round;stroke-linejoin:miter;stroke-miterlimit:4;stroke-dasharray:none;stroke-opacity:1"
         d="m 242.26793,146.36085 172,19.42857 v 0"
         id="path956"
         sodipodi:nodetypes="ccc" />
      <path
         style="fill:none;stroke:#6d6d6d;stroke-width:3.77952761;stroke-linecap:round;stroke-linejoin:miter;stroke-opacity:1;stroke-miterlimit:4;stroke-dasharray:none"
         d="M 375.98222,241.78942 242.26793,146.36085"
         id="path958" />
      <path
         style="fill:none;stroke:#6d6d6d;stroke-width:3.77952761;stroke-linecap:round;stroke-linejoin:miter;stroke-opacity:1;stroke-miterlimit:4;stroke-dasharray:none"
         d="M 408.55365,316.64656 289.12508,379.50371"
         id="path960" />
      <path
         style="fill:none;stroke:#6d6d6d;stroke-width:3.77952761;stroke-linecap:round;stroke-linejoin:miter;stroke-opacity:1;stroke-miterlimit:4;stroke-dasharray:none"
         d="m 485.6965,348.07513 194.85715,29.14286"
         id="path962" />
      <path
         style="fill:none;stroke:#6d6d6d;stroke-width:3.77952761;stroke-linecap:round;stroke-linejoin:miter;stroke-opacity:1;stroke-miterlimit:4;stroke-dasharray:none"
         d="m 561.12508,314.93228 119.42856,62.2857"
         id="path964" />
      <path
         style="fill:none;stroke:#6d6d6d;stroke-width:3.77952761;stroke-linecap:round;stroke-linejoin:miter;stroke-opacity:1;stroke-miterlimit:4;stroke-dasharray:none"
         d="m 588.55365,239.50371 91.99999,137.71427"
         id="path966" />
      <path
         style="fill:none;stroke:#6d6d6d;stroke-width:3.77952761;stroke-linecap:round;stroke-linejoin:miter;stroke-opacity:1;stroke-miterlimit:4;stroke-dasharray:none"
         d="M 482.83936,206.93228 680.55363,377.21797"
         id="path968" />
      <text
         xml:space="preserve"
         style="font-weight:bold;font-size:45.3543px;line-height:1.25;font-family:Calibri;-inkscape-font-specification:'Calibri Bold'"
         x="158.06651"
         y="-39.353443"
         id="text972"><tspan
           sodipodi:role="line"
           id="tspan970"
           x="158.06651"
           y="-39.353443"
           style="font-size:45.3543px">Rear View of DIN 45326 Connector</tspan></text>
      <text
         xml:space="preserve"
         style="font-weight:bold;font-size:40px;line-height:1.25;font-family:Calibri;-inkscape-font-specification:'Calibri Bold'"
         x="693.67224"
         y="162.42615"
         id="text950-8"><tspan
           sodipodi:role="line"
           id="tspan948-4"
           x="693.67224"
           y="162.42615">NO CONNECTION</tspan></text>
      <path
         style="fill:none;stroke:#6d6d6d;stroke-width:3.77952761;stroke-linecap:round;stroke-linejoin:miter;stroke-opacity:1;stroke-miterlimit:4;stroke-dasharray:none"
         d="M 560.55365,166.36085 685.12508,151.50371"
         id="path998" />
      <text
         xml:space="preserve"
         style="font-weight:bold;font-size:26.4567px;line-height:1.25;font-family:Calibri;-inkscape-font-specification:'Calibri Bold'"
         x="676.53748"
         y="416.07513"
         id="text1002"><tspan
           sodipodi:role="line"
           id="tspan1000"
           x="676.53748"
           y="416.07513">Short all pins together</tspan></text>
      <text
         xml:space="preserve"
         style="font-weight:bold;font-size:26.4567px;line-height:1.25;font-family:Calibri;-inkscape-font-specification:'Calibri Bold';text-align:center;text-anchor:middle"
         x="168.34648"
         y="186.13727"
         id="text1002-8"><tspan
           sodipodi:role="line"
           x="168.34648"
           y="186.13727"
           id="tspan1028">Connect both pins</tspan><tspan
           sodipodi:role="line"
           x="168.34648"
           y="219.20815"
           id="tspan1056">to center of SMA</tspan></text>
      <text
         xml:space="preserve"
         style="font-weight:bold;font-size:56.6929px;line-height:1.25;font-family:Calibri;-inkscape-font-specification:'Calibri Bold'"
         x="60.415077"
         y="-88.294319"
         id="text972-8"><tspan
           sodipodi:role="line"
           id="tspan970-4"
           x="60.415077"
           y="-88.294319">MFR and TMT-2000 to SMA Adapter</tspan></text>
      <text
         xml:space="preserve"
         style="font-weight:bold;font-size:26.4567px;line-height:1.25;font-family:Calibri;-inkscape-font-specification:'Calibri Bold';text-align:center;text-anchor:middle"
         x="184.51854"
         y="423.81085"
         id="text1002-8-9"><tspan
           sodipodi:role="line"
           x="184.51854"
           y="423.81085"
           id="tspan1056-7">Connect to </tspan><tspan
           sodipodi:role="line"
           x="187.50912"
           y="456.88171"
           id="tspan1088">shield of SMA </tspan></text>
    </g>
  </g>
  <g
     inkscape:label="Layer 1"
     inkscape:groupmode="layer"
     id="layer1"
     style="display:inline" />
</svg>
