ISO-10303-21;
HEADER;
/* Generated by software containing ST-Developer
 * from STEP Tools, Inc. (www.steptools.com) 
 */

FILE_DESCRIPTION(
/* description */ (''),
/* implementation_level */ '2;1');

FILE_NAME(
/* name */ '470KHz_smooth_do_not_release.step',
/* time_stamp */ '2025-07-08T23:30:00-07:00',
/* author */ (''),
/* organization */ (''),
/* preprocessor_version */ 'ST-DEVELOPER v20.1',
/* originating_system */ 'Autodesk Translation Framework v14.10.0.0',
/* authorisation */ '');

FILE_SCHEMA (('AUTOMOTIVE_DESIGN { 1 0 10303 214 3 1 1 }'));
ENDSEC;

DATA;
#10=MECHANICAL_DESIGN_GEOMETRIC_PRESENTATION_REPRESENTATION('',(#13),#1683);
#11=SHAPE_REPRESENTATION_RELATIONSHIP('SRR','None',#1690,#12);
#12=ADVANCED_BREP_SHAPE_REPRESENTATION('',(#14),#1682);
#13=STYLED_ITEM('',(#1699),#14);
#14=MANIFOLD_SOLID_BREP('Smooth',#816);
#15=TOROIDAL_SURFACE('',#886,7.,1.);
#16=CONICAL_SURFACE('',#873,3.37499996088445,0.523598775598301);
#17=CONICAL_SURFACE('',#878,3.37499996088445,0.162111158173057);
#18=CONICAL_SURFACE('',#882,3.625,0.444546553856948);
#19=FACE_BOUND('',#113,.T.);
#20=FACE_BOUND('',#138,.T.);
#21=FACE_BOUND('',#142,.T.);
#22=(
BOUNDED_CURVE()
B_SPLINE_CURVE(5,(#1537,#1538,#1539,#1540,#1541,#1542,#1543,#1544,#1545,
#1546,#1547,#1548,#1549,#1550,#1551,#1552,#1553,#1554,#1555,#1556,#1557,
#1558,#1559),.UNSPECIFIED.,.F.,.F.)
B_SPLINE_CURVE_WITH_KNOTS((6,1,1,1,1,1,1,1,1,1,1,1,1,1,1,1,1,1,6),(0.146093323832928,
0.15,0.2,0.25,0.3,0.35,0.4,0.45,0.5,0.55,0.6,0.65,0.7,0.75,0.8,0.85,0.9,
0.95,1.),.UNSPECIFIED.)
CURVE()
GEOMETRIC_REPRESENTATION_ITEM()
RATIONAL_B_SPLINE_CURVE((1.,1.,1.,1.,1.,1.,1.,1.,1.,1.,1.,1.,1.,1.,1.,1.,
1.,1.,1.,1.,1.,1.,1.))
REPRESENTATION_ITEM('')
);
#23=(
BOUNDED_SURFACE()
B_SPLINE_SURFACE(5,2,((#1329,#1330,#1331,#1332,#1333,#1334,#1335,#1336,
#1337),(#1338,#1339,#1340,#1341,#1342,#1343,#1344,#1345,#1346),(#1347,#1348,
#1349,#1350,#1351,#1352,#1353,#1354,#1355),(#1356,#1357,#1358,#1359,#1360,
#1361,#1362,#1363,#1364),(#1365,#1366,#1367,#1368,#1369,#1370,#1371,#1372,
#1373),(#1374,#1375,#1376,#1377,#1378,#1379,#1380,#1381,#1382),(#1383,#1384,
#1385,#1386,#1387,#1388,#1389,#1390,#1391),(#1392,#1393,#1394,#1395,#1396,
#1397,#1398,#1399,#1400),(#1401,#1402,#1403,#1404,#1405,#1406,#1407,#1408,
#1409),(#1410,#1411,#1412,#1413,#1414,#1415,#1416,#1417,#1418),(#1419,#1420,
#1421,#1422,#1423,#1424,#1425,#1426,#1427),(#1428,#1429,#1430,#1431,#1432,
#1433,#1434,#1435,#1436),(#1437,#1438,#1439,#1440,#1441,#1442,#1443,#1444,
#1445),(#1446,#1447,#1448,#1449,#1450,#1451,#1452,#1453,#1454),(#1455,#1456,
#1457,#1458,#1459,#1460,#1461,#1462,#1463),(#1464,#1465,#1466,#1467,#1468,
#1469,#1470,#1471,#1472),(#1473,#1474,#1475,#1476,#1477,#1478,#1479,#1480,
#1481),(#1482,#1483,#1484,#1485,#1486,#1487,#1488,#1489,#1490),(#1491,#1492,
#1493,#1494,#1495,#1496,#1497,#1498,#1499),(#1500,#1501,#1502,#1503,#1504,
#1505,#1506,#1507,#1508),(#1509,#1510,#1511,#1512,#1513,#1514,#1515,#1516,
#1517),(#1518,#1519,#1520,#1521,#1522,#1523,#1524,#1525,#1526),(#1527,#1528,
#1529,#1530,#1531,#1532,#1533,#1534,#1535)),.UNSPECIFIED.,.F.,.T.,.F.)
B_SPLINE_SURFACE_WITH_KNOTS((6,1,1,1,1,1,1,1,1,1,1,1,1,1,1,1,1,1,6),(3,
2,2,2,3),(0.143499200368428,0.15,0.2,0.25,0.3,0.35,0.4,0.45,0.5,0.55,0.6,
0.65,0.7,0.75,0.8,0.85,0.9,0.95,1.),(0.,1.5707963267949,3.14159265358979,
4.71238898038469,6.28318530717959),.UNSPECIFIED.)
GEOMETRIC_REPRESENTATION_ITEM()
RATIONAL_B_SPLINE_SURFACE(((1.,0.707106781186548,1.,0.707106781186548,1.,
0.707106781186548,1.,0.707106781186548,1.),(1.,0.707106781186548,1.,0.707106781186548,
1.,0.707106781186548,1.,0.707106781186548,1.),(1.,0.707106781186548,1.,
0.707106781186548,1.,0.707106781186548,1.,0.707106781186548,1.),(1.,0.707106781186548,
1.,0.707106781186548,1.,0.707106781186548,1.,0.707106781186548,1.),(1.,
0.707106781186548,1.,0.707106781186548,1.,0.707106781186548,1.,0.707106781186548,
1.),(1.,0.707106781186548,1.,0.707106781186548,1.,0.707106781186548,1.,
0.707106781186548,1.),(1.,0.707106781186548,1.,0.707106781186548,1.,0.707106781186548,
1.,0.707106781186548,1.),(1.,0.707106781186548,1.,0.707106781186548,1.,
0.707106781186548,1.,0.707106781186548,1.),(1.,0.707106781186548,1.,0.707106781186548,
1.,0.707106781186548,1.,0.707106781186548,1.),(1.,0.707106781186548,1.,
0.707106781186548,1.,0.707106781186548,1.,0.707106781186548,1.),(1.,0.707106781186548,
1.,0.707106781186548,1.,0.707106781186548,1.,0.707106781186548,1.),(1.,
0.707106781186548,1.,0.707106781186548,1.,0.707106781186548,1.,0.707106781186548,
1.),(1.,0.707106781186548,1.,0.707106781186548,1.,0.707106781186548,1.,
0.707106781186548,1.),(1.,0.707106781186548,1.,0.707106781186548,1.,0.707106781186548,
1.,0.707106781186548,1.),(1.,0.707106781186548,1.,0.707106781186548,1.,
0.707106781186548,1.,0.707106781186548,1.),(1.,0.707106781186548,1.,0.707106781186548,
1.,0.707106781186548,1.,0.707106781186548,1.),(1.,0.707106781186548,1.,
0.707106781186548,1.,0.707106781186548,1.,0.707106781186548,1.),(1.,0.707106781186548,
1.,0.707106781186548,1.,0.707106781186548,1.,0.707106781186548,1.),(1.,
0.707106781186548,1.,0.707106781186548,1.,0.707106781186548,1.,0.707106781186548,
1.),(1.,0.707106781186548,1.,0.707106781186548,1.,0.707106781186548,1.,
0.707106781186548,1.),(1.,0.707106781186548,1.,0.707106781186548,1.,0.707106781186548,
1.,0.707106781186548,1.),(1.,0.707106781186548,1.,0.707106781186548,1.,
0.707106781186548,1.,0.707106781186548,1.),(1.,0.707106781186548,1.,0.707106781186548,
1.,0.707106781186548,1.,0.707106781186548,1.)))
REPRESENTATION_ITEM('')
SURFACE()
);
#24=B_SPLINE_CURVE_WITH_KNOTS('',3,(#1297,#1298,#1299,#1300,#1301,#1302,
#1303,#1304,#1305,#1306,#1307,#1308,#1309,#1310,#1311,#1312),
 .UNSPECIFIED.,.T.,.F.,(4,1,1,1,1,1,1,1,1,1,1,1,1,4),(0.,0.448798950512828,
0.897597901025655,1.34639685153848,1.79519580205131,2.39359440273508,2.69279370307697,
3.59039160410262,4.03919055461545,4.48798950512828,4.9367884556411,5.38558740615393,
5.83438635666676,6.28318530717959),.UNSPECIFIED.);
#25=B_SPLINE_CURVE_WITH_KNOTS('',3,(#1313,#1314,#1315,#1316,#1317,#1318,
#1319,#1320,#1321,#1322,#1323,#1324,#1325,#1326,#1327,#1328),
 .UNSPECIFIED.,.T.,.F.,(4,1,1,1,1,1,1,1,1,1,1,1,1,4),(-6.28318530717959,
-5.83438635666676,-5.38558740615393,-4.9367884556411,-4.48798950512828,
-4.03919055461545,-3.59039160410262,-2.69279370307697,-2.39359440273508,
-1.79519580205131,-1.34639685153848,-0.897597901025655,-0.448798950512828,
0.),.UNSPECIFIED.);
#26=B_SPLINE_SURFACE_WITH_KNOTS('',3,3,((#1214,#1215,#1216,#1217,#1218,
#1219,#1220,#1221,#1222,#1223,#1224,#1225,#1226,#1227,#1228,#1229),(#1230,
#1231,#1232,#1233,#1234,#1235,#1236,#1237,#1238,#1239,#1240,#1241,#1242,
#1243,#1244,#1245),(#1246,#1247,#1248,#1249,#1250,#1251,#1252,#1253,#1254,
#1255,#1256,#1257,#1258,#1259,#1260,#1261),(#1262,#1263,#1264,#1265,#1266,
#1267,#1268,#1269,#1270,#1271,#1272,#1273,#1274,#1275,#1276,#1277),(#1278,
#1279,#1280,#1281,#1282,#1283,#1284,#1285,#1286,#1287,#1288,#1289,#1290,
#1291,#1292,#1293)),.UNSPECIFIED.,.F.,.T.,.F.,(4,1,4),(4,1,1,1,1,1,1,1,
1,1,1,1,1,4),(0.,0.5,1.),(0.,0.448798950512828,0.897597901025655,1.34639685153848,
1.79519580205131,2.39359440273508,2.69279370307697,3.59039160410262,4.03919055461545,
4.48798950512828,4.9367884556411,5.38558740615393,5.83438635666676,6.28318530717959),
 .UNSPECIFIED.);
#27=CYLINDRICAL_SURFACE('',#845,3.4999999217689);
#28=CYLINDRICAL_SURFACE('',#876,3.4999999217689);
#29=CYLINDRICAL_SURFACE('',#880,3.25);
#30=CYLINDRICAL_SURFACE('',#889,8.);
#31=CYLINDRICAL_SURFACE('',#892,3.25);
#32=CIRCLE('',#832,3.4999999217689);
#33=CIRCLE('',#834,3.4999999217689);
#34=CIRCLE('',#836,3.4999999217689);
#35=CIRCLE('',#838,3.4999999217689);
#36=CIRCLE('',#846,3.4999999217689);
#37=CIRCLE('',#847,3.4999999217689);
#38=CIRCLE('',#848,3.4999999217689);
#39=CIRCLE('',#849,3.4999999217689);
#40=CIRCLE('',#851,0.500000000000007);
#41=CIRCLE('',#852,8.);
#42=CIRCLE('',#853,8.);
#43=CIRCLE('',#874,3.25);
#44=CIRCLE('',#875,3.4999999217689);
#45=CIRCLE('',#877,3.4999999217689);
#46=CIRCLE('',#879,3.25);
#47=CIRCLE('',#881,3.25);
#48=CIRCLE('',#883,4.);
#49=CIRCLE('',#885,7.);
#50=CIRCLE('',#887,8.);
#51=CIRCLE('',#888,1.);
#52=CIRCLE('',#891,3.25);
#53=FACE_OUTER_BOUND('',#97,.T.);
#54=FACE_OUTER_BOUND('',#98,.T.);
#55=FACE_OUTER_BOUND('',#99,.T.);
#56=FACE_OUTER_BOUND('',#100,.T.);
#57=FACE_OUTER_BOUND('',#101,.T.);
#58=FACE_OUTER_BOUND('',#102,.T.);
#59=FACE_OUTER_BOUND('',#103,.T.);
#60=FACE_OUTER_BOUND('',#104,.T.);
#61=FACE_OUTER_BOUND('',#105,.T.);
#62=FACE_OUTER_BOUND('',#106,.T.);
#63=FACE_OUTER_BOUND('',#107,.T.);
#64=FACE_OUTER_BOUND('',#108,.T.);
#65=FACE_OUTER_BOUND('',#109,.T.);
#66=FACE_OUTER_BOUND('',#110,.T.);
#67=FACE_OUTER_BOUND('',#111,.T.);
#68=FACE_OUTER_BOUND('',#112,.T.);
#69=FACE_OUTER_BOUND('',#114,.T.);
#70=FACE_OUTER_BOUND('',#115,.T.);
#71=FACE_OUTER_BOUND('',#116,.T.);
#72=FACE_OUTER_BOUND('',#117,.T.);
#73=FACE_OUTER_BOUND('',#118,.T.);
#74=FACE_OUTER_BOUND('',#119,.T.);
#75=FACE_OUTER_BOUND('',#120,.T.);
#76=FACE_OUTER_BOUND('',#121,.T.);
#77=FACE_OUTER_BOUND('',#122,.T.);
#78=FACE_OUTER_BOUND('',#123,.T.);
#79=FACE_OUTER_BOUND('',#124,.T.);
#80=FACE_OUTER_BOUND('',#125,.T.);
#81=FACE_OUTER_BOUND('',#126,.T.);
#82=FACE_OUTER_BOUND('',#127,.T.);
#83=FACE_OUTER_BOUND('',#128,.T.);
#84=FACE_OUTER_BOUND('',#129,.T.);
#85=FACE_OUTER_BOUND('',#130,.T.);
#86=FACE_OUTER_BOUND('',#131,.T.);
#87=FACE_OUTER_BOUND('',#132,.T.);
#88=FACE_OUTER_BOUND('',#133,.T.);
#89=FACE_OUTER_BOUND('',#134,.T.);
#90=FACE_OUTER_BOUND('',#135,.T.);
#91=FACE_OUTER_BOUND('',#136,.T.);
#92=FACE_OUTER_BOUND('',#137,.T.);
#93=FACE_OUTER_BOUND('',#139,.T.);
#94=FACE_OUTER_BOUND('',#140,.T.);
#95=FACE_OUTER_BOUND('',#141,.T.);
#96=FACE_OUTER_BOUND('',#143,.T.);
#97=EDGE_LOOP('',(#511,#512,#513,#514));
#98=EDGE_LOOP('',(#515,#516,#517,#518));
#99=EDGE_LOOP('',(#519,#520,#521,#522));
#100=EDGE_LOOP('',(#523,#524,#525,#526));
#101=EDGE_LOOP('',(#527,#528,#529,#530));
#102=EDGE_LOOP('',(#531,#532,#533,#534));
#103=EDGE_LOOP('',(#535,#536,#537,#538));
#104=EDGE_LOOP('',(#539,#540,#541,#542));
#105=EDGE_LOOP('',(#543,#544,#545,#546,#547));
#106=EDGE_LOOP('',(#548,#549,#550,#551,#552));
#107=EDGE_LOOP('',(#553,#554,#555,#556,#557,#558,#559,#560));
#108=EDGE_LOOP('',(#561,#562,#563,#564,#565,#566,#567,#568,#569,#570,#571,
#572,#573,#574));
#109=EDGE_LOOP('',(#575,#576,#577,#578,#579,#580,#581,#582,#583,#584));
#110=EDGE_LOOP('',(#585,#586,#587,#588));
#111=EDGE_LOOP('',(#589,#590,#591,#592,#593));
#112=EDGE_LOOP('',(#594));
#113=EDGE_LOOP('',(#595,#596,#597,#598,#599,#600,#601,#602,#603,#604,#605,
#606,#607,#608,#609,#610));
#114=EDGE_LOOP('',(#611,#612,#613,#614));
#115=EDGE_LOOP('',(#615,#616,#617,#618));
#116=EDGE_LOOP('',(#619,#620,#621,#622));
#117=EDGE_LOOP('',(#623,#624,#625,#626));
#118=EDGE_LOOP('',(#627,#628,#629,#630));
#119=EDGE_LOOP('',(#631,#632,#633,#634,#635,#636,#637,#638,#639,#640));
#120=EDGE_LOOP('',(#641,#642,#643,#644));
#121=EDGE_LOOP('',(#645,#646,#647,#648));
#122=EDGE_LOOP('',(#649,#650,#651,#652));
#123=EDGE_LOOP('',(#653,#654,#655,#656));
#124=EDGE_LOOP('',(#657,#658,#659,#660));
#125=EDGE_LOOP('',(#661,#662,#663,#664,#665,#666,#667,#668));
#126=EDGE_LOOP('',(#669,#670,#671,#672,#673,#674,#675,#676));
#127=EDGE_LOOP('',(#677,#678,#679,#680));
#128=EDGE_LOOP('',(#681,#682,#683,#684,#685,#686,#687,#688));
#129=EDGE_LOOP('',(#689,#690,#691,#692,#693));
#130=EDGE_LOOP('',(#694,#695,#696,#697));
#131=EDGE_LOOP('',(#698,#699,#700,#701));
#132=EDGE_LOOP('',(#702,#703,#704,#705));
#133=EDGE_LOOP('',(#706,#707,#708,#709));
#134=EDGE_LOOP('',(#710,#711,#712,#713));
#135=EDGE_LOOP('',(#714,#715,#716,#717));
#136=EDGE_LOOP('',(#718,#719,#720,#721));
#137=EDGE_LOOP('',(#722));
#138=EDGE_LOOP('',(#723));
#139=EDGE_LOOP('',(#724,#725,#726,#727));
#140=EDGE_LOOP('',(#728,#729,#730,#731,#732));
#141=EDGE_LOOP('',(#733));
#142=EDGE_LOOP('',(#734));
#143=EDGE_LOOP('',(#735,#736,#737,#738));
#144=LINE('',#1115,#234);
#145=LINE('',#1117,#235);
#146=LINE('',#1119,#236);
#147=LINE('',#1120,#237);
#148=LINE('',#1126,#238);
#149=LINE('',#1128,#239);
#150=LINE('',#1129,#240);
#151=LINE('',#1135,#241);
#152=LINE('',#1137,#242);
#153=LINE('',#1138,#243);
#154=LINE('',#1141,#244);
#155=LINE('',#1143,#245);
#156=LINE('',#1147,#246);
#157=LINE('',#1149,#247);
#158=LINE('',#1150,#248);
#159=LINE('',#1154,#249);
#160=LINE('',#1156,#250);
#161=LINE('',#1157,#251);
#162=LINE('',#1160,#252);
#163=LINE('',#1162,#253);
#164=LINE('',#1163,#254);
#165=LINE('',#1166,#255);
#166=LINE('',#1168,#256);
#167=LINE('',#1169,#257);
#168=LINE('',#1171,#258);
#169=LINE('',#1173,#259);
#170=LINE('',#1176,#260);
#171=LINE('',#1178,#261);
#172=LINE('',#1180,#262);
#173=LINE('',#1182,#263);
#174=LINE('',#1184,#264);
#175=LINE('',#1185,#265);
#176=LINE('',#1189,#266);
#177=LINE('',#1191,#267);
#178=LINE('',#1195,#268);
#179=LINE('',#1199,#269);
#180=LINE('',#1202,#270);
#181=LINE('',#1204,#271);
#182=LINE('',#1206,#272);
#183=LINE('',#1208,#273);
#184=LINE('',#1210,#274);
#185=LINE('',#1212,#275);
#186=LINE('',#1213,#276);
#187=LINE('',#1566,#277);
#188=LINE('',#1568,#278);
#189=LINE('',#1569,#279);
#190=LINE('',#1571,#280);
#191=LINE('',#1573,#281);
#192=LINE('',#1575,#282);
#193=LINE('',#1577,#283);
#194=LINE('',#1579,#284);
#195=LINE('',#1581,#285);
#196=LINE('',#1583,#286);
#197=LINE('',#1585,#287);
#198=LINE('',#1587,#288);
#199=LINE('',#1589,#289);
#200=LINE('',#1591,#290);
#201=LINE('',#1592,#291);
#202=LINE('',#1594,#292);
#203=LINE('',#1595,#293);
#204=LINE('',#1597,#294);
#205=LINE('',#1601,#295);
#206=LINE('',#1602,#296);
#207=LINE('',#1603,#297);
#208=LINE('',#1606,#298);
#209=LINE('',#1607,#299);
#210=LINE('',#1611,#300);
#211=LINE('',#1612,#301);
#212=LINE('',#1613,#302);
#213=LINE('',#1615,#303);
#214=LINE('',#1616,#304);
#215=LINE('',#1617,#305);
#216=LINE('',#1620,#306);
#217=LINE('',#1622,#307);
#218=LINE('',#1624,#308);
#219=LINE('',#1628,#309);
#220=LINE('',#1629,#310);
#221=LINE('',#1632,#311);
#222=LINE('',#1633,#312);
#223=LINE('',#1636,#313);
#224=LINE('',#1637,#314);
#225=LINE('',#1639,#315);
#226=LINE('',#1642,#316);
#227=LINE('',#1648,#317);
#228=LINE('',#1652,#318);
#229=LINE('',#1656,#319);
#230=LINE('',#1660,#320);
#231=LINE('',#1664,#321);
#232=LINE('',#1674,#322);
#233=LINE('',#1679,#323);
#234=VECTOR('',#897,10.);
#235=VECTOR('',#898,10.);
#236=VECTOR('',#899,10.);
#237=VECTOR('',#900,10.);
#238=VECTOR('',#905,10.);
#239=VECTOR('',#906,10.);
#240=VECTOR('',#907,10.);
#241=VECTOR('',#912,10.);
#242=VECTOR('',#913,10.);
#243=VECTOR('',#914,10.);
#244=VECTOR('',#917,10.);
#245=VECTOR('',#920,10.);
#246=VECTOR('',#923,10.);
#247=VECTOR('',#924,10.);
#248=VECTOR('',#925,10.);
#249=VECTOR('',#930,10.);
#250=VECTOR('',#931,10.);
#251=VECTOR('',#932,10.);
#252=VECTOR('',#935,10.);
#253=VECTOR('',#936,10.);
#254=VECTOR('',#937,10.);
#255=VECTOR('',#940,10.);
#256=VECTOR('',#941,10.);
#257=VECTOR('',#942,10.);
#258=VECTOR('',#945,10.);
#259=VECTOR('',#948,10.);
#260=VECTOR('',#951,10.);
#261=VECTOR('',#952,10.);
#262=VECTOR('',#953,10.);
#263=VECTOR('',#954,10.);
#264=VECTOR('',#955,10.);
#265=VECTOR('',#956,10.);
#266=VECTOR('',#961,10.);
#267=VECTOR('',#962,10.);
#268=VECTOR('',#965,3.4999999217689);
#269=VECTOR('',#970,10.);
#270=VECTOR('',#973,10.);
#271=VECTOR('',#974,10.);
#272=VECTOR('',#975,10.);
#273=VECTOR('',#976,10.);
#274=VECTOR('',#977,10.);
#275=VECTOR('',#978,10.);
#276=VECTOR('',#979,10.);
#277=VECTOR('',#988,10.);
#278=VECTOR('',#989,10.);
#279=VECTOR('',#990,10.);
#280=VECTOR('',#991,10.);
#281=VECTOR('',#992,10.);
#282=VECTOR('',#993,10.);
#283=VECTOR('',#994,10.);
#284=VECTOR('',#995,10.);
#285=VECTOR('',#996,10.);
#286=VECTOR('',#997,10.);
#287=VECTOR('',#998,10.);
#288=VECTOR('',#999,10.);
#289=VECTOR('',#1000,10.);
#290=VECTOR('',#1001,10.);
#291=VECTOR('',#1002,10.);
#292=VECTOR('',#1005,10.);
#293=VECTOR('',#1006,10.);
#294=VECTOR('',#1009,10.);
#295=VECTOR('',#1012,10.);
#296=VECTOR('',#1013,10.);
#297=VECTOR('',#1014,10.);
#298=VECTOR('',#1017,10.);
#299=VECTOR('',#1018,10.);
#300=VECTOR('',#1021,10.);
#301=VECTOR('',#1022,10.);
#302=VECTOR('',#1023,10.);
#303=VECTOR('',#1026,10.);
#304=VECTOR('',#1027,10.);
#305=VECTOR('',#1028,10.);
#306=VECTOR('',#1033,10.);
#307=VECTOR('',#1036,10.);
#308=VECTOR('',#1039,10.);
#309=VECTOR('',#1044,10.);
#310=VECTOR('',#1045,10.);
#311=VECTOR('',#1048,10.);
#312=VECTOR('',#1049,10.);
#313=VECTOR('',#1052,10.);
#314=VECTOR('',#1053,10.);
#315=VECTOR('',#1056,10.);
#316=VECTOR('',#1061,10.);
#317=VECTOR('',#1068,3.37499996088445);
#318=VECTOR('',#1073,3.4999999217689);
#319=VECTOR('',#1078,3.37499996088445);
#320=VECTOR('',#1083,3.25);
#321=VECTOR('',#1088,3.625);
#322=VECTOR('',#1103,8.);
#323=VECTOR('',#1110,3.25);
#324=VERTEX_POINT('',#1113);
#325=VERTEX_POINT('',#1114);
#326=VERTEX_POINT('',#1116);
#327=VERTEX_POINT('',#1118);
#328=VERTEX_POINT('',#1122);
#329=VERTEX_POINT('',#1123);
#330=VERTEX_POINT('',#1125);
#331=VERTEX_POINT('',#1127);
#332=VERTEX_POINT('',#1131);
#333=VERTEX_POINT('',#1132);
#334=VERTEX_POINT('',#1134);
#335=VERTEX_POINT('',#1136);
#336=VERTEX_POINT('',#1140);
#337=VERTEX_POINT('',#1145);
#338=VERTEX_POINT('',#1146);
#339=VERTEX_POINT('',#1148);
#340=VERTEX_POINT('',#1153);
#341=VERTEX_POINT('',#1155);
#342=VERTEX_POINT('',#1159);
#343=VERTEX_POINT('',#1161);
#344=VERTEX_POINT('',#1165);
#345=VERTEX_POINT('',#1167);
#346=VERTEX_POINT('',#1175);
#347=VERTEX_POINT('',#1177);
#348=VERTEX_POINT('',#1179);
#349=VERTEX_POINT('',#1181);
#350=VERTEX_POINT('',#1183);
#351=VERTEX_POINT('',#1187);
#352=VERTEX_POINT('',#1190);
#353=VERTEX_POINT('',#1192);
#354=VERTEX_POINT('',#1194);
#355=VERTEX_POINT('',#1197);
#356=VERTEX_POINT('',#1201);
#357=VERTEX_POINT('',#1203);
#358=VERTEX_POINT('',#1205);
#359=VERTEX_POINT('',#1207);
#360=VERTEX_POINT('',#1209);
#361=VERTEX_POINT('',#1211);
#362=VERTEX_POINT('',#1294);
#363=VERTEX_POINT('',#1295);
#364=VERTEX_POINT('',#1536);
#365=VERTEX_POINT('',#1560);
#366=VERTEX_POINT('',#1564);
#367=VERTEX_POINT('',#1565);
#368=VERTEX_POINT('',#1567);
#369=VERTEX_POINT('',#1570);
#370=VERTEX_POINT('',#1572);
#371=VERTEX_POINT('',#1574);
#372=VERTEX_POINT('',#1576);
#373=VERTEX_POINT('',#1578);
#374=VERTEX_POINT('',#1580);
#375=VERTEX_POINT('',#1582);
#376=VERTEX_POINT('',#1584);
#377=VERTEX_POINT('',#1586);
#378=VERTEX_POINT('',#1588);
#379=VERTEX_POINT('',#1590);
#380=VERTEX_POINT('',#1599);
#381=VERTEX_POINT('',#1600);
#382=VERTEX_POINT('',#1605);
#383=VERTEX_POINT('',#1609);
#384=VERTEX_POINT('',#1610);
#385=VERTEX_POINT('',#1627);
#386=VERTEX_POINT('',#1631);
#387=VERTEX_POINT('',#1635);
#388=VERTEX_POINT('',#1645);
#389=VERTEX_POINT('',#1647);
#390=VERTEX_POINT('',#1651);
#391=VERTEX_POINT('',#1655);
#392=VERTEX_POINT('',#1659);
#393=VERTEX_POINT('',#1663);
#394=VERTEX_POINT('',#1667);
#395=VERTEX_POINT('',#1670);
#396=VERTEX_POINT('',#1676);
#397=EDGE_CURVE('',#324,#325,#144,.T.);
#398=EDGE_CURVE('',#324,#326,#145,.T.);
#399=EDGE_CURVE('',#327,#326,#146,.T.);
#400=EDGE_CURVE('',#325,#327,#147,.T.);
#401=EDGE_CURVE('',#328,#329,#32,.T.);
#402=EDGE_CURVE('',#330,#328,#148,.T.);
#403=EDGE_CURVE('',#331,#330,#149,.T.);
#404=EDGE_CURVE('',#329,#331,#150,.T.);
#405=EDGE_CURVE('',#332,#333,#33,.T.);
#406=EDGE_CURVE('',#334,#332,#151,.T.);
#407=EDGE_CURVE('',#335,#334,#152,.T.);
#408=EDGE_CURVE('',#333,#335,#153,.T.);
#409=EDGE_CURVE('',#336,#324,#154,.T.);
#410=EDGE_CURVE('',#333,#336,#34,.T.);
#411=EDGE_CURVE('',#326,#333,#155,.T.);
#412=EDGE_CURVE('',#337,#338,#156,.T.);
#413=EDGE_CURVE('',#339,#337,#157,.T.);
#414=EDGE_CURVE('',#328,#339,#158,.T.);
#415=EDGE_CURVE('',#338,#328,#35,.T.);
#416=EDGE_CURVE('',#340,#334,#159,.T.);
#417=EDGE_CURVE('',#341,#340,#160,.T.);
#418=EDGE_CURVE('',#341,#335,#161,.T.);
#419=EDGE_CURVE('',#331,#342,#162,.T.);
#420=EDGE_CURVE('',#343,#330,#163,.T.);
#421=EDGE_CURVE('',#342,#343,#164,.T.);
#422=EDGE_CURVE('',#344,#337,#165,.T.);
#423=EDGE_CURVE('',#345,#344,#166,.T.);
#424=EDGE_CURVE('',#345,#339,#167,.T.);
#425=EDGE_CURVE('',#343,#345,#168,.T.);
#426=EDGE_CURVE('',#327,#341,#169,.T.);
#427=EDGE_CURVE('',#342,#346,#170,.T.);
#428=EDGE_CURVE('',#346,#347,#171,.T.);
#429=EDGE_CURVE('',#348,#347,#172,.T.);
#430=EDGE_CURVE('',#348,#349,#173,.T.);
#431=EDGE_CURVE('',#349,#350,#174,.T.);
#432=EDGE_CURVE('',#329,#350,#175,.T.);
#433=EDGE_CURVE('',#350,#351,#36,.T.);
#434=EDGE_CURVE('',#351,#332,#176,.T.);
#435=EDGE_CURVE('',#336,#352,#177,.T.);
#436=EDGE_CURVE('',#352,#353,#37,.T.);
#437=EDGE_CURVE('',#353,#354,#178,.T.);
#438=EDGE_CURVE('',#354,#354,#38,.T.);
#439=EDGE_CURVE('',#353,#355,#39,.T.);
#440=EDGE_CURVE('',#355,#338,#179,.T.);
#441=EDGE_CURVE('',#356,#340,#180,.T.);
#442=EDGE_CURVE('',#357,#356,#181,.T.);
#443=EDGE_CURVE('',#357,#358,#182,.T.);
#444=EDGE_CURVE('',#359,#358,#183,.T.);
#445=EDGE_CURVE('',#359,#360,#184,.T.);
#446=EDGE_CURVE('',#361,#360,#185,.T.);
#447=EDGE_CURVE('',#325,#361,#186,.T.);
#448=EDGE_CURVE('',#362,#363,#40,.T.);
#449=EDGE_CURVE('',#363,#363,#24,.T.);
#450=EDGE_CURVE('',#362,#362,#25,.T.);
#451=EDGE_CURVE('',#363,#364,#22,.T.);
#452=EDGE_CURVE('',#364,#365,#41,.T.);
#453=EDGE_CURVE('',#365,#364,#42,.T.);
#454=EDGE_CURVE('',#366,#367,#187,.T.);
#455=EDGE_CURVE('',#367,#368,#188,.T.);
#456=EDGE_CURVE('',#368,#348,#189,.T.);
#457=EDGE_CURVE('',#347,#369,#190,.T.);
#458=EDGE_CURVE('',#370,#369,#191,.T.);
#459=EDGE_CURVE('',#370,#371,#192,.T.);
#460=EDGE_CURVE('',#372,#371,#193,.T.);
#461=EDGE_CURVE('',#372,#373,#194,.T.);
#462=EDGE_CURVE('',#373,#374,#195,.T.);
#463=EDGE_CURVE('',#374,#375,#196,.T.);
#464=EDGE_CURVE('',#375,#376,#197,.T.);
#465=EDGE_CURVE('',#376,#377,#198,.T.);
#466=EDGE_CURVE('',#378,#377,#199,.T.);
#467=EDGE_CURVE('',#378,#379,#200,.T.);
#468=EDGE_CURVE('',#366,#379,#201,.T.);
#469=EDGE_CURVE('',#357,#366,#202,.T.);
#470=EDGE_CURVE('',#379,#358,#203,.T.);
#471=EDGE_CURVE('',#359,#378,#204,.T.);
#472=EDGE_CURVE('',#380,#381,#205,.T.);
#473=EDGE_CURVE('',#380,#372,#206,.T.);
#474=EDGE_CURVE('',#371,#381,#207,.T.);
#475=EDGE_CURVE('',#380,#382,#208,.T.);
#476=EDGE_CURVE('',#373,#382,#209,.T.);
#477=EDGE_CURVE('',#383,#384,#210,.T.);
#478=EDGE_CURVE('',#383,#370,#211,.T.);
#479=EDGE_CURVE('',#369,#384,#212,.T.);
#480=EDGE_CURVE('',#382,#344,#213,.T.);
#481=EDGE_CURVE('',#383,#381,#214,.T.);
#482=EDGE_CURVE('',#346,#384,#215,.T.);
#483=EDGE_CURVE('',#377,#360,#216,.T.);
#484=EDGE_CURVE('',#367,#356,#217,.T.);
#485=EDGE_CURVE('',#361,#376,#218,.T.);
#486=EDGE_CURVE('',#351,#385,#219,.T.);
#487=EDGE_CURVE('',#368,#385,#220,.T.);
#488=EDGE_CURVE('',#375,#386,#221,.T.);
#489=EDGE_CURVE('',#386,#352,#222,.T.);
#490=EDGE_CURVE('',#374,#387,#223,.T.);
#491=EDGE_CURVE('',#387,#386,#224,.T.);
#492=EDGE_CURVE('',#355,#387,#225,.T.);
#493=EDGE_CURVE('',#385,#349,#226,.T.);
#494=EDGE_CURVE('',#388,#388,#43,.T.);
#495=EDGE_CURVE('',#388,#389,#227,.T.);
#496=EDGE_CURVE('',#389,#389,#44,.T.);
#497=EDGE_CURVE('',#389,#390,#228,.T.);
#498=EDGE_CURVE('',#390,#390,#45,.T.);
#499=EDGE_CURVE('',#390,#391,#229,.T.);
#500=EDGE_CURVE('',#391,#391,#46,.T.);
#501=EDGE_CURVE('',#391,#392,#230,.T.);
#502=EDGE_CURVE('',#392,#392,#47,.T.);
#503=EDGE_CURVE('',#392,#393,#231,.T.);
#504=EDGE_CURVE('',#393,#393,#48,.T.);
#505=EDGE_CURVE('',#394,#394,#49,.T.);
#506=EDGE_CURVE('',#395,#395,#50,.T.);
#507=EDGE_CURVE('',#395,#394,#51,.T.);
#508=EDGE_CURVE('',#365,#395,#232,.T.);
#509=EDGE_CURVE('',#396,#396,#52,.T.);
#510=EDGE_CURVE('',#396,#388,#233,.T.);
#511=ORIENTED_EDGE('',*,*,#397,.F.);
#512=ORIENTED_EDGE('',*,*,#398,.T.);
#513=ORIENTED_EDGE('',*,*,#399,.F.);
#514=ORIENTED_EDGE('',*,*,#400,.F.);
#515=ORIENTED_EDGE('',*,*,#401,.F.);
#516=ORIENTED_EDGE('',*,*,#402,.F.);
#517=ORIENTED_EDGE('',*,*,#403,.F.);
#518=ORIENTED_EDGE('',*,*,#404,.F.);
#519=ORIENTED_EDGE('',*,*,#405,.F.);
#520=ORIENTED_EDGE('',*,*,#406,.F.);
#521=ORIENTED_EDGE('',*,*,#407,.F.);
#522=ORIENTED_EDGE('',*,*,#408,.F.);
#523=ORIENTED_EDGE('',*,*,#409,.F.);
#524=ORIENTED_EDGE('',*,*,#410,.F.);
#525=ORIENTED_EDGE('',*,*,#411,.F.);
#526=ORIENTED_EDGE('',*,*,#398,.F.);
#527=ORIENTED_EDGE('',*,*,#412,.F.);
#528=ORIENTED_EDGE('',*,*,#413,.F.);
#529=ORIENTED_EDGE('',*,*,#414,.F.);
#530=ORIENTED_EDGE('',*,*,#415,.F.);
#531=ORIENTED_EDGE('',*,*,#416,.F.);
#532=ORIENTED_EDGE('',*,*,#417,.F.);
#533=ORIENTED_EDGE('',*,*,#418,.T.);
#534=ORIENTED_EDGE('',*,*,#407,.T.);
#535=ORIENTED_EDGE('',*,*,#419,.F.);
#536=ORIENTED_EDGE('',*,*,#403,.T.);
#537=ORIENTED_EDGE('',*,*,#420,.F.);
#538=ORIENTED_EDGE('',*,*,#421,.F.);
#539=ORIENTED_EDGE('',*,*,#422,.F.);
#540=ORIENTED_EDGE('',*,*,#423,.F.);
#541=ORIENTED_EDGE('',*,*,#424,.T.);
#542=ORIENTED_EDGE('',*,*,#413,.T.);
#543=ORIENTED_EDGE('',*,*,#425,.F.);
#544=ORIENTED_EDGE('',*,*,#420,.T.);
#545=ORIENTED_EDGE('',*,*,#402,.T.);
#546=ORIENTED_EDGE('',*,*,#414,.T.);
#547=ORIENTED_EDGE('',*,*,#424,.F.);
#548=ORIENTED_EDGE('',*,*,#426,.F.);
#549=ORIENTED_EDGE('',*,*,#399,.T.);
#550=ORIENTED_EDGE('',*,*,#411,.T.);
#551=ORIENTED_EDGE('',*,*,#408,.T.);
#552=ORIENTED_EDGE('',*,*,#418,.F.);
#553=ORIENTED_EDGE('',*,*,#404,.T.);
#554=ORIENTED_EDGE('',*,*,#419,.T.);
#555=ORIENTED_EDGE('',*,*,#427,.T.);
#556=ORIENTED_EDGE('',*,*,#428,.T.);
#557=ORIENTED_EDGE('',*,*,#429,.F.);
#558=ORIENTED_EDGE('',*,*,#430,.T.);
#559=ORIENTED_EDGE('',*,*,#431,.T.);
#560=ORIENTED_EDGE('',*,*,#432,.F.);
#561=ORIENTED_EDGE('',*,*,#415,.T.);
#562=ORIENTED_EDGE('',*,*,#401,.T.);
#563=ORIENTED_EDGE('',*,*,#432,.T.);
#564=ORIENTED_EDGE('',*,*,#433,.T.);
#565=ORIENTED_EDGE('',*,*,#434,.T.);
#566=ORIENTED_EDGE('',*,*,#405,.T.);
#567=ORIENTED_EDGE('',*,*,#410,.T.);
#568=ORIENTED_EDGE('',*,*,#435,.T.);
#569=ORIENTED_EDGE('',*,*,#436,.T.);
#570=ORIENTED_EDGE('',*,*,#437,.T.);
#571=ORIENTED_EDGE('',*,*,#438,.F.);
#572=ORIENTED_EDGE('',*,*,#437,.F.);
#573=ORIENTED_EDGE('',*,*,#439,.T.);
#574=ORIENTED_EDGE('',*,*,#440,.T.);
#575=ORIENTED_EDGE('',*,*,#400,.T.);
#576=ORIENTED_EDGE('',*,*,#426,.T.);
#577=ORIENTED_EDGE('',*,*,#417,.T.);
#578=ORIENTED_EDGE('',*,*,#441,.F.);
#579=ORIENTED_EDGE('',*,*,#442,.F.);
#580=ORIENTED_EDGE('',*,*,#443,.T.);
#581=ORIENTED_EDGE('',*,*,#444,.F.);
#582=ORIENTED_EDGE('',*,*,#445,.T.);
#583=ORIENTED_EDGE('',*,*,#446,.F.);
#584=ORIENTED_EDGE('',*,*,#447,.F.);
#585=ORIENTED_EDGE('',*,*,#448,.T.);
#586=ORIENTED_EDGE('',*,*,#449,.T.);
#587=ORIENTED_EDGE('',*,*,#448,.F.);
#588=ORIENTED_EDGE('',*,*,#450,.T.);
#589=ORIENTED_EDGE('',*,*,#449,.F.);
#590=ORIENTED_EDGE('',*,*,#451,.T.);
#591=ORIENTED_EDGE('',*,*,#452,.T.);
#592=ORIENTED_EDGE('',*,*,#453,.T.);
#593=ORIENTED_EDGE('',*,*,#451,.F.);
#594=ORIENTED_EDGE('',*,*,#450,.F.);
#595=ORIENTED_EDGE('',*,*,#454,.T.);
#596=ORIENTED_EDGE('',*,*,#455,.T.);
#597=ORIENTED_EDGE('',*,*,#456,.T.);
#598=ORIENTED_EDGE('',*,*,#429,.T.);
#599=ORIENTED_EDGE('',*,*,#457,.T.);
#600=ORIENTED_EDGE('',*,*,#458,.F.);
#601=ORIENTED_EDGE('',*,*,#459,.T.);
#602=ORIENTED_EDGE('',*,*,#460,.F.);
#603=ORIENTED_EDGE('',*,*,#461,.T.);
#604=ORIENTED_EDGE('',*,*,#462,.T.);
#605=ORIENTED_EDGE('',*,*,#463,.T.);
#606=ORIENTED_EDGE('',*,*,#464,.T.);
#607=ORIENTED_EDGE('',*,*,#465,.T.);
#608=ORIENTED_EDGE('',*,*,#466,.F.);
#609=ORIENTED_EDGE('',*,*,#467,.T.);
#610=ORIENTED_EDGE('',*,*,#468,.F.);
#611=ORIENTED_EDGE('',*,*,#443,.F.);
#612=ORIENTED_EDGE('',*,*,#469,.T.);
#613=ORIENTED_EDGE('',*,*,#468,.T.);
#614=ORIENTED_EDGE('',*,*,#470,.T.);
#615=ORIENTED_EDGE('',*,*,#470,.F.);
#616=ORIENTED_EDGE('',*,*,#467,.F.);
#617=ORIENTED_EDGE('',*,*,#471,.F.);
#618=ORIENTED_EDGE('',*,*,#444,.T.);
#619=ORIENTED_EDGE('',*,*,#472,.F.);
#620=ORIENTED_EDGE('',*,*,#473,.T.);
#621=ORIENTED_EDGE('',*,*,#460,.T.);
#622=ORIENTED_EDGE('',*,*,#474,.T.);
#623=ORIENTED_EDGE('',*,*,#473,.F.);
#624=ORIENTED_EDGE('',*,*,#475,.T.);
#625=ORIENTED_EDGE('',*,*,#476,.F.);
#626=ORIENTED_EDGE('',*,*,#461,.F.);
#627=ORIENTED_EDGE('',*,*,#477,.F.);
#628=ORIENTED_EDGE('',*,*,#478,.T.);
#629=ORIENTED_EDGE('',*,*,#458,.T.);
#630=ORIENTED_EDGE('',*,*,#479,.T.);
#631=ORIENTED_EDGE('',*,*,#423,.T.);
#632=ORIENTED_EDGE('',*,*,#480,.F.);
#633=ORIENTED_EDGE('',*,*,#475,.F.);
#634=ORIENTED_EDGE('',*,*,#472,.T.);
#635=ORIENTED_EDGE('',*,*,#481,.F.);
#636=ORIENTED_EDGE('',*,*,#477,.T.);
#637=ORIENTED_EDGE('',*,*,#482,.F.);
#638=ORIENTED_EDGE('',*,*,#427,.F.);
#639=ORIENTED_EDGE('',*,*,#421,.T.);
#640=ORIENTED_EDGE('',*,*,#425,.T.);
#641=ORIENTED_EDGE('',*,*,#479,.F.);
#642=ORIENTED_EDGE('',*,*,#457,.F.);
#643=ORIENTED_EDGE('',*,*,#428,.F.);
#644=ORIENTED_EDGE('',*,*,#482,.T.);
#645=ORIENTED_EDGE('',*,*,#445,.F.);
#646=ORIENTED_EDGE('',*,*,#471,.T.);
#647=ORIENTED_EDGE('',*,*,#466,.T.);
#648=ORIENTED_EDGE('',*,*,#483,.T.);
#649=ORIENTED_EDGE('',*,*,#469,.F.);
#650=ORIENTED_EDGE('',*,*,#442,.T.);
#651=ORIENTED_EDGE('',*,*,#484,.F.);
#652=ORIENTED_EDGE('',*,*,#454,.F.);
#653=ORIENTED_EDGE('',*,*,#483,.F.);
#654=ORIENTED_EDGE('',*,*,#465,.F.);
#655=ORIENTED_EDGE('',*,*,#485,.F.);
#656=ORIENTED_EDGE('',*,*,#446,.T.);
#657=ORIENTED_EDGE('',*,*,#474,.F.);
#658=ORIENTED_EDGE('',*,*,#459,.F.);
#659=ORIENTED_EDGE('',*,*,#478,.F.);
#660=ORIENTED_EDGE('',*,*,#481,.T.);
#661=ORIENTED_EDGE('',*,*,#406,.T.);
#662=ORIENTED_EDGE('',*,*,#434,.F.);
#663=ORIENTED_EDGE('',*,*,#486,.T.);
#664=ORIENTED_EDGE('',*,*,#487,.F.);
#665=ORIENTED_EDGE('',*,*,#455,.F.);
#666=ORIENTED_EDGE('',*,*,#484,.T.);
#667=ORIENTED_EDGE('',*,*,#441,.T.);
#668=ORIENTED_EDGE('',*,*,#416,.T.);
#669=ORIENTED_EDGE('',*,*,#397,.T.);
#670=ORIENTED_EDGE('',*,*,#447,.T.);
#671=ORIENTED_EDGE('',*,*,#485,.T.);
#672=ORIENTED_EDGE('',*,*,#464,.F.);
#673=ORIENTED_EDGE('',*,*,#488,.T.);
#674=ORIENTED_EDGE('',*,*,#489,.T.);
#675=ORIENTED_EDGE('',*,*,#435,.F.);
#676=ORIENTED_EDGE('',*,*,#409,.T.);
#677=ORIENTED_EDGE('',*,*,#463,.F.);
#678=ORIENTED_EDGE('',*,*,#490,.T.);
#679=ORIENTED_EDGE('',*,*,#491,.T.);
#680=ORIENTED_EDGE('',*,*,#488,.F.);
#681=ORIENTED_EDGE('',*,*,#412,.T.);
#682=ORIENTED_EDGE('',*,*,#440,.F.);
#683=ORIENTED_EDGE('',*,*,#492,.T.);
#684=ORIENTED_EDGE('',*,*,#490,.F.);
#685=ORIENTED_EDGE('',*,*,#462,.F.);
#686=ORIENTED_EDGE('',*,*,#476,.T.);
#687=ORIENTED_EDGE('',*,*,#480,.T.);
#688=ORIENTED_EDGE('',*,*,#422,.T.);
#689=ORIENTED_EDGE('',*,*,#492,.F.);
#690=ORIENTED_EDGE('',*,*,#439,.F.);
#691=ORIENTED_EDGE('',*,*,#436,.F.);
#692=ORIENTED_EDGE('',*,*,#489,.F.);
#693=ORIENTED_EDGE('',*,*,#491,.F.);
#694=ORIENTED_EDGE('',*,*,#456,.F.);
#695=ORIENTED_EDGE('',*,*,#487,.T.);
#696=ORIENTED_EDGE('',*,*,#493,.T.);
#697=ORIENTED_EDGE('',*,*,#430,.F.);
#698=ORIENTED_EDGE('',*,*,#493,.F.);
#699=ORIENTED_EDGE('',*,*,#486,.F.);
#700=ORIENTED_EDGE('',*,*,#433,.F.);
#701=ORIENTED_EDGE('',*,*,#431,.F.);
#702=ORIENTED_EDGE('',*,*,#494,.T.);
#703=ORIENTED_EDGE('',*,*,#495,.T.);
#704=ORIENTED_EDGE('',*,*,#496,.F.);
#705=ORIENTED_EDGE('',*,*,#495,.F.);
#706=ORIENTED_EDGE('',*,*,#496,.T.);
#707=ORIENTED_EDGE('',*,*,#497,.T.);
#708=ORIENTED_EDGE('',*,*,#498,.F.);
#709=ORIENTED_EDGE('',*,*,#497,.F.);
#710=ORIENTED_EDGE('',*,*,#498,.T.);
#711=ORIENTED_EDGE('',*,*,#499,.T.);
#712=ORIENTED_EDGE('',*,*,#500,.F.);
#713=ORIENTED_EDGE('',*,*,#499,.F.);
#714=ORIENTED_EDGE('',*,*,#500,.T.);
#715=ORIENTED_EDGE('',*,*,#501,.T.);
#716=ORIENTED_EDGE('',*,*,#502,.F.);
#717=ORIENTED_EDGE('',*,*,#501,.F.);
#718=ORIENTED_EDGE('',*,*,#502,.T.);
#719=ORIENTED_EDGE('',*,*,#503,.T.);
#720=ORIENTED_EDGE('',*,*,#504,.F.);
#721=ORIENTED_EDGE('',*,*,#503,.F.);
#722=ORIENTED_EDGE('',*,*,#505,.F.);
#723=ORIENTED_EDGE('',*,*,#504,.T.);
#724=ORIENTED_EDGE('',*,*,#506,.F.);
#725=ORIENTED_EDGE('',*,*,#507,.T.);
#726=ORIENTED_EDGE('',*,*,#505,.T.);
#727=ORIENTED_EDGE('',*,*,#507,.F.);
#728=ORIENTED_EDGE('',*,*,#452,.F.);
#729=ORIENTED_EDGE('',*,*,#453,.F.);
#730=ORIENTED_EDGE('',*,*,#508,.T.);
#731=ORIENTED_EDGE('',*,*,#506,.T.);
#732=ORIENTED_EDGE('',*,*,#508,.F.);
#733=ORIENTED_EDGE('',*,*,#438,.T.);
#734=ORIENTED_EDGE('',*,*,#509,.F.);
#735=ORIENTED_EDGE('',*,*,#509,.T.);
#736=ORIENTED_EDGE('',*,*,#510,.T.);
#737=ORIENTED_EDGE('',*,*,#494,.F.);
#738=ORIENTED_EDGE('',*,*,#510,.F.);
#739=PLANE('',#830);
#740=PLANE('',#831);
#741=PLANE('',#833);
#742=PLANE('',#835);
#743=PLANE('',#837);
#744=PLANE('',#839);
#745=PLANE('',#840);
#746=PLANE('',#841);
#747=PLANE('',#842);
#748=PLANE('',#843);
#749=PLANE('',#844);
#750=PLANE('',#850);
#751=PLANE('',#854);
#752=PLANE('',#855);
#753=PLANE('',#856);
#754=PLANE('',#857);
#755=PLANE('',#858);
#756=PLANE('',#859);
#757=PLANE('',#860);
#758=PLANE('',#861);
#759=PLANE('',#862);
#760=PLANE('',#863);
#761=PLANE('',#864);
#762=PLANE('',#865);
#763=PLANE('',#866);
#764=PLANE('',#867);
#765=PLANE('',#868);
#766=PLANE('',#869);
#767=PLANE('',#870);
#768=PLANE('',#871);
#769=PLANE('',#872);
#770=PLANE('',#884);
#771=PLANE('',#890);
#772=ADVANCED_FACE('',(#53),#739,.F.);
#773=ADVANCED_FACE('',(#54),#740,.F.);
#774=ADVANCED_FACE('',(#55),#741,.F.);
#775=ADVANCED_FACE('',(#56),#742,.F.);
#776=ADVANCED_FACE('',(#57),#743,.F.);
#777=ADVANCED_FACE('',(#58),#744,.F.);
#778=ADVANCED_FACE('',(#59),#745,.F.);
#779=ADVANCED_FACE('',(#60),#746,.F.);
#780=ADVANCED_FACE('',(#61),#747,.F.);
#781=ADVANCED_FACE('',(#62),#748,.F.);
#782=ADVANCED_FACE('',(#63),#749,.F.);
#783=ADVANCED_FACE('',(#64),#27,.F.);
#784=ADVANCED_FACE('',(#65),#750,.F.);
#785=ADVANCED_FACE('',(#66),#26,.F.);
#786=ADVANCED_FACE('',(#67),#23,.T.);
#787=ADVANCED_FACE('',(#68,#19),#751,.T.);
#788=ADVANCED_FACE('',(#69),#752,.T.);
#789=ADVANCED_FACE('',(#70),#753,.F.);
#790=ADVANCED_FACE('',(#71),#754,.T.);
#791=ADVANCED_FACE('',(#72),#755,.F.);
#792=ADVANCED_FACE('',(#73),#756,.T.);
#793=ADVANCED_FACE('',(#74),#757,.F.);
#794=ADVANCED_FACE('',(#75),#758,.F.);
#795=ADVANCED_FACE('',(#76),#759,.T.);
#796=ADVANCED_FACE('',(#77),#760,.F.);
#797=ADVANCED_FACE('',(#78),#761,.F.);
#798=ADVANCED_FACE('',(#79),#762,.F.);
#799=ADVANCED_FACE('',(#80),#763,.F.);
#800=ADVANCED_FACE('',(#81),#764,.F.);
#801=ADVANCED_FACE('',(#82),#765,.F.);
#802=ADVANCED_FACE('',(#83),#766,.F.);
#803=ADVANCED_FACE('',(#84),#767,.T.);
#804=ADVANCED_FACE('',(#85),#768,.F.);
#805=ADVANCED_FACE('',(#86),#769,.T.);
#806=ADVANCED_FACE('',(#87),#16,.F.);
#807=ADVANCED_FACE('',(#88),#28,.F.);
#808=ADVANCED_FACE('',(#89),#17,.F.);
#809=ADVANCED_FACE('',(#90),#29,.F.);
#810=ADVANCED_FACE('',(#91),#18,.F.);
#811=ADVANCED_FACE('',(#92,#20),#770,.T.);
#812=ADVANCED_FACE('',(#93),#15,.T.);
#813=ADVANCED_FACE('',(#94),#30,.T.);
#814=ADVANCED_FACE('',(#95,#21),#771,.T.);
#815=ADVANCED_FACE('',(#96),#31,.F.);
#816=CLOSED_SHELL('',(#772,#773,#774,#775,#776,#777,#778,#779,#780,#781,
#782,#783,#784,#785,#786,#787,#788,#789,#790,#791,#792,#793,#794,#795,#796,
#797,#798,#799,#800,#801,#802,#803,#804,#805,#806,#807,#808,#809,#810,#811,
#812,#813,#814,#815));
#817=DERIVED_UNIT_ELEMENT(#819,1.);
#818=DERIVED_UNIT_ELEMENT(#1685,-3.);
#819=(
MASS_UNIT()
NAMED_UNIT(*)
SI_UNIT(.KILO.,.GRAM.)
);
#820=DERIVED_UNIT((#817,#818));
#821=MEASURE_REPRESENTATION_ITEM('density measure',
POSITIVE_RATIO_MEASURE(7850.),#820);
#822=PROPERTY_DEFINITION_REPRESENTATION(#827,#824);
#823=PROPERTY_DEFINITION_REPRESENTATION(#828,#825);
#824=REPRESENTATION('material name',(#826),#1682);
#825=REPRESENTATION('density',(#821),#1682);
#826=DESCRIPTIVE_REPRESENTATION_ITEM('Steel','Steel');
#827=PROPERTY_DEFINITION('material property','material name',#1692);
#828=PROPERTY_DEFINITION('material property','density of part',#1692);
#829=AXIS2_PLACEMENT_3D('',#1111,#893,#894);
#830=AXIS2_PLACEMENT_3D('',#1112,#895,#896);
#831=AXIS2_PLACEMENT_3D('',#1121,#901,#902);
#832=AXIS2_PLACEMENT_3D('',#1124,#903,#904);
#833=AXIS2_PLACEMENT_3D('',#1130,#908,#909);
#834=AXIS2_PLACEMENT_3D('',#1133,#910,#911);
#835=AXIS2_PLACEMENT_3D('',#1139,#915,#916);
#836=AXIS2_PLACEMENT_3D('',#1142,#918,#919);
#837=AXIS2_PLACEMENT_3D('',#1144,#921,#922);
#838=AXIS2_PLACEMENT_3D('',#1151,#926,#927);
#839=AXIS2_PLACEMENT_3D('',#1152,#928,#929);
#840=AXIS2_PLACEMENT_3D('',#1158,#933,#934);
#841=AXIS2_PLACEMENT_3D('',#1164,#938,#939);
#842=AXIS2_PLACEMENT_3D('',#1170,#943,#944);
#843=AXIS2_PLACEMENT_3D('',#1172,#946,#947);
#844=AXIS2_PLACEMENT_3D('',#1174,#949,#950);
#845=AXIS2_PLACEMENT_3D('',#1186,#957,#958);
#846=AXIS2_PLACEMENT_3D('',#1188,#959,#960);
#847=AXIS2_PLACEMENT_3D('',#1193,#963,#964);
#848=AXIS2_PLACEMENT_3D('',#1196,#966,#967);
#849=AXIS2_PLACEMENT_3D('',#1198,#968,#969);
#850=AXIS2_PLACEMENT_3D('',#1200,#971,#972);
#851=AXIS2_PLACEMENT_3D('',#1296,#980,#981);
#852=AXIS2_PLACEMENT_3D('',#1561,#982,#983);
#853=AXIS2_PLACEMENT_3D('',#1562,#984,#985);
#854=AXIS2_PLACEMENT_3D('',#1563,#986,#987);
#855=AXIS2_PLACEMENT_3D('',#1593,#1003,#1004);
#856=AXIS2_PLACEMENT_3D('',#1596,#1007,#1008);
#857=AXIS2_PLACEMENT_3D('',#1598,#1010,#1011);
#858=AXIS2_PLACEMENT_3D('',#1604,#1015,#1016);
#859=AXIS2_PLACEMENT_3D('',#1608,#1019,#1020);
#860=AXIS2_PLACEMENT_3D('',#1614,#1024,#1025);
#861=AXIS2_PLACEMENT_3D('',#1618,#1029,#1030);
#862=AXIS2_PLACEMENT_3D('',#1619,#1031,#1032);
#863=AXIS2_PLACEMENT_3D('',#1621,#1034,#1035);
#864=AXIS2_PLACEMENT_3D('',#1623,#1037,#1038);
#865=AXIS2_PLACEMENT_3D('',#1625,#1040,#1041);
#866=AXIS2_PLACEMENT_3D('',#1626,#1042,#1043);
#867=AXIS2_PLACEMENT_3D('',#1630,#1046,#1047);
#868=AXIS2_PLACEMENT_3D('',#1634,#1050,#1051);
#869=AXIS2_PLACEMENT_3D('',#1638,#1054,#1055);
#870=AXIS2_PLACEMENT_3D('',#1640,#1057,#1058);
#871=AXIS2_PLACEMENT_3D('',#1641,#1059,#1060);
#872=AXIS2_PLACEMENT_3D('',#1643,#1062,#1063);
#873=AXIS2_PLACEMENT_3D('',#1644,#1064,#1065);
#874=AXIS2_PLACEMENT_3D('',#1646,#1066,#1067);
#875=AXIS2_PLACEMENT_3D('',#1649,#1069,#1070);
#876=AXIS2_PLACEMENT_3D('',#1650,#1071,#1072);
#877=AXIS2_PLACEMENT_3D('',#1653,#1074,#1075);
#878=AXIS2_PLACEMENT_3D('',#1654,#1076,#1077);
#879=AXIS2_PLACEMENT_3D('',#1657,#1079,#1080);
#880=AXIS2_PLACEMENT_3D('',#1658,#1081,#1082);
#881=AXIS2_PLACEMENT_3D('',#1661,#1084,#1085);
#882=AXIS2_PLACEMENT_3D('',#1662,#1086,#1087);
#883=AXIS2_PLACEMENT_3D('',#1665,#1089,#1090);
#884=AXIS2_PLACEMENT_3D('',#1666,#1091,#1092);
#885=AXIS2_PLACEMENT_3D('',#1668,#1093,#1094);
#886=AXIS2_PLACEMENT_3D('',#1669,#1095,#1096);
#887=AXIS2_PLACEMENT_3D('',#1671,#1097,#1098);
#888=AXIS2_PLACEMENT_3D('',#1672,#1099,#1100);
#889=AXIS2_PLACEMENT_3D('',#1673,#1101,#1102);
#890=AXIS2_PLACEMENT_3D('',#1675,#1104,#1105);
#891=AXIS2_PLACEMENT_3D('',#1677,#1106,#1107);
#892=AXIS2_PLACEMENT_3D('',#1678,#1108,#1109);
#893=DIRECTION('axis',(0.,0.,1.));
#894=DIRECTION('refdir',(1.,0.,0.));
#895=DIRECTION('center_axis',(-1.,0.,0.));
#896=DIRECTION('ref_axis',(0.,1.,0.));
#897=DIRECTION('',(0.,0.,1.));
#898=DIRECTION('',(0.,1.,0.));
#899=DIRECTION('',(0.,0.,-1.));
#900=DIRECTION('',(0.,1.,0.));
#901=DIRECTION('center_axis',(0.,0.,-1.));
#902=DIRECTION('ref_axis',(-1.,0.,0.));
#903=DIRECTION('center_axis',(0.,0.,1.));
#904=DIRECTION('ref_axis',(1.,0.,0.));
#905=DIRECTION('',(-1.,0.,0.));
#906=DIRECTION('',(0.,-1.,0.));
#907=DIRECTION('',(1.,0.,0.));
#908=DIRECTION('center_axis',(0.,0.,-1.));
#909=DIRECTION('ref_axis',(-1.,0.,0.));
#910=DIRECTION('center_axis',(0.,0.,1.));
#911=DIRECTION('ref_axis',(1.,0.,0.));
#912=DIRECTION('',(-1.,0.,0.));
#913=DIRECTION('',(0.,-1.,0.));
#914=DIRECTION('',(1.,0.,0.));
#915=DIRECTION('center_axis',(0.,0.,-1.));
#916=DIRECTION('ref_axis',(-1.,0.,0.));
#917=DIRECTION('',(-1.,0.,0.));
#918=DIRECTION('center_axis',(0.,0.,1.));
#919=DIRECTION('ref_axis',(1.,0.,0.));
#920=DIRECTION('',(1.,0.,0.));
#921=DIRECTION('center_axis',(0.,0.,-1.));
#922=DIRECTION('ref_axis',(-1.,0.,0.));
#923=DIRECTION('',(1.,0.,0.));
#924=DIRECTION('',(0.,1.,0.));
#925=DIRECTION('',(-1.,0.,0.));
#926=DIRECTION('center_axis',(0.,0.,1.));
#927=DIRECTION('ref_axis',(1.,0.,0.));
#928=DIRECTION('center_axis',(1.,0.,0.));
#929=DIRECTION('ref_axis',(0.,-1.,0.));
#930=DIRECTION('',(0.,0.,-1.));
#931=DIRECTION('',(0.,-1.,0.));
#932=DIRECTION('',(0.,0.,-1.));
#933=DIRECTION('center_axis',(1.,0.,0.));
#934=DIRECTION('ref_axis',(0.,-1.,0.));
#935=DIRECTION('',(0.,0.,1.));
#936=DIRECTION('',(0.,0.,-1.));
#937=DIRECTION('',(0.,-1.,0.));
#938=DIRECTION('center_axis',(-1.,0.,0.));
#939=DIRECTION('ref_axis',(0.,1.,0.));
#940=DIRECTION('',(0.,0.,-1.));
#941=DIRECTION('',(0.,1.,0.));
#942=DIRECTION('',(0.,0.,-1.));
#943=DIRECTION('center_axis',(0.,-1.,0.));
#944=DIRECTION('ref_axis',(-1.,0.,0.));
#945=DIRECTION('',(-1.,0.,0.));
#946=DIRECTION('center_axis',(0.,1.,0.));
#947=DIRECTION('ref_axis',(1.,0.,0.));
#948=DIRECTION('',(1.,0.,0.));
#949=DIRECTION('center_axis',(0.,-1.,0.));
#950=DIRECTION('ref_axis',(-1.,0.,0.));
#951=DIRECTION('',(1.,0.,0.));
#952=DIRECTION('',(0.,0.,1.));
#953=DIRECTION('',(-1.,0.,0.));
#954=DIRECTION('',(0.,0.,-1.));
#955=DIRECTION('',(-1.,0.,0.));
#956=DIRECTION('',(0.,0.,-1.));
#957=DIRECTION('center_axis',(0.,0.,1.));
#958=DIRECTION('ref_axis',(1.,0.,0.));
#959=DIRECTION('center_axis',(0.,0.,1.));
#960=DIRECTION('ref_axis',(1.,0.,0.));
#961=DIRECTION('',(0.,0.,1.));
#962=DIRECTION('',(0.,0.,-1.));
#963=DIRECTION('center_axis',(0.,0.,1.));
#964=DIRECTION('ref_axis',(1.,0.,0.));
#965=DIRECTION('',(0.,0.,-1.));
#966=DIRECTION('center_axis',(0.,0.,1.));
#967=DIRECTION('ref_axis',(1.,0.,0.));
#968=DIRECTION('center_axis',(0.,0.,1.));
#969=DIRECTION('ref_axis',(1.,0.,0.));
#970=DIRECTION('',(0.,0.,1.));
#971=DIRECTION('center_axis',(0.,0.,-1.));
#972=DIRECTION('ref_axis',(-1.,0.,0.));
#973=DIRECTION('',(-1.,0.,0.));
#974=DIRECTION('',(0.,-1.,0.));
#975=DIRECTION('',(-0.707106781186548,0.707106781186547,0.));
#976=DIRECTION('',(1.,0.,0.));
#977=DIRECTION('',(-0.707106781186548,-0.707106781186548,0.));
#978=DIRECTION('',(-6.93889390390723E-17,1.,0.));
#979=DIRECTION('',(-1.,0.,0.));
#980=DIRECTION('center_axis',(-9.71458633379755E-16,1.,0.));
#981=DIRECTION('ref_axis',(0.,0.,1.));
#982=DIRECTION('center_axis',(0.,0.,1.));
#983=DIRECTION('ref_axis',(1.,0.,0.));
#984=DIRECTION('center_axis',(0.,0.,1.));
#985=DIRECTION('ref_axis',(1.,0.,0.));
#986=DIRECTION('center_axis',(0.,0.,1.));
#987=DIRECTION('ref_axis',(1.,0.,0.));
#988=DIRECTION('',(0.,-1.,0.));
#989=DIRECTION('',(1.,0.,0.));
#990=DIRECTION('',(0.,-1.,0.));
#991=DIRECTION('',(0.,-1.,0.));
#992=DIRECTION('',(0.707106781186548,0.707106781186548,0.));
#993=DIRECTION('',(-1.,0.,0.));
#994=DIRECTION('',(0.707106781186548,-0.707106781186548,0.));
#995=DIRECTION('',(-6.93889390390723E-17,1.,0.));
#996=DIRECTION('',(-1.,0.,0.));
#997=DIRECTION('',(0.,1.,0.));
#998=DIRECTION('',(1.,0.,0.));
#999=DIRECTION('',(-6.93889390390723E-17,1.,0.));
#1000=DIRECTION('',(-0.707106781186548,-0.707106781186548,0.));
#1001=DIRECTION('',(1.,0.,0.));
#1002=DIRECTION('',(-0.707106781186548,0.707106781186547,0.));
#1003=DIRECTION('center_axis',(-0.707106781186547,-0.707106781186548,0.));
#1004=DIRECTION('ref_axis',(0.,0.,1.));
#1005=DIRECTION('',(0.,0.,1.));
#1006=DIRECTION('',(0.,0.,-1.));
#1007=DIRECTION('center_axis',(0.,1.,0.));
#1008=DIRECTION('ref_axis',(1.,0.,0.));
#1009=DIRECTION('',(0.,0.,1.));
#1010=DIRECTION('center_axis',(0.707106781186548,0.707106781186548,0.));
#1011=DIRECTION('ref_axis',(0.,0.,-1.));
#1012=DIRECTION('',(0.707106781186548,-0.707106781186548,0.));
#1013=DIRECTION('',(0.,0.,1.));
#1014=DIRECTION('',(0.,0.,-1.));
#1015=DIRECTION('center_axis',(-1.,-6.93889390390723E-17,0.));
#1016=DIRECTION('ref_axis',(-6.93889390390723E-17,1.,0.));
#1017=DIRECTION('',(-6.93889390390723E-17,1.,0.));
#1018=DIRECTION('',(0.,0.,-1.));
#1019=DIRECTION('center_axis',(-0.707106781186548,0.707106781186548,0.));
#1020=DIRECTION('ref_axis',(0.,0.,1.));
#1021=DIRECTION('',(0.707106781186548,0.707106781186548,0.));
#1022=DIRECTION('',(0.,0.,1.));
#1023=DIRECTION('',(0.,0.,-1.));
#1024=DIRECTION('center_axis',(0.,0.,-1.));
#1025=DIRECTION('ref_axis',(-1.,0.,0.));
#1026=DIRECTION('',(1.,0.,0.));
#1027=DIRECTION('',(-1.,0.,0.));
#1028=DIRECTION('',(0.,-1.,0.));
#1029=DIRECTION('center_axis',(1.,0.,0.));
#1030=DIRECTION('ref_axis',(0.,-1.,0.));
#1031=DIRECTION('center_axis',(0.707106781186548,-0.707106781186548,0.));
#1032=DIRECTION('ref_axis',(0.,0.,-1.));
#1033=DIRECTION('',(0.,0.,-1.));
#1034=DIRECTION('center_axis',(1.,0.,0.));
#1035=DIRECTION('ref_axis',(0.,-1.,0.));
#1036=DIRECTION('',(0.,0.,-1.));
#1037=DIRECTION('center_axis',(-1.,-6.93889390390723E-17,0.));
#1038=DIRECTION('ref_axis',(-6.93889390390723E-17,1.,0.));
#1039=DIRECTION('',(0.,0.,1.));
#1040=DIRECTION('center_axis',(0.,-1.,0.));
#1041=DIRECTION('ref_axis',(-1.,0.,0.));
#1042=DIRECTION('center_axis',(0.,1.,0.));
#1043=DIRECTION('ref_axis',(1.,0.,0.));
#1044=DIRECTION('',(1.,0.,0.));
#1045=DIRECTION('',(0.,0.,-1.));
#1046=DIRECTION('center_axis',(0.,1.,0.));
#1047=DIRECTION('ref_axis',(1.,0.,0.));
#1048=DIRECTION('',(0.,0.,-1.));
#1049=DIRECTION('',(1.,0.,0.));
#1050=DIRECTION('center_axis',(-1.,0.,0.));
#1051=DIRECTION('ref_axis',(0.,1.,0.));
#1052=DIRECTION('',(0.,0.,-1.));
#1053=DIRECTION('',(0.,1.,0.));
#1054=DIRECTION('center_axis',(0.,-1.,0.));
#1055=DIRECTION('ref_axis',(-1.,0.,0.));
#1056=DIRECTION('',(-1.,0.,0.));
#1057=DIRECTION('center_axis',(0.,0.,1.));
#1058=DIRECTION('ref_axis',(-1.,0.,0.));
#1059=DIRECTION('center_axis',(1.,0.,0.));
#1060=DIRECTION('ref_axis',(0.,-1.,0.));
#1061=DIRECTION('',(0.,-1.,0.));
#1062=DIRECTION('center_axis',(0.,0.,1.));
#1063=DIRECTION('ref_axis',(-1.,0.,0.));
#1064=DIRECTION('center_axis',(0.,0.,-1.));
#1065=DIRECTION('ref_axis',(1.,0.,0.));
#1066=DIRECTION('center_axis',(0.,0.,1.));
#1067=DIRECTION('ref_axis',(1.,0.,0.));
#1068=DIRECTION('',(-0.500000000000002,-6.12323399573679E-17,-0.866025403784438));
#1069=DIRECTION('center_axis',(0.,0.,1.));
#1070=DIRECTION('ref_axis',(1.,0.,0.));
#1071=DIRECTION('center_axis',(0.,0.,1.));
#1072=DIRECTION('ref_axis',(1.,0.,0.));
#1073=DIRECTION('',(0.,0.,-1.));
#1074=DIRECTION('center_axis',(0.,0.,1.));
#1075=DIRECTION('ref_axis',(1.,0.,0.));
#1076=DIRECTION('center_axis',(0.,0.,1.));
#1077=DIRECTION('ref_axis',(1.,0.,0.));
#1078=DIRECTION('',(0.161402042974403,1.97660495304446E-17,-0.986888737661794));
#1079=DIRECTION('center_axis',(0.,0.,1.));
#1080=DIRECTION('ref_axis',(1.,0.,0.));
#1081=DIRECTION('center_axis',(0.,0.,1.));
#1082=DIRECTION('ref_axis',(1.,0.,0.));
#1083=DIRECTION('',(0.,0.,-1.));
#1084=DIRECTION('center_axis',(0.,0.,1.));
#1085=DIRECTION('ref_axis',(1.,0.,0.));
#1086=DIRECTION('center_axis',(0.,0.,-1.));
#1087=DIRECTION('ref_axis',(1.,0.,0.));
#1088=DIRECTION('',(-0.430048550736079,-5.26657581136897E-17,-0.902805762060588));
#1089=DIRECTION('center_axis',(0.,0.,1.));
#1090=DIRECTION('ref_axis',(1.,0.,0.));
#1091=DIRECTION('center_axis',(0.,0.,-1.));
#1092=DIRECTION('ref_axis',(-1.,0.,0.));
#1093=DIRECTION('center_axis',(0.,0.,1.));
#1094=DIRECTION('ref_axis',(1.,0.,0.));
#1095=DIRECTION('center_axis',(0.,0.,1.));
#1096=DIRECTION('ref_axis',(1.,0.,0.));
#1097=DIRECTION('center_axis',(0.,0.,1.));
#1098=DIRECTION('ref_axis',(1.,0.,0.));
#1099=DIRECTION('center_axis',(1.22464679914735E-16,-1.,0.));
#1100=DIRECTION('ref_axis',(-1.,-1.22464679914735E-16,0.));
#1101=DIRECTION('center_axis',(0.,0.,1.));
#1102=DIRECTION('ref_axis',(1.,0.,0.));
#1103=DIRECTION('',(0.,0.,-1.));
#1104=DIRECTION('center_axis',(0.,0.,1.));
#1105=DIRECTION('ref_axis',(1.,0.,0.));
#1106=DIRECTION('center_axis',(0.,0.,1.));
#1107=DIRECTION('ref_axis',(1.,0.,0.));
#1108=DIRECTION('center_axis',(0.,0.,1.));
#1109=DIRECTION('ref_axis',(1.,0.,0.));
#1110=DIRECTION('',(0.,0.,-1.));
#1111=CARTESIAN_POINT('',(0.,0.,0.));
#1112=CARTESIAN_POINT('Origin',(-3.5,-3.5,91.574483440036));
#1113=CARTESIAN_POINT('',(-3.5,2.5,83.574483440036));
#1114=CARTESIAN_POINT('',(-3.5,2.5,91.574483440036));
#1115=CARTESIAN_POINT('',(-3.5,2.5,92.574483440036));
#1116=CARTESIAN_POINT('',(-3.5,3.5,83.574483440036));
#1117=CARTESIAN_POINT('',(-3.5,-3.5,83.574483440036));
#1118=CARTESIAN_POINT('',(-3.5,3.5,91.574483440036));
#1119=CARTESIAN_POINT('',(-3.5,3.5,91.574483440036));
#1120=CARTESIAN_POINT('',(-3.5,-1.75,91.574483440036));
#1121=CARTESIAN_POINT('Origin',(0.,0.,83.574483440036));
#1122=CARTESIAN_POINT('',(0.,-3.5,83.574483440036));
#1123=CARTESIAN_POINT('',(2.44948963100119,-2.5,83.574483440036));
#1124=CARTESIAN_POINT('Origin',(0.,0.,83.574483440036));
#1125=CARTESIAN_POINT('',(3.5,-3.5,83.574483440036));
#1126=CARTESIAN_POINT('',(3.5,-3.5,83.574483440036));
#1127=CARTESIAN_POINT('',(3.5,-2.5,83.574483440036));
#1128=CARTESIAN_POINT('',(3.5,3.5,83.574483440036));
#1129=CARTESIAN_POINT('',(2.375,-2.5,83.574483440036));
#1130=CARTESIAN_POINT('Origin',(0.,0.,83.574483440036));
#1131=CARTESIAN_POINT('',(2.44948963100119,2.5,83.574483440036));
#1132=CARTESIAN_POINT('',(0.,3.5,83.574483440036));
#1133=CARTESIAN_POINT('Origin',(0.,0.,83.574483440036));
#1134=CARTESIAN_POINT('',(3.5,2.5,83.574483440036));
#1135=CARTESIAN_POINT('',(1.22474481550059,2.5,83.574483440036));
#1136=CARTESIAN_POINT('',(3.5,3.5,83.574483440036));
#1137=CARTESIAN_POINT('',(3.5,3.5,83.574483440036));
#1138=CARTESIAN_POINT('',(-3.5,3.5,83.574483440036));
#1139=CARTESIAN_POINT('Origin',(0.,0.,83.574483440036));
#1140=CARTESIAN_POINT('',(-2.44948963100119,2.5,83.574483440036));
#1141=CARTESIAN_POINT('',(-2.375,2.5,83.574483440036));
#1142=CARTESIAN_POINT('Origin',(0.,0.,83.574483440036));
#1143=CARTESIAN_POINT('',(-3.5,3.5,83.574483440036));
#1144=CARTESIAN_POINT('Origin',(0.,0.,83.574483440036));
#1145=CARTESIAN_POINT('',(-3.5,-2.5,83.574483440036));
#1146=CARTESIAN_POINT('',(-2.44948963100119,-2.5,83.574483440036));
#1147=CARTESIAN_POINT('',(-1.22474481550059,-2.5,83.574483440036));
#1148=CARTESIAN_POINT('',(-3.5,-3.5,83.574483440036));
#1149=CARTESIAN_POINT('',(-3.5,-3.5,83.574483440036));
#1150=CARTESIAN_POINT('',(3.5,-3.5,83.574483440036));
#1151=CARTESIAN_POINT('Origin',(0.,0.,83.574483440036));
#1152=CARTESIAN_POINT('Origin',(3.5,3.5,91.574483440036));
#1153=CARTESIAN_POINT('',(3.5,2.5,91.574483440036));
#1154=CARTESIAN_POINT('',(3.5,2.5,92.574483440036));
#1155=CARTESIAN_POINT('',(3.5,3.5,91.574483440036));
#1156=CARTESIAN_POINT('',(3.5,1.75,91.574483440036));
#1157=CARTESIAN_POINT('',(3.5,3.5,91.574483440036));
#1158=CARTESIAN_POINT('Origin',(3.5,3.5,91.574483440036));
#1159=CARTESIAN_POINT('',(3.5,-2.5,91.574483440036));
#1160=CARTESIAN_POINT('',(3.5,-2.5,92.574483440036));
#1161=CARTESIAN_POINT('',(3.5,-3.5,91.574483440036));
#1162=CARTESIAN_POINT('',(3.5,-3.5,91.574483440036));
#1163=CARTESIAN_POINT('',(3.5,1.75,91.574483440036));
#1164=CARTESIAN_POINT('Origin',(-3.5,-3.5,91.574483440036));
#1165=CARTESIAN_POINT('',(-3.5,-2.5,91.574483440036));
#1166=CARTESIAN_POINT('',(-3.5,-2.5,92.574483440036));
#1167=CARTESIAN_POINT('',(-3.5,-3.5,91.574483440036));
#1168=CARTESIAN_POINT('',(-3.5,-1.75,91.574483440036));
#1169=CARTESIAN_POINT('',(-3.5,-3.5,91.574483440036));
#1170=CARTESIAN_POINT('Origin',(3.5,-3.5,91.574483440036));
#1171=CARTESIAN_POINT('',(1.75,-3.5,91.574483440036));
#1172=CARTESIAN_POINT('Origin',(-3.5,3.5,91.574483440036));
#1173=CARTESIAN_POINT('',(-1.75,3.5,91.574483440036));
#1174=CARTESIAN_POINT('Origin',(4.75,-2.5,93.574483440036));
#1175=CARTESIAN_POINT('',(4.,-2.5,91.574483440036));
#1176=CARTESIAN_POINT('',(2.375,-2.5,91.574483440036));
#1177=CARTESIAN_POINT('',(4.,-2.5,93.574483440036));
#1178=CARTESIAN_POINT('',(4.,-2.5,93.574483440036));
#1179=CARTESIAN_POINT('',(4.75,-2.5,93.574483440036));
#1180=CARTESIAN_POINT('',(4.12499996088445,-2.5,93.574483440036));
#1181=CARTESIAN_POINT('',(4.75,-2.5,76.574483440036));
#1182=CARTESIAN_POINT('',(4.75,-2.5,93.574483440036));
#1183=CARTESIAN_POINT('',(2.44948963100119,-2.5,76.574483440036));
#1184=CARTESIAN_POINT('',(4.75,-2.5,76.574483440036));
#1185=CARTESIAN_POINT('',(2.44948963100119,-2.5,82.574483440036));
#1186=CARTESIAN_POINT('Origin',(0.,0.,82.574483440036));
#1187=CARTESIAN_POINT('',(2.44948963100119,2.5,76.574483440036));
#1188=CARTESIAN_POINT('Origin',(0.,0.,76.574483440036));
#1189=CARTESIAN_POINT('',(2.44948963100119,2.5,82.574483440036));
#1190=CARTESIAN_POINT('',(-2.44948963100119,2.5,76.574483440036));
#1191=CARTESIAN_POINT('',(-2.44948963100119,2.5,82.574483440036));
#1192=CARTESIAN_POINT('',(-3.4999999217689,-4.28626370121027E-16,76.574483440036));
#1193=CARTESIAN_POINT('Origin',(0.,0.,76.574483440036));
#1194=CARTESIAN_POINT('',(-3.4999999217689,-4.28626370121027E-16,71.574483440036));
#1195=CARTESIAN_POINT('',(-3.4999999217689,-4.28626370121027E-16,82.574483440036));
#1196=CARTESIAN_POINT('Origin',(0.,0.,71.574483440036));
#1197=CARTESIAN_POINT('',(-2.44948963100119,-2.5,76.574483440036));
#1198=CARTESIAN_POINT('Origin',(0.,0.,76.574483440036));
#1199=CARTESIAN_POINT('',(-2.44948963100119,-2.5,82.574483440036));
#1200=CARTESIAN_POINT('Origin',(0.,5.55111512312578E-16,91.574483440036));
#1201=CARTESIAN_POINT('',(4.,2.5,91.574483440036));
#1202=CARTESIAN_POINT('',(1.22474481550059,2.5,91.574483440036));
#1203=CARTESIAN_POINT('',(4.,3.5,91.574483440036));
#1204=CARTESIAN_POINT('',(4.,4.,91.574483440036));
#1205=CARTESIAN_POINT('',(3.5,4.,91.574483440036));
#1206=CARTESIAN_POINT('',(3.75,3.75,91.574483440036));
#1207=CARTESIAN_POINT('',(-3.5,4.,91.574483440036));
#1208=CARTESIAN_POINT('',(-4.,4.,91.574483440036));
#1209=CARTESIAN_POINT('',(-4.,3.5,91.574483440036));
#1210=CARTESIAN_POINT('',(-3.75,3.75,91.574483440036));
#1211=CARTESIAN_POINT('',(-4.,2.5,91.574483440036));
#1212=CARTESIAN_POINT('',(-4.,-4.,91.574483440036));
#1213=CARTESIAN_POINT('',(-2.375,2.5,91.574483440036));
#1214=CARTESIAN_POINT('Ctrl Pts',(6.2043955277391,-5.55111512312578E-16,
93.0771181106319));
#1215=CARTESIAN_POINT('Ctrl Pts',(6.2043955277391,0.928133921836633,93.0771181106319));
#1216=CARTESIAN_POINT('Ctrl Pts',(5.78165463344338,2.78336694699425,93.0771181106319));
#1217=CARTESIAN_POINT('Ctrl Pts',(3.99919423935861,5.01735076035315,93.0771181106319));
#1218=CARTESIAN_POINT('Ctrl Pts',(1.42981031957638,6.25400934350526,93.0771181106319));
#1219=CARTESIAN_POINT('Ctrl Pts',(-1.75045174824058,6.25913426228467,93.0771181106319));
#1220=CARTESIAN_POINT('Ctrl Pts',(-4.26120322516686,4.80369157341193,93.0771181106319));
#1221=CARTESIAN_POINT('Ctrl Pts',(-6.3984368106831,1.69742360959315,93.0771181106319));
#1222=CARTESIAN_POINT('Ctrl Pts',(-6.39145296252532,-2.0392093432374,93.0771181106319));
#1223=CARTESIAN_POINT('Ctrl Pts',(-3.99335245829812,-5.01676011044174,93.0771181106319));
#1224=CARTESIAN_POINT('Ctrl Pts',(-1.43135736552698,-6.25527512284059,93.0771181106319));
#1225=CARTESIAN_POINT('Ctrl Pts',(1.42915139460874,-6.2554059126317,93.0771181106319));
#1226=CARTESIAN_POINT('Ctrl Pts',(4.00001091934374,-5.01715415306242,93.0771181106319));
#1227=CARTESIAN_POINT('Ctrl Pts',(5.78136333380588,-2.78387013068077,93.0771181106319));
#1228=CARTESIAN_POINT('Ctrl Pts',(6.2043955277391,-0.928133921836633,93.0771181106319));
#1229=CARTESIAN_POINT('Ctrl Pts',(6.2043955277391,4.16333634234434E-16,
93.0771181106319));
#1230=CARTESIAN_POINT('Ctrl Pts',(6.20370808643047,-5.55362386729741E-16,
93.2075768795395));
#1231=CARTESIAN_POINT('Ctrl Pts',(6.20370808643047,0.928186095517321,93.2075768795395));
#1232=CARTESIAN_POINT('Ctrl Pts',(5.78116920582659,2.78312544072811,93.2075768795395));
#1233=CARTESIAN_POINT('Ctrl Pts',(3.99888716291525,5.01701581138555,93.2075768795394));
#1234=CARTESIAN_POINT('Ctrl Pts',(1.42977078517467,6.25349988861218,93.2075768795395));
#1235=CARTESIAN_POINT('Ctrl Pts',(-1.75034068406303,6.25868942665659,93.2075768795394));
#1236=CARTESIAN_POINT('Ctrl Pts',(-4.26089814572531,4.80329444568034,93.2075768795394));
#1237=CARTESIAN_POINT('Ctrl Pts',(-6.39804342821555,1.69721504467554,93.2075768795395));
#1238=CARTESIAN_POINT('Ctrl Pts',(-6.39101979084931,-2.03892159598081,93.2075768795395));
#1239=CARTESIAN_POINT('Ctrl Pts',(-3.99301071020851,-5.01643864635163,93.2075768795395));
#1240=CARTESIAN_POINT('Ctrl Pts',(-1.43125416448069,-6.25483004647701,93.2075768795394));
#1241=CARTESIAN_POINT('Ctrl Pts',(1.42896747585085,-6.25493665506391,93.2075768795395));
#1242=CARTESIAN_POINT('Ctrl Pts',(3.99976050535185,-5.01676775812199,93.2075768795394));
#1243=CARTESIAN_POINT('Ctrl Pts',(5.78084441417682,-2.78364249414472,93.2075768795395));
#1244=CARTESIAN_POINT('Ctrl Pts',(6.20370808643047,-0.928186095517321,93.2075768795395));
#1245=CARTESIAN_POINT('Ctrl Pts',(6.20370808643047,4.16250009428713E-16,
93.2075768795395));
#1246=CARTESIAN_POINT('Ctrl Pts',(6.09462942463515,-4.96070099259328E-16,
93.4667720805373));
#1247=CARTESIAN_POINT('Ctrl Pts',(6.09462942463515,0.911654715990285,93.4667720805373));
#1248=CARTESIAN_POINT('Ctrl Pts',(5.67930849014581,2.73409909859236,93.4667720805373));
#1249=CARTESIAN_POINT('Ctrl Pts',(3.9283900754944,4.92850139750696,93.4667720805373));
#1250=CARTESIAN_POINT('Ctrl Pts',(1.40446936354038,6.14329568830168,93.4667720805373));
#1251=CARTESIAN_POINT('Ctrl Pts',(-1.71945180693108,6.14830514019464,93.4667720805373));
#1252=CARTESIAN_POINT('Ctrl Pts',(-4.18575188197669,4.71865485775848,93.4667720805373));
#1253=CARTESIAN_POINT('Ctrl Pts',(-6.28511774872525,1.66740115094085,93.4667720805372));
#1254=CARTESIAN_POINT('Ctrl Pts',(-6.2782728874997,-2.00315584125282,93.4667720805373));
#1255=CARTESIAN_POINT('Ctrl Pts',(-3.92266508132933,-4.92791609214605,93.4667720805373));
#1256=CARTESIAN_POINT('Ctrl Pts',(-1.40601319457372,-6.14451452960725,93.4667720805373));
#1257=CARTESIAN_POINT('Ctrl Pts',(1.4038770506357,-6.14465219902829,93.4667720805373));
#1258=CARTESIAN_POINT('Ctrl Pts',(3.92917071705216,-4.92832784793058,93.4667720805373));
#1259=CARTESIAN_POINT('Ctrl Pts',(5.67903509742003,-2.73458808257767,93.4667720805373));
#1260=CARTESIAN_POINT('Ctrl Pts',(6.09462942463515,-0.911654715990284,93.4667720805373));
#1261=CARTESIAN_POINT('Ctrl Pts',(6.09462942463515,4.45979407862952E-16,
93.4667720805373));
#1262=CARTESIAN_POINT('Ctrl Pts',(5.83486304937794,-3.52397616447063E-16,
93.574483440036));
#1263=CARTESIAN_POINT('Ctrl Pts',(5.83486304937794,0.87288992936182,93.574483440036));
#1264=CARTESIAN_POINT('Ctrl Pts',(5.43733601701119,2.61760550760799,93.574483440036));
#1265=CARTESIAN_POINT('Ctrl Pts',(3.76103420485298,4.71856897397009,93.574483440036));
#1266=CARTESIAN_POINT('Ctrl Pts',(1.34467832257047,5.88156385816993,93.574483440036));
#1267=CARTESIAN_POINT('Ctrl Pts',(-1.6462141783775,5.88639845279193,93.574483440036));
#1268=CARTESIAN_POINT('Ctrl Pts',(-4.00744509028853,4.51761563969257,93.574483440036));
#1269=CARTESIAN_POINT('Ctrl Pts',(-6.01741947505594,1.59632073174665,93.574483440036));
#1270=CARTESIAN_POINT('Ctrl Pts',(-6.01084230252586,-1.91774032733568,93.574483440036));
#1271=CARTESIAN_POINT('Ctrl Pts',(-3.75553227800588,-4.71801657343026,93.574483440036));
#1272=CARTESIAN_POINT('Ctrl Pts',(-1.34611869898,-5.8827690099588,93.574483440036));
#1273=CARTESIAN_POINT('Ctrl Pts',(1.34402559095262,-5.88288648055434,93.5744834400361));
#1274=CARTESIAN_POINT('Ctrl Pts',(3.76181522871705,-4.7183723006609,93.574483440036));
#1275=CARTESIAN_POINT('Ctrl Pts',(5.43705439670625,-2.61808190795427,93.574483440036));
#1276=CARTESIAN_POINT('Ctrl Pts',(5.83486304937794,-0.872889929361821,93.574483440036));
#1277=CARTESIAN_POINT('Ctrl Pts',(5.83486304937794,5.17850608802047E-16,
93.574483440036));
#1278=CARTESIAN_POINT('Ctrl Pts',(5.70440246927644,-2.79979773887267E-16,
93.574483440036));
#1279=CARTESIAN_POINT('Ctrl Pts',(5.70440246927644,0.853338477837732,93.574483440036));
#1280=CARTESIAN_POINT('Ctrl Pts',(5.31572895700546,2.55906400782321,93.574483440036));
#1281=CARTESIAN_POINT('Ctrl Pts',(3.67691153668704,4.61301797066668,93.574483440036));
#1282=CARTESIAN_POINT('Ctrl Pts',(1.31458632531131,5.75001806098096,93.574483440036));
#1283=CARTESIAN_POINT('Ctrl Pts',(-1.60938825230755,5.7547299783965,93.574483440036));
#1284=CARTESIAN_POINT('Ctrl Pts',(-3.91780602817053,4.41657691720354,93.574483440036));
#1285=CARTESIAN_POINT('Ctrl Pts',(-5.88280656498867,1.56063348744946,93.574483440036));
#1286=CARTESIAN_POINT('Ctrl Pts',(-5.8763855235676,-1.87487576524218,93.574483440036));
#1287=CARTESIAN_POINT('Ctrl Pts',(-3.67154052670589,-4.61247491940601,93.574483440036));
#1288=CARTESIAN_POINT('Ctrl Pts',(-1.31600869961049,-5.75118183507204,93.574483440036));
#1289=CARTESIAN_POINT('Ctrl Pts',(1.31398050107014,-5.75130208491814,93.5744834400361));
#1290=CARTESIAN_POINT('Ctrl Pts',(3.67766240295643,-4.61283720734982,93.574483440036));
#1291=CARTESIAN_POINT('Ctrl Pts',(5.31546113230538,-2.55952664149171,93.574483440036));
#1292=CARTESIAN_POINT('Ctrl Pts',(5.70440246927644,-0.853338477837731,93.574483440036));
#1293=CARTESIAN_POINT('Ctrl Pts',(5.70440246927644,5.54059750405762E-16,
93.574483440036));
#1294=CARTESIAN_POINT('',(5.70440246927644,5.55111512312578E-16,93.574483440036));
#1295=CARTESIAN_POINT('',(6.2043955277391,2.08166817117217E-16,93.0771181106319));
#1296=CARTESIAN_POINT('Origin',(5.70440246927644,-2.77555756156289E-16,
93.074483440036));
#1297=CARTESIAN_POINT('Ctrl Pts',(6.2043955277391,-5.55111512312578E-16,
93.0771181106319));
#1298=CARTESIAN_POINT('Ctrl Pts',(6.2043955277391,0.928133921836633,93.0771181106319));
#1299=CARTESIAN_POINT('Ctrl Pts',(5.78165463344338,2.78336694699425,93.0771181106319));
#1300=CARTESIAN_POINT('Ctrl Pts',(3.99919423935861,5.01735076035315,93.0771181106319));
#1301=CARTESIAN_POINT('Ctrl Pts',(1.42981031957638,6.25400934350526,93.0771181106319));
#1302=CARTESIAN_POINT('Ctrl Pts',(-1.75045174824058,6.25913426228467,93.0771181106319));
#1303=CARTESIAN_POINT('Ctrl Pts',(-4.26120322516686,4.80369157341193,93.0771181106319));
#1304=CARTESIAN_POINT('Ctrl Pts',(-6.3984368106831,1.69742360959315,93.0771181106319));
#1305=CARTESIAN_POINT('Ctrl Pts',(-6.39145296252532,-2.0392093432374,93.0771181106319));
#1306=CARTESIAN_POINT('Ctrl Pts',(-3.99335245829812,-5.01676011044174,93.0771181106319));
#1307=CARTESIAN_POINT('Ctrl Pts',(-1.43135736552698,-6.25527512284059,93.0771181106319));
#1308=CARTESIAN_POINT('Ctrl Pts',(1.42915139460874,-6.2554059126317,93.0771181106319));
#1309=CARTESIAN_POINT('Ctrl Pts',(4.00001091934374,-5.01715415306242,93.0771181106319));
#1310=CARTESIAN_POINT('Ctrl Pts',(5.78136333380588,-2.78387013068077,93.0771181106319));
#1311=CARTESIAN_POINT('Ctrl Pts',(6.2043955277391,-0.928133921836633,93.0771181106319));
#1312=CARTESIAN_POINT('Ctrl Pts',(6.2043955277391,4.16333634234434E-16,
93.0771181106319));
#1313=CARTESIAN_POINT('Ctrl Pts',(5.70440246927644,5.54059750405762E-16,
93.574483440036));
#1314=CARTESIAN_POINT('Ctrl Pts',(5.70440246927644,-0.853338477837731,93.574483440036));
#1315=CARTESIAN_POINT('Ctrl Pts',(5.31546113230538,-2.55952664149171,93.574483440036));
#1316=CARTESIAN_POINT('Ctrl Pts',(3.67766240295643,-4.61283720734982,93.574483440036));
#1317=CARTESIAN_POINT('Ctrl Pts',(1.31398050107014,-5.75130208491814,93.5744834400361));
#1318=CARTESIAN_POINT('Ctrl Pts',(-1.31600869961049,-5.75118183507204,93.574483440036));
#1319=CARTESIAN_POINT('Ctrl Pts',(-3.67154052670589,-4.61247491940601,93.574483440036));
#1320=CARTESIAN_POINT('Ctrl Pts',(-5.8763855235676,-1.87487576524218,93.574483440036));
#1321=CARTESIAN_POINT('Ctrl Pts',(-5.88280656498867,1.56063348744946,93.574483440036));
#1322=CARTESIAN_POINT('Ctrl Pts',(-3.91780602817053,4.41657691720354,93.574483440036));
#1323=CARTESIAN_POINT('Ctrl Pts',(-1.60938825230755,5.7547299783965,93.574483440036));
#1324=CARTESIAN_POINT('Ctrl Pts',(1.31458632531131,5.75001806098096,93.574483440036));
#1325=CARTESIAN_POINT('Ctrl Pts',(3.67691153668704,4.61301797066668,93.574483440036));
#1326=CARTESIAN_POINT('Ctrl Pts',(5.31572895700546,2.55906400782321,93.574483440036));
#1327=CARTESIAN_POINT('Ctrl Pts',(5.70440246927644,0.853338477837732,93.574483440036));
#1328=CARTESIAN_POINT('Ctrl Pts',(5.70440246927644,-2.79979773887267E-16,
93.574483440036));
#1329=CARTESIAN_POINT('Ctrl Pts',(6.20172273654135,0.,93.574483440036));
#1330=CARTESIAN_POINT('Ctrl Pts',(6.20172273654135,6.20172273654135,93.574483440036));
#1331=CARTESIAN_POINT('Ctrl Pts',(0.,6.20172273654135,93.574483440036));
#1332=CARTESIAN_POINT('Ctrl Pts',(-6.20172273654135,6.20172273654135,93.574483440036));
#1333=CARTESIAN_POINT('Ctrl Pts',(-6.20172273654135,0.,93.574483440036));
#1334=CARTESIAN_POINT('Ctrl Pts',(-6.20172273654135,-6.20172273654135,93.574483440036));
#1335=CARTESIAN_POINT('Ctrl Pts',(0.,-6.20172273654135,93.574483440036));
#1336=CARTESIAN_POINT('Ctrl Pts',(6.20172273654135,-6.20172273654135,93.574483440036));
#1337=CARTESIAN_POINT('Ctrl Pts',(6.20172273654135,0.,93.574483440036));
#1338=CARTESIAN_POINT('Ctrl Pts',(6.20308241366877,0.,93.326348534382));
#1339=CARTESIAN_POINT('Ctrl Pts',(6.20308241366876,6.20308241366876,93.326348534382));
#1340=CARTESIAN_POINT('Ctrl Pts',(0.,6.20308241366877,93.326348534382));
#1341=CARTESIAN_POINT('Ctrl Pts',(-6.20308241366876,6.20308241366876,93.326348534382));
#1342=CARTESIAN_POINT('Ctrl Pts',(-6.20308241366877,0.,93.326348534382));
#1343=CARTESIAN_POINT('Ctrl Pts',(-6.20308241366876,-6.20308241366876,93.326348534382));
#1344=CARTESIAN_POINT('Ctrl Pts',(0.,-6.20308241366877,93.326348534382));
#1345=CARTESIAN_POINT('Ctrl Pts',(6.20308241366876,-6.20308241366876,93.326348534382));
#1346=CARTESIAN_POINT('Ctrl Pts',(6.20308241366877,0.,93.326348534382));
#1347=CARTESIAN_POINT('Ctrl Pts',(6.21468101979876,0.,91.157172420404));
#1348=CARTESIAN_POINT('Ctrl Pts',(6.21468101979876,6.21468101979876,91.157172420404));
#1349=CARTESIAN_POINT('Ctrl Pts',(0.,6.21468101979876,91.157172420404));
#1350=CARTESIAN_POINT('Ctrl Pts',(-6.21468101979876,6.21468101979876,91.157172420404));
#1351=CARTESIAN_POINT('Ctrl Pts',(-6.21468101979876,0.,91.157172420404));
#1352=CARTESIAN_POINT('Ctrl Pts',(-6.21468101979876,-6.21468101979876,91.157172420404));
#1353=CARTESIAN_POINT('Ctrl Pts',(0.,-6.21468101979876,91.157172420404));
#1354=CARTESIAN_POINT('Ctrl Pts',(6.21468101979876,-6.21468101979876,91.157172420404));
#1355=CARTESIAN_POINT('Ctrl Pts',(6.21468101979876,0.,91.157172420404));
#1356=CARTESIAN_POINT('Ctrl Pts',(6.23296106859626,0.,86.8674477335788));
#1357=CARTESIAN_POINT('Ctrl Pts',(6.23296106859626,6.23296106859626,86.8674477335788));
#1358=CARTESIAN_POINT('Ctrl Pts',(0.,6.23296106859626,86.8674477335788));
#1359=CARTESIAN_POINT('Ctrl Pts',(-6.23296106859626,6.23296106859626,86.8674477335788));
#1360=CARTESIAN_POINT('Ctrl Pts',(-6.23296106859626,0.,86.8674477335788));
#1361=CARTESIAN_POINT('Ctrl Pts',(-6.23296106859626,-6.23296106859626,86.8674477335788));
#1362=CARTESIAN_POINT('Ctrl Pts',(0.,-6.23296106859626,86.8674477335788));
#1363=CARTESIAN_POINT('Ctrl Pts',(6.23296106859626,-6.23296106859626,86.8674477335788));
#1364=CARTESIAN_POINT('Ctrl Pts',(6.23296106859626,0.,86.8674477335788));
#1365=CARTESIAN_POINT('Ctrl Pts',(6.24996789537504,0.,80.1186260195134));
#1366=CARTESIAN_POINT('Ctrl Pts',(6.24996789537504,6.24996789537504,80.1186260195134));
#1367=CARTESIAN_POINT('Ctrl Pts',(0.,6.24996789537504,80.1186260195134));
#1368=CARTESIAN_POINT('Ctrl Pts',(-6.24996789537504,6.24996789537504,80.1186260195134));
#1369=CARTESIAN_POINT('Ctrl Pts',(-6.24996789537504,0.,80.1186260195134));
#1370=CARTESIAN_POINT('Ctrl Pts',(-6.24996789537504,-6.24996789537504,80.1186260195134));
#1371=CARTESIAN_POINT('Ctrl Pts',(0.,-6.24996789537504,80.1186260195134));
#1372=CARTESIAN_POINT('Ctrl Pts',(6.24996789537504,-6.24996789537504,80.1186260195134));
#1373=CARTESIAN_POINT('Ctrl Pts',(6.24996789537504,0.,80.1186260195134));
#1374=CARTESIAN_POINT('Ctrl Pts',(6.25381131596884,0.,70.7871668645107));
#1375=CARTESIAN_POINT('Ctrl Pts',(6.25381131596884,6.25381131596884,70.7871668645107));
#1376=CARTESIAN_POINT('Ctrl Pts',(0.,6.25381131596884,70.7871668645107));
#1377=CARTESIAN_POINT('Ctrl Pts',(-6.25381131596884,6.25381131596884,70.7871668645107));
#1378=CARTESIAN_POINT('Ctrl Pts',(-6.25381131596884,0.,70.7871668645107));
#1379=CARTESIAN_POINT('Ctrl Pts',(-6.25381131596884,-6.25381131596884,70.7871668645107));
#1380=CARTESIAN_POINT('Ctrl Pts',(0.,-6.25381131596884,70.7871668645107));
#1381=CARTESIAN_POINT('Ctrl Pts',(6.25381131596884,-6.25381131596884,70.7871668645107));
#1382=CARTESIAN_POINT('Ctrl Pts',(6.25381131596884,0.,70.7871668645107));
#1383=CARTESIAN_POINT('Ctrl Pts',(6.23206092967107,0.,59.7809340132288));
#1384=CARTESIAN_POINT('Ctrl Pts',(6.23206092967107,6.23206092967107,59.7809340132288));
#1385=CARTESIAN_POINT('Ctrl Pts',(0.,6.23206092967107,59.7809340132288));
#1386=CARTESIAN_POINT('Ctrl Pts',(-6.23206092967107,6.23206092967107,59.7809340132288));
#1387=CARTESIAN_POINT('Ctrl Pts',(-6.23206092967107,0.,59.7809340132288));
#1388=CARTESIAN_POINT('Ctrl Pts',(-6.23206092967107,-6.23206092967107,59.7809340132288));
#1389=CARTESIAN_POINT('Ctrl Pts',(0.,-6.23206092967107,59.7809340132288));
#1390=CARTESIAN_POINT('Ctrl Pts',(6.23206092967107,-6.23206092967107,59.7809340132288));
#1391=CARTESIAN_POINT('Ctrl Pts',(6.23206092967107,0.,59.7809340132288));
#1392=CARTESIAN_POINT('Ctrl Pts',(6.18878631986898,0.,49.8905948974112));
#1393=CARTESIAN_POINT('Ctrl Pts',(6.18878631986898,6.18878631986898,49.8905948974112));
#1394=CARTESIAN_POINT('Ctrl Pts',(0.,6.18878631986898,49.8905948974112));
#1395=CARTESIAN_POINT('Ctrl Pts',(-6.18878631986898,6.18878631986898,49.8905948974112));
#1396=CARTESIAN_POINT('Ctrl Pts',(-6.18878631986898,0.,49.8905948974112));
#1397=CARTESIAN_POINT('Ctrl Pts',(-6.18878631986898,-6.18878631986898,49.8905948974112));
#1398=CARTESIAN_POINT('Ctrl Pts',(0.,-6.18878631986898,49.8905948974112));
#1399=CARTESIAN_POINT('Ctrl Pts',(6.18878631986898,-6.18878631986898,49.8905948974112));
#1400=CARTESIAN_POINT('Ctrl Pts',(6.18878631986898,0.,49.8905948974112));
#1401=CARTESIAN_POINT('Ctrl Pts',(6.13041101165813,0.,41.7155029348582));
#1402=CARTESIAN_POINT('Ctrl Pts',(6.13041101165813,6.13041101165813,41.7155029348582));
#1403=CARTESIAN_POINT('Ctrl Pts',(0.,6.13041101165813,41.7155029348582));
#1404=CARTESIAN_POINT('Ctrl Pts',(-6.13041101165813,6.13041101165813,41.7155029348582));
#1405=CARTESIAN_POINT('Ctrl Pts',(-6.13041101165813,0.,41.7155029348582));
#1406=CARTESIAN_POINT('Ctrl Pts',(-6.13041101165813,-6.13041101165813,41.7155029348582));
#1407=CARTESIAN_POINT('Ctrl Pts',(0.,-6.13041101165813,41.7155029348582));
#1408=CARTESIAN_POINT('Ctrl Pts',(6.13041101165813,-6.13041101165813,41.7155029348582));
#1409=CARTESIAN_POINT('Ctrl Pts',(6.13041101165813,0.,41.7155029348582));
#1410=CARTESIAN_POINT('Ctrl Pts',(6.06925300230789,0.,35.4638482322501));
#1411=CARTESIAN_POINT('Ctrl Pts',(6.06925300230789,6.06925300230789,35.4638482322501));
#1412=CARTESIAN_POINT('Ctrl Pts',(0.,6.06925300230789,35.4638482322501));
#1413=CARTESIAN_POINT('Ctrl Pts',(-6.06925300230789,6.06925300230789,35.4638482322501));
#1414=CARTESIAN_POINT('Ctrl Pts',(-6.06925300230789,0.,35.4638482322501));
#1415=CARTESIAN_POINT('Ctrl Pts',(-6.06925300230789,-6.06925300230789,35.4638482322501));
#1416=CARTESIAN_POINT('Ctrl Pts',(0.,-6.06925300230789,35.4638482322501));
#1417=CARTESIAN_POINT('Ctrl Pts',(6.06925300230789,-6.06925300230789,35.4638482322501));
#1418=CARTESIAN_POINT('Ctrl Pts',(6.06925300230789,0.,35.4638482322501));
#1419=CARTESIAN_POINT('Ctrl Pts',(6.01569623726536,0.,30.9249425025522));
#1420=CARTESIAN_POINT('Ctrl Pts',(6.01569623726536,6.01569623726536,30.9249425025522));
#1421=CARTESIAN_POINT('Ctrl Pts',(0.,6.01569623726536,30.9249425025522));
#1422=CARTESIAN_POINT('Ctrl Pts',(-6.01569623726536,6.01569623726536,30.9249425025522));
#1423=CARTESIAN_POINT('Ctrl Pts',(-6.01569623726536,0.,30.9249425025522));
#1424=CARTESIAN_POINT('Ctrl Pts',(-6.01569623726536,-6.01569623726536,30.9249425025522));
#1425=CARTESIAN_POINT('Ctrl Pts',(0.,-6.01569623726536,30.9249425025522));
#1426=CARTESIAN_POINT('Ctrl Pts',(6.01569623726536,-6.01569623726536,30.9249425025522));
#1427=CARTESIAN_POINT('Ctrl Pts',(6.01569623726536,0.,30.9249425025522));
#1428=CARTESIAN_POINT('Ctrl Pts',(5.9988527528153,0.,27.1008516066342));
#1429=CARTESIAN_POINT('Ctrl Pts',(5.9988527528153,5.9988527528153,27.1008516066342));
#1430=CARTESIAN_POINT('Ctrl Pts',(0.,5.9988527528153,27.1008516066342));
#1431=CARTESIAN_POINT('Ctrl Pts',(-5.9988527528153,5.9988527528153,27.1008516066342));
#1432=CARTESIAN_POINT('Ctrl Pts',(-5.9988527528153,0.,27.1008516066342));
#1433=CARTESIAN_POINT('Ctrl Pts',(-5.9988527528153,-5.9988527528153,27.1008516066342));
#1434=CARTESIAN_POINT('Ctrl Pts',(0.,-5.9988527528153,27.1008516066342));
#1435=CARTESIAN_POINT('Ctrl Pts',(5.9988527528153,-5.9988527528153,27.1008516066342));
#1436=CARTESIAN_POINT('Ctrl Pts',(5.9988527528153,0.,27.1008516066342));
#1437=CARTESIAN_POINT('Ctrl Pts',(6.02022973805298,0.,22.6043619148474));
#1438=CARTESIAN_POINT('Ctrl Pts',(6.02022973805298,6.02022973805298,22.6043619148474));
#1439=CARTESIAN_POINT('Ctrl Pts',(0.,6.02022973805298,22.6043619148474));
#1440=CARTESIAN_POINT('Ctrl Pts',(-6.02022973805298,6.02022973805298,22.6043619148474));
#1441=CARTESIAN_POINT('Ctrl Pts',(-6.02022973805298,0.,22.6043619148474));
#1442=CARTESIAN_POINT('Ctrl Pts',(-6.02022973805298,-6.02022973805298,22.6043619148474));
#1443=CARTESIAN_POINT('Ctrl Pts',(0.,-6.02022973805298,22.6043619148474));
#1444=CARTESIAN_POINT('Ctrl Pts',(6.02022973805298,-6.02022973805298,22.6043619148474));
#1445=CARTESIAN_POINT('Ctrl Pts',(6.02022973805298,0.,22.6043619148474));
#1446=CARTESIAN_POINT('Ctrl Pts',(5.98530957196617,0.,17.6804435891733));
#1447=CARTESIAN_POINT('Ctrl Pts',(5.98530957196616,5.98530957196616,17.6804435891733));
#1448=CARTESIAN_POINT('Ctrl Pts',(0.,5.98530957196617,17.6804435891733));
#1449=CARTESIAN_POINT('Ctrl Pts',(-5.98530957196616,5.98530957196616,17.6804435891733));
#1450=CARTESIAN_POINT('Ctrl Pts',(-5.98530957196617,0.,17.6804435891733));
#1451=CARTESIAN_POINT('Ctrl Pts',(-5.98530957196616,-5.98530957196616,17.6804435891733));
#1452=CARTESIAN_POINT('Ctrl Pts',(0.,-5.98530957196617,17.6804435891733));
#1453=CARTESIAN_POINT('Ctrl Pts',(5.98530957196616,-5.98530957196616,17.6804435891733));
#1454=CARTESIAN_POINT('Ctrl Pts',(5.98530957196617,0.,17.6804435891733));
#1455=CARTESIAN_POINT('Ctrl Pts',(5.81632743356932,0.,13.0196550489205));
#1456=CARTESIAN_POINT('Ctrl Pts',(5.81632743356932,5.81632743356932,13.0196550489205));
#1457=CARTESIAN_POINT('Ctrl Pts',(0.,5.81632743356932,13.0196550489205));
#1458=CARTESIAN_POINT('Ctrl Pts',(-5.81632743356932,5.81632743356932,13.0196550489205));
#1459=CARTESIAN_POINT('Ctrl Pts',(-5.81632743356932,0.,13.0196550489205));
#1460=CARTESIAN_POINT('Ctrl Pts',(-5.81632743356932,-5.81632743356932,13.0196550489205));
#1461=CARTESIAN_POINT('Ctrl Pts',(0.,-5.81632743356932,13.0196550489205));
#1462=CARTESIAN_POINT('Ctrl Pts',(5.81632743356932,-5.81632743356932,13.0196550489205));
#1463=CARTESIAN_POINT('Ctrl Pts',(5.81632743356932,0.,13.0196550489205));
#1464=CARTESIAN_POINT('Ctrl Pts',(5.6026955065032,0.,9.37775253991135));
#1465=CARTESIAN_POINT('Ctrl Pts',(5.6026955065032,5.6026955065032,9.37775253991135));
#1466=CARTESIAN_POINT('Ctrl Pts',(0.,5.6026955065032,9.37775253991135));
#1467=CARTESIAN_POINT('Ctrl Pts',(-5.6026955065032,5.6026955065032,9.37775253991135));
#1468=CARTESIAN_POINT('Ctrl Pts',(-5.6026955065032,0.,9.37775253991135));
#1469=CARTESIAN_POINT('Ctrl Pts',(-5.6026955065032,-5.6026955065032,9.37775253991135));
#1470=CARTESIAN_POINT('Ctrl Pts',(0.,-5.6026955065032,9.37775253991135));
#1471=CARTESIAN_POINT('Ctrl Pts',(5.6026955065032,-5.6026955065032,9.37775253991135));
#1472=CARTESIAN_POINT('Ctrl Pts',(5.6026955065032,0.,9.37775253991135));
#1473=CARTESIAN_POINT('Ctrl Pts',(5.53803543830566,0.,7.15120566000658));
#1474=CARTESIAN_POINT('Ctrl Pts',(5.53803543830566,5.53803543830566,7.15120566000658));
#1475=CARTESIAN_POINT('Ctrl Pts',(0.,5.53803543830566,7.15120566000659));
#1476=CARTESIAN_POINT('Ctrl Pts',(-5.53803543830566,5.53803543830566,7.15120566000659));
#1477=CARTESIAN_POINT('Ctrl Pts',(-5.53803543830566,0.,7.15120566000659));
#1478=CARTESIAN_POINT('Ctrl Pts',(-5.53803543830566,-5.53803543830566,7.15120566000659));
#1479=CARTESIAN_POINT('Ctrl Pts',(0.,-5.53803543830566,7.15120566000659));
#1480=CARTESIAN_POINT('Ctrl Pts',(5.53803543830566,-5.53803543830566,7.15120566000658));
#1481=CARTESIAN_POINT('Ctrl Pts',(5.53803543830566,0.,7.15120566000658));
#1482=CARTESIAN_POINT('Ctrl Pts',(6.45921445529637,0.,5.25756343727469));
#1483=CARTESIAN_POINT('Ctrl Pts',(6.45921445529637,6.45921445529637,5.25756343727469));
#1484=CARTESIAN_POINT('Ctrl Pts',(0.,6.45921445529637,5.25756343727469));
#1485=CARTESIAN_POINT('Ctrl Pts',(-6.45921445529637,6.45921445529637,5.25756343727469));
#1486=CARTESIAN_POINT('Ctrl Pts',(-6.45921445529637,0.,5.25756343727469));
#1487=CARTESIAN_POINT('Ctrl Pts',(-6.45921445529637,-6.45921445529637,5.25756343727469));
#1488=CARTESIAN_POINT('Ctrl Pts',(0.,-6.45921445529637,5.25756343727469));
#1489=CARTESIAN_POINT('Ctrl Pts',(6.45921445529637,-6.45921445529637,5.25756343727469));
#1490=CARTESIAN_POINT('Ctrl Pts',(6.45921445529637,0.,5.25756343727469));
#1491=CARTESIAN_POINT('Ctrl Pts',(7.68397658059867,0.,3.41974703782845));
#1492=CARTESIAN_POINT('Ctrl Pts',(7.68397658059867,7.68397658059867,3.41974703782845));
#1493=CARTESIAN_POINT('Ctrl Pts',(0.,7.68397658059867,3.41974703782845));
#1494=CARTESIAN_POINT('Ctrl Pts',(-7.68397658059867,7.68397658059867,3.41974703782845));
#1495=CARTESIAN_POINT('Ctrl Pts',(-7.68397658059867,0.,3.41974703782845));
#1496=CARTESIAN_POINT('Ctrl Pts',(-7.68397658059867,-7.68397658059867,3.41974703782845));
#1497=CARTESIAN_POINT('Ctrl Pts',(0.,-7.68397658059867,3.41974703782845));
#1498=CARTESIAN_POINT('Ctrl Pts',(7.68397658059867,-7.68397658059867,3.41974703782845));
#1499=CARTESIAN_POINT('Ctrl Pts',(7.68397658059867,0.,3.41974703782845));
#1500=CARTESIAN_POINT('Ctrl Pts',(8.0260862562799,0.,2.26379898678947));
#1501=CARTESIAN_POINT('Ctrl Pts',(8.0260862562799,8.0260862562799,2.26379898678947));
#1502=CARTESIAN_POINT('Ctrl Pts',(0.,8.0260862562799,2.26379898678947));
#1503=CARTESIAN_POINT('Ctrl Pts',(-8.0260862562799,8.0260862562799,2.26379898678947));
#1504=CARTESIAN_POINT('Ctrl Pts',(-8.0260862562799,0.,2.26379898678947));
#1505=CARTESIAN_POINT('Ctrl Pts',(-8.0260862562799,-8.0260862562799,2.26379898678947));
#1506=CARTESIAN_POINT('Ctrl Pts',(0.,-8.0260862562799,2.26379898678947));
#1507=CARTESIAN_POINT('Ctrl Pts',(8.0260862562799,-8.0260862562799,2.26379898678947));
#1508=CARTESIAN_POINT('Ctrl Pts',(8.0260862562799,0.,2.26379898678947));
#1509=CARTESIAN_POINT('Ctrl Pts',(8.00359161440145,0.,1.75539642332828));
#1510=CARTESIAN_POINT('Ctrl Pts',(8.00359161440145,8.00359161440145,1.75539642332828));
#1511=CARTESIAN_POINT('Ctrl Pts',(0.,8.00359161440145,1.75539642332827));
#1512=CARTESIAN_POINT('Ctrl Pts',(-8.00359161440145,8.00359161440145,1.75539642332827));
#1513=CARTESIAN_POINT('Ctrl Pts',(-8.00359161440145,0.,1.75539642332827));
#1514=CARTESIAN_POINT('Ctrl Pts',(-8.00359161440145,-8.00359161440145,1.75539642332827));
#1515=CARTESIAN_POINT('Ctrl Pts',(0.,-8.00359161440145,1.75539642332827));
#1516=CARTESIAN_POINT('Ctrl Pts',(8.00359161440145,-8.00359161440145,1.75539642332828));
#1517=CARTESIAN_POINT('Ctrl Pts',(8.00359161440145,0.,1.75539642332828));
#1518=CARTESIAN_POINT('Ctrl Pts',(8.,0.,1.60359892230316));
#1519=CARTESIAN_POINT('Ctrl Pts',(8.,8.,1.60359892230316));
#1520=CARTESIAN_POINT('Ctrl Pts',(0.,8.,1.60359892230315));
#1521=CARTESIAN_POINT('Ctrl Pts',(-8.,8.,1.60359892230315));
#1522=CARTESIAN_POINT('Ctrl Pts',(-8.,0.,1.60359892230315));
#1523=CARTESIAN_POINT('Ctrl Pts',(-8.,-8.,1.60359892230315));
#1524=CARTESIAN_POINT('Ctrl Pts',(0.,-8.,1.60359892230315));
#1525=CARTESIAN_POINT('Ctrl Pts',(8.,-8.,1.60359892230316));
#1526=CARTESIAN_POINT('Ctrl Pts',(8.,0.,1.60359892230316));
#1527=CARTESIAN_POINT('Ctrl Pts',(8.,0.,1.57448344003601));
#1528=CARTESIAN_POINT('Ctrl Pts',(8.,8.,1.57448344003601));
#1529=CARTESIAN_POINT('Ctrl Pts',(0.,8.,1.574483440036));
#1530=CARTESIAN_POINT('Ctrl Pts',(-8.,8.,1.574483440036));
#1531=CARTESIAN_POINT('Ctrl Pts',(-8.,0.,1.574483440036));
#1532=CARTESIAN_POINT('Ctrl Pts',(-8.,-8.,1.574483440036));
#1533=CARTESIAN_POINT('Ctrl Pts',(0.,-8.,1.574483440036));
#1534=CARTESIAN_POINT('Ctrl Pts',(8.,-8.,1.57448344003601));
#1535=CARTESIAN_POINT('Ctrl Pts',(8.,0.,1.57448344003601));
#1536=CARTESIAN_POINT('',(8.,0.,1.57448344003601));
#1537=CARTESIAN_POINT('Ctrl Pts',(6.2043955277391,0.,93.0771181106319));
#1538=CARTESIAN_POINT('Ctrl Pts',(6.20518848802574,0.,92.9266345399088));
#1539=CARTESIAN_POINT('Ctrl Pts',(6.21600486957071,0.,90.8431708787706));
#1540=CARTESIAN_POINT('Ctrl Pts',(6.2335209991504,0.,86.6436249054939));
#1541=CARTESIAN_POINT('Ctrl Pts',(6.25001617754907,0.,80.0014014993411));
#1542=CARTESIAN_POINT('Ctrl Pts',(6.25381131596884,0.,70.7871668645107));
#1543=CARTESIAN_POINT('Ctrl Pts',(6.23206092967107,0.,59.7809340132288));
#1544=CARTESIAN_POINT('Ctrl Pts',(6.18878631986898,0.,49.8905948974112));
#1545=CARTESIAN_POINT('Ctrl Pts',(6.13041101165813,0.,41.7155029348582));
#1546=CARTESIAN_POINT('Ctrl Pts',(6.06925300230789,0.,35.4638482322501));
#1547=CARTESIAN_POINT('Ctrl Pts',(6.01569623726536,0.,30.9249425025522));
#1548=CARTESIAN_POINT('Ctrl Pts',(5.9988527528153,0.,27.1008516066342));
#1549=CARTESIAN_POINT('Ctrl Pts',(6.02022973805298,0.,22.6043619148474));
#1550=CARTESIAN_POINT('Ctrl Pts',(5.98530957196617,0.,17.6804435891733));
#1551=CARTESIAN_POINT('Ctrl Pts',(5.81632743356932,0.,13.0196550489205));
#1552=CARTESIAN_POINT('Ctrl Pts',(5.6026955065032,0.,9.37775253991135));
#1553=CARTESIAN_POINT('Ctrl Pts',(5.53803543830566,0.,7.15120566000658));
#1554=CARTESIAN_POINT('Ctrl Pts',(6.45921445529637,0.,5.25756343727469));
#1555=CARTESIAN_POINT('Ctrl Pts',(7.68397658059867,0.,3.41974703782845));
#1556=CARTESIAN_POINT('Ctrl Pts',(8.0260862562799,0.,2.26379898678947));
#1557=CARTESIAN_POINT('Ctrl Pts',(8.00359161440145,0.,1.75539642332828));
#1558=CARTESIAN_POINT('Ctrl Pts',(8.,0.,1.60359892230316));
#1559=CARTESIAN_POINT('Ctrl Pts',(8.,0.,1.57448344003601));
#1560=CARTESIAN_POINT('',(-8.,-9.79717439317883E-16,1.574483440036));
#1561=CARTESIAN_POINT('Origin',(0.,0.,1.574483440036));
#1562=CARTESIAN_POINT('Origin',(0.,0.,1.574483440036));
#1563=CARTESIAN_POINT('Origin',(3.4999999217689,0.,93.574483440036));
#1564=CARTESIAN_POINT('',(4.,3.5,93.574483440036));
#1565=CARTESIAN_POINT('',(4.,2.5,93.574483440036));
#1566=CARTESIAN_POINT('',(4.,2.,93.574483440036));
#1567=CARTESIAN_POINT('',(4.75,2.5,93.574483440036));
#1568=CARTESIAN_POINT('',(2.97474477638505,2.5,93.574483440036));
#1569=CARTESIAN_POINT('',(4.75,1.25,93.574483440036));
#1570=CARTESIAN_POINT('',(4.,-3.5,93.574483440036));
#1571=CARTESIAN_POINT('',(4.,2.,93.574483440036));
#1572=CARTESIAN_POINT('',(3.5,-4.,93.574483440036));
#1573=CARTESIAN_POINT('',(4.62499998044223,-2.87500001955777,93.574483440036));
#1574=CARTESIAN_POINT('',(-3.5,-4.,93.574483440036));
#1575=CARTESIAN_POINT('',(3.74999996088445,-4.,93.574483440036));
#1576=CARTESIAN_POINT('',(-4.,-3.5,93.574483440036));
#1577=CARTESIAN_POINT('',(-2.87500001955777,-4.62499998044223,93.574483440036));
#1578=CARTESIAN_POINT('',(-4.,-2.5,93.574483440036));
#1579=CARTESIAN_POINT('',(-4.,-2.,93.574483440036));
#1580=CARTESIAN_POINT('',(-4.75,-2.5,93.574483440036));
#1581=CARTESIAN_POINT('',(0.525255145383858,-2.5,93.574483440036));
#1582=CARTESIAN_POINT('',(-4.75,2.5,93.574483440036));
#1583=CARTESIAN_POINT('',(-4.75,-1.25,93.574483440036));
#1584=CARTESIAN_POINT('',(-4.,2.5,93.574483440036));
#1585=CARTESIAN_POINT('',(-0.625000039115548,2.5,93.574483440036));
#1586=CARTESIAN_POINT('',(-4.,3.5,93.574483440036));
#1587=CARTESIAN_POINT('',(-4.,-2.,93.574483440036));
#1588=CARTESIAN_POINT('',(-3.5,4.,93.574483440036));
#1589=CARTESIAN_POINT('',(-2.87500001955777,4.62499998044223,93.574483440036));
#1590=CARTESIAN_POINT('',(3.5,4.,93.574483440036));
#1591=CARTESIAN_POINT('',(-0.250000039115548,4.,93.574483440036));
#1592=CARTESIAN_POINT('',(4.62499998044223,2.87500001955778,93.574483440036));
#1593=CARTESIAN_POINT('Origin',(3.75,3.75,93.574483440036));
#1594=CARTESIAN_POINT('',(4.,3.5,93.574483440036));
#1595=CARTESIAN_POINT('',(3.5,4.,93.574483440036));
#1596=CARTESIAN_POINT('Origin',(-4.,4.,93.574483440036));
#1597=CARTESIAN_POINT('',(-3.5,4.,93.574483440036));
#1598=CARTESIAN_POINT('Origin',(-3.75,-3.75,93.574483440036));
#1599=CARTESIAN_POINT('',(-4.,-3.5,91.574483440036));
#1600=CARTESIAN_POINT('',(-3.5,-4.,91.574483440036));
#1601=CARTESIAN_POINT('',(-3.75,-3.75,91.574483440036));
#1602=CARTESIAN_POINT('',(-4.,-3.5,93.574483440036));
#1603=CARTESIAN_POINT('',(-3.5,-4.,93.574483440036));
#1604=CARTESIAN_POINT('Origin',(-4.,-4.,93.574483440036));
#1605=CARTESIAN_POINT('',(-4.,-2.5,91.574483440036));
#1606=CARTESIAN_POINT('',(-4.,-4.,91.574483440036));
#1607=CARTESIAN_POINT('',(-4.,-2.5,93.574483440036));
#1608=CARTESIAN_POINT('Origin',(3.75,-3.75,93.574483440036));
#1609=CARTESIAN_POINT('',(3.5,-4.,91.574483440036));
#1610=CARTESIAN_POINT('',(4.,-3.5,91.574483440036));
#1611=CARTESIAN_POINT('',(3.75,-3.75,91.574483440036));
#1612=CARTESIAN_POINT('',(3.5,-4.,93.574483440036));
#1613=CARTESIAN_POINT('',(4.,-3.5,93.574483440036));
#1614=CARTESIAN_POINT('Origin',(0.,5.55111512312578E-16,91.574483440036));
#1615=CARTESIAN_POINT('',(-1.22474481550059,-2.5,91.574483440036));
#1616=CARTESIAN_POINT('',(4.,-4.,91.574483440036));
#1617=CARTESIAN_POINT('',(4.,4.,91.574483440036));
#1618=CARTESIAN_POINT('Origin',(4.,4.,93.574483440036));
#1619=CARTESIAN_POINT('Origin',(-3.75,3.75,93.574483440036));
#1620=CARTESIAN_POINT('',(-4.,3.5,93.574483440036));
#1621=CARTESIAN_POINT('Origin',(4.,4.,93.574483440036));
#1622=CARTESIAN_POINT('',(4.,2.5,93.574483440036));
#1623=CARTESIAN_POINT('Origin',(-4.,-4.,93.574483440036));
#1624=CARTESIAN_POINT('',(-4.,2.5,93.574483440036));
#1625=CARTESIAN_POINT('Origin',(4.,-4.,93.574483440036));
#1626=CARTESIAN_POINT('Origin',(2.44948963100119,2.5,93.574483440036));
#1627=CARTESIAN_POINT('',(4.75,2.5,76.574483440036));
#1628=CARTESIAN_POINT('',(-4.75,2.5,76.574483440036));
#1629=CARTESIAN_POINT('',(4.75,2.5,93.574483440036));
#1630=CARTESIAN_POINT('Origin',(-4.75,2.5,93.574483440036));
#1631=CARTESIAN_POINT('',(-4.75,2.5,76.574483440036));
#1632=CARTESIAN_POINT('',(-4.75,2.5,93.574483440036));
#1633=CARTESIAN_POINT('',(-4.75,2.5,76.574483440036));
#1634=CARTESIAN_POINT('Origin',(-4.75,-2.5,93.574483440036));
#1635=CARTESIAN_POINT('',(-4.75,-2.5,76.574483440036));
#1636=CARTESIAN_POINT('',(-4.75,-2.5,93.574483440036));
#1637=CARTESIAN_POINT('',(-4.75,-2.5,76.574483440036));
#1638=CARTESIAN_POINT('Origin',(-2.44948963100119,-2.5,93.574483440036));
#1639=CARTESIAN_POINT('',(4.75,-2.5,76.574483440036));
#1640=CARTESIAN_POINT('Origin',(-3.59974481550059,0.,76.574483440036));
#1641=CARTESIAN_POINT('Origin',(4.75,2.5,93.574483440036));
#1642=CARTESIAN_POINT('',(4.75,2.5,76.574483440036));
#1643=CARTESIAN_POINT('Origin',(3.59974481550059,0.,76.574483440036));
#1644=CARTESIAN_POINT('Origin',(0.,0.,64.35797715684));
#1645=CARTESIAN_POINT('',(-3.25,-3.9801020972289E-16,64.574483440036));
#1646=CARTESIAN_POINT('Origin',(0.,0.,64.574483440036));
#1647=CARTESIAN_POINT('',(-3.4999999217689,-4.28626370121027E-16,64.141470873644));
#1648=CARTESIAN_POINT('',(-3.37499996088445,-4.13318289921959E-16,64.35797715684));
#1649=CARTESIAN_POINT('Origin',(0.,0.,64.141470873644));
#1650=CARTESIAN_POINT('Origin',(0.,0.,38.3350444349597));
#1651=CARTESIAN_POINT('',(-3.4999999217689,-4.28626370121027E-16,12.5286179962753));
#1652=CARTESIAN_POINT('',(-3.4999999217689,-4.28626370121027E-16,38.3350444349597));
#1653=CARTESIAN_POINT('Origin',(0.,0.,12.5286179962753));
#1654=CARTESIAN_POINT('Origin',(0.,0.,11.7643088752031));
#1655=CARTESIAN_POINT('',(-3.25,-3.9801020972289E-16,10.9999997541308));
#1656=CARTESIAN_POINT('',(-3.37499996088445,-4.13318289921959E-16,11.7643088752031));
#1657=CARTESIAN_POINT('Origin',(0.,0.,10.9999997541308));
#1658=CARTESIAN_POINT('Origin',(0.,0.,6.28724159708343));
#1659=CARTESIAN_POINT('',(-3.25,-3.9801020972289E-16,1.574483440036));
#1660=CARTESIAN_POINT('',(-3.25,-3.9801020972289E-16,6.28724159708343));
#1661=CARTESIAN_POINT('Origin',(0.,0.,1.574483440036));
#1662=CARTESIAN_POINT('Origin',(0.,0.,0.787241720018006));
#1663=CARTESIAN_POINT('',(-4.,-4.89858719658941E-16,2.77555756156289E-16));
#1664=CARTESIAN_POINT('',(-3.625,-4.43934464690916E-16,0.787241720018006));
#1665=CARTESIAN_POINT('Origin',(0.,0.,0.));
#1666=CARTESIAN_POINT('Origin',(7.,0.,0.));
#1667=CARTESIAN_POINT('',(-7.,-8.57252759403147E-16,0.));
#1668=CARTESIAN_POINT('Origin',(0.,0.,0.));
#1669=CARTESIAN_POINT('Origin',(0.,0.,0.999999999999996));
#1670=CARTESIAN_POINT('',(-8.,-9.79717439317883E-16,0.999999999999996));
#1671=CARTESIAN_POINT('Origin',(0.,0.,0.999999999999996));
#1672=CARTESIAN_POINT('Origin',(-7.,-8.57252759403147E-16,0.999999999999996));
#1673=CARTESIAN_POINT('Origin',(0.,0.,1.287241720018));
#1674=CARTESIAN_POINT('',(-8.,-9.79717439317883E-16,1.287241720018));
#1675=CARTESIAN_POINT('Origin',(3.25,0.,71.574483440036));
#1676=CARTESIAN_POINT('',(-3.25,-3.9801020972289E-16,71.574483440036));
#1677=CARTESIAN_POINT('Origin',(0.,0.,71.574483440036));
#1678=CARTESIAN_POINT('Origin',(0.,0.,68.074483440036));
#1679=CARTESIAN_POINT('',(-3.25,-3.9801020972289E-16,68.074483440036));
#1680=UNCERTAINTY_MEASURE_WITH_UNIT(LENGTH_MEASURE(0.01),#1684,
'DISTANCE_ACCURACY_VALUE',
'Maximum model space distance between geometric entities at asserted c
onnectivities');
#1681=UNCERTAINTY_MEASURE_WITH_UNIT(LENGTH_MEASURE(0.01),#1684,
'DISTANCE_ACCURACY_VALUE',
'Maximum model space distance between geometric entities at asserted c
onnectivities');
#1682=(
GEOMETRIC_REPRESENTATION_CONTEXT(3)
GLOBAL_UNCERTAINTY_ASSIGNED_CONTEXT((#1680))
GLOBAL_UNIT_ASSIGNED_CONTEXT((#1684,#1686,#1687))
REPRESENTATION_CONTEXT('','3D')
);
#1683=(
GEOMETRIC_REPRESENTATION_CONTEXT(3)
GLOBAL_UNCERTAINTY_ASSIGNED_CONTEXT((#1681))
GLOBAL_UNIT_ASSIGNED_CONTEXT((#1684,#1686,#1687))
REPRESENTATION_CONTEXT('','3D')
);
#1684=(
LENGTH_UNIT()
NAMED_UNIT(*)
SI_UNIT(.MILLI.,.METRE.)
);
#1685=(
LENGTH_UNIT()
NAMED_UNIT(*)
SI_UNIT($,.METRE.)
);
#1686=(
NAMED_UNIT(*)
PLANE_ANGLE_UNIT()
SI_UNIT($,.RADIAN.)
);
#1687=(
NAMED_UNIT(*)
SI_UNIT($,.STERADIAN.)
SOLID_ANGLE_UNIT()
);
#1688=SHAPE_DEFINITION_REPRESENTATION(#1689,#1690);
#1689=PRODUCT_DEFINITION_SHAPE('',$,#1692);
#1690=SHAPE_REPRESENTATION('',(#829),#1682);
#1691=PRODUCT_DEFINITION_CONTEXT('part definition',#1696,'design');
#1692=PRODUCT_DEFINITION('470 handle 8','470 handle 8 v4',#1693,#1691);
#1693=PRODUCT_DEFINITION_FORMATION('',$,#1698);
#1694=PRODUCT_RELATED_PRODUCT_CATEGORY('470 handle 8 v4',
'470 handle 8 v4',(#1698));
#1695=APPLICATION_PROTOCOL_DEFINITION('international standard',
'automotive_design',2009,#1696);
#1696=APPLICATION_CONTEXT(
'Core Data for Automotive Mechanical Design Process');
#1697=PRODUCT_CONTEXT('part definition',#1696,'mechanical');
#1698=PRODUCT('470 handle 8','470 handle 8 v4',$,(#1697));
#1699=PRESENTATION_STYLE_ASSIGNMENT((#1700));
#1700=SURFACE_STYLE_USAGE(.BOTH.,#1701);
#1701=SURFACE_SIDE_STYLE('',(#1702));
#1702=SURFACE_STYLE_FILL_AREA(#1703);
#1703=FILL_AREA_STYLE('Steel - Satin',(#1704));
#1704=FILL_AREA_STYLE_COLOUR('Steel - Satin',#1705);
#1705=COLOUR_RGB('Steel - Satin',0.627450980392157,0.627450980392157,0.627450980392157);
ENDSEC;
END-ISO-10303-21;
